<?xml version="1.0" encoding="utf-8"?>
<!-- Generator: Adobe Illustrator 16.0.0, SVG Export Plug-In . SVG Version: 6.00 Build 0)  -->
<!DOCTYPE svg PUBLIC "-//W3C//DTD SVG 1.1//EN" "http://www.w3.org/Graphics/SVG/1.1/DTD/svg11.dtd">
<svg version="1.1" id="Layer_1" xmlns="http://www.w3.org/2000/svg" xmlns:xlink="http://www.w3.org/1999/xlink" x="0px" y="0px"
	 width="300px" height="300px" viewBox="0 0 300 300" enable-background="new 0 0 300 300" xml:space="preserve">
<g>
	<g>
		<polyline fill="#22440C" stroke="#22440C" stroke-width="2.0778" stroke-miterlimit="10" points="14.061,196.607 18.764,285.173 
			32.19,265.891 42.938,293.732 44.276,243.035 		"/>
		<polyline fill="#22440C" stroke="#22440C" stroke-width="2.0778" stroke-miterlimit="10" points="251.125,238.746 
			250.462,293.732 263.223,263.017 274.635,284.467 281.353,198.73 		"/>
		<path fill="#FFFFFF" stroke="#22440C" stroke-width="2.0778" stroke-miterlimit="10" d="M37.57,168.002l-25.523,30.011
			c0,0,25.523,39.285,31.566,44.314c6.043,4.987,32.894,45.699,91.998,52.124c59.091,6.447,110.823-42.857,116.833-49.989
			c6.054-7.164,30.923-45.731,30.923-45.731l-22.855-29.291"/>
		<g>
			<path d="M39.616,213.267l2.025,2.199c-0.741,0.773-1.154,1.535-1.219,2.275c-0.076,0.729,0.174,1.47,0.718,2.221
				c0.589,0.784,1.22,1.242,1.874,1.383c0.653,0.132,1.219,0.022,1.698-0.337c0.304-0.229,0.501-0.501,0.588-0.839
				c0.086-0.326,0.043-0.752-0.109-1.295c-0.108-0.36-0.414-1.154-0.892-2.373c-0.643-1.58-0.905-2.821-0.806-3.726
				c0.164-1.273,0.74-2.298,1.763-3.059c0.653-0.49,1.405-0.773,2.244-0.85c0.827-0.076,1.644,0.098,2.439,0.534
				c0.784,0.435,1.535,1.121,2.232,2.046c1.144,1.524,1.644,2.94,1.502,4.236c-0.131,1.295-0.773,2.417-1.927,3.342l-1.949-2.361
				c0.577-0.61,0.893-1.188,0.925-1.743c0.033-0.565-0.217-1.197-0.729-1.884c-0.533-0.707-1.1-1.154-1.71-1.316
				c-0.392-0.11-0.761-0.044-1.089,0.207c-0.304,0.228-0.479,0.543-0.522,0.947c-0.043,0.522,0.24,1.48,0.828,2.896
				c0.588,1.416,0.937,2.526,1.045,3.344c0.108,0.805,0,1.578-0.305,2.319c-0.316,0.729-0.872,1.403-1.699,2.013
				c-0.74,0.556-1.568,0.883-2.504,0.98c-0.936,0.098-1.829-0.087-2.657-0.566c-0.849-0.468-1.666-1.229-2.45-2.286
				c-1.143-1.524-1.644-2.982-1.513-4.377C37.558,215.813,38.288,214.508,39.616,213.267z"/>
			<path d="M44.582,228.826l12.369-10.313l7.187,8.635l-2.091,1.744l-5.226-6.283l-2.744,2.286l4.856,5.836l-2.091,1.742
				l-4.856-5.847l-3.376,2.809l5.423,6.501l-2.091,1.731L44.582,228.826z"/>
			<path d="M53.902,239.79l11.586-11.172l4.463,4.628c1.133,1.166,1.84,2.113,2.134,2.843c0.305,0.729,0.349,1.514,0.109,2.342
				c-0.218,0.826-0.675,1.577-1.36,2.231c-0.872,0.838-1.818,1.296-2.853,1.361c-1.034,0.064-2.081-0.306-3.147-1.122
				c0.163,0.763,0.217,1.459,0.163,2.112c-0.054,0.652-0.283,1.677-0.675,3.07l-0.979,3.506l-2.538-2.623l0.991-4.029
				c0.359-1.438,0.555-2.363,0.577-2.799c0.043-0.435-0.011-0.815-0.152-1.131c-0.131-0.317-0.446-0.73-0.936-1.231l-0.436-0.446
				l-4.834,4.671L53.902,239.79z M62.701,235.545l1.578,1.632c1.013,1.058,1.699,1.666,2.047,1.84
				c0.348,0.165,0.708,0.218,1.089,0.143c0.381-0.076,0.729-0.283,1.078-0.62c0.392-0.37,0.609-0.773,0.675-1.198
				c0.044-0.436-0.065-0.849-0.349-1.274c-0.152-0.195-0.653-0.75-1.513-1.643l-1.656-1.71L62.701,235.545z"/>
			<path d="M67.306,253.336l6.642-15.636l2.483,2.2l-5.042,11.454l10.682-6.446l2.428,2.145l-14.743,8.45L67.306,253.336z"/>
			<path d="M75.048,259.869l9.712-12.849l2.439,1.852l-9.713,12.837L75.048,259.869z"/>
			<path d="M91.533,263.953l1.981,2.416c-1.307,1.253-2.646,1.961-3.996,2.113c-1.35,0.163-2.711-0.186-4.083-1.046
				c-1.71-1.067-2.723-2.569-3.048-4.497c-0.317-1.916,0.195-3.963,1.546-6.108c1.416-2.265,3.082-3.691,4.965-4.258
				c1.894-0.566,3.746-0.283,5.531,0.85c1.568,0.98,2.536,2.275,2.896,3.877c0.217,0.947,0.131,2.058-0.261,3.331l-2.961-0.958
				c0.283-0.795,0.315-1.557,0.087-2.265c-0.217-0.707-0.676-1.284-1.361-1.721c-0.948-0.588-1.949-0.707-2.995-0.358
				c-1.045,0.358-2.09,1.351-3.103,2.972c-1.079,1.731-1.557,3.137-1.437,4.236c0.119,1.1,0.653,1.938,1.578,2.526
				c0.697,0.435,1.438,0.566,2.222,0.413C89.878,265.324,90.695,264.813,91.533,263.953z"/>
			<path d="M93.645,271.967l6.73-14.635l10.203,4.693l-1.143,2.472l-7.415-3.408l-1.492,3.245l6.903,3.168l-1.132,2.472
				l-6.903-3.179l-1.829,3.983l7.687,3.529l-1.133,2.471L93.645,271.967z"/>
			<path d="M125.026,283.072l-3.223-0.85l-0.327-3.876l-5.857-1.558l-2.145,3.212l-3.136-0.836l9.854-14.048l3.114,0.828
				L125.026,283.072z M121.215,275.473l-0.479-6.315l-3.506,5.249L121.215,275.473z"/>
			<path d="M127.292,283.399l2.134-15.963l2.939,0.392l4.726,11.488l1.415-10.671l2.821,0.382l-2.135,15.962l-3.037-0.403
				l-4.661-11.227l-1.394,10.42L127.292,283.399z"/>
			<path d="M142.481,269.179l5.584-0.164c1.264-0.032,2.223,0.045,2.887,0.229c0.904,0.251,1.666,0.719,2.319,1.415
				c0.653,0.688,1.176,1.546,1.524,2.569c0.371,1.013,0.565,2.276,0.608,3.79c0.045,1.328-0.085,2.472-0.37,3.441
				c-0.337,1.176-0.848,2.144-1.535,2.885c-0.512,0.565-1.208,1.014-2.102,1.352c-0.674,0.25-1.567,0.392-2.7,0.424l-5.75,0.163
				L142.481,269.179z M145.616,271.813l0.306,10.671l2.285-0.064c0.851-0.032,1.471-0.1,1.842-0.219
				c0.501-0.141,0.893-0.381,1.219-0.696c0.316-0.328,0.567-0.85,0.752-1.58c0.184-0.728,0.261-1.72,0.229-2.961
				c-0.045-1.24-0.176-2.2-0.392-2.854c-0.24-0.663-0.534-1.175-0.915-1.534c-0.392-0.371-0.872-0.599-1.438-0.719
				c-0.436-0.087-1.263-0.119-2.516-0.076L145.616,271.813z"/>
			<path d="M164.682,283.41l-3.156-15.799l2.993-0.599l3.169,15.799L164.682,283.41z"/>
			<path d="M170.943,282.201l-4.617-15.439l2.842-0.85l9.026,8.526l-3.082-10.3l2.724-0.817l4.617,15.428l-2.94,0.882l-8.863-8.306
				l3.016,10.06L170.943,282.201z"/>
			<path d="M189.139,276.07l-5.205-12.325l-4.138,1.742l-1.066-2.503l11.084-4.684l1.066,2.516l-4.138,1.742l5.204,12.325
				L189.139,276.07z"/>
			<path d="M197.957,272.218l-7.533-14.243l9.919-5.248l1.272,2.406l-7.219,3.822l1.666,3.156l6.72-3.56l1.274,2.405l-6.72,3.551
				l2.047,3.876l7.48-3.952l1.274,2.396L197.957,272.218z"/>
			<path d="M213.539,256.45l-1.48-2.275l5.531-3.582l3.496,5.378c-0.187,0.904-0.644,1.896-1.395,2.984
				c-0.752,1.077-1.645,1.959-2.69,2.635c-1.327,0.86-2.678,1.316-4.05,1.36c-1.371,0.045-2.668-0.315-3.877-1.099
				c-1.208-0.784-2.242-1.819-3.082-3.126c-0.914-1.404-1.447-2.831-1.599-4.289c-0.153-1.449,0.119-2.821,0.804-4.095
				c0.523-0.98,1.395-1.862,2.604-2.646c1.579-1.024,3.038-1.47,4.389-1.34c1.339,0.13,2.535,0.741,3.604,1.808l-2.22,2.167
				c-0.611-0.556-1.285-0.859-2.025-0.927c-0.752-0.064-1.493,0.153-2.233,0.633c-1.121,0.719-1.763,1.676-1.938,2.864
				c-0.174,1.186,0.229,2.514,1.187,4.007c1.047,1.6,2.155,2.59,3.342,2.961c1.2,0.37,2.333,0.195,3.42-0.512
				c0.533-0.348,1.003-0.806,1.405-1.383c0.393-0.566,0.675-1.144,0.86-1.71l-1.111-1.721L213.539,256.45z"/>
			<path d="M224.603,256.199l-9.899-12.706l5.076-3.964c1.285-0.99,2.297-1.601,3.047-1.818c0.763-0.229,1.536-0.186,2.343,0.132
				c0.805,0.315,1.491,0.848,2.079,1.6c0.74,0.946,1.1,1.949,1.056,2.973c-0.043,1.034-0.532,2.036-1.448,3.017
				c0.773-0.077,1.481-0.066,2.124,0.064c0.631,0.12,1.634,0.447,2.972,0.99l3.398,1.34l-2.887,2.254l-3.897-1.415
				c-1.395-0.501-2.298-0.795-2.732-0.871c-0.424-0.076-0.808-0.065-1.133,0.032c-0.327,0.11-0.773,0.37-1.327,0.806l-0.491,0.381
				l4.138,5.303L224.603,256.199z M221.304,246.988l1.784-1.395c1.153-0.903,1.842-1.513,2.047-1.851
				c0.208-0.326,0.296-0.676,0.261-1.057c-0.043-0.381-0.205-0.763-0.498-1.144c-0.338-0.435-0.709-0.695-1.133-0.784
				c-0.413-0.097-0.851-0.032-1.297,0.207c-0.217,0.121-0.817,0.566-1.796,1.329l-1.885,1.46L221.304,246.988z"/>
			<path d="M236.677,246.51l-10.801-11.945l2.266-2.047l10.812,11.944L236.677,246.51z"/>
			<path d="M243.853,239.682l-9.951-8.939l-3.007,3.342l-2.025-1.817l8.037-8.961l2.025,1.828l-2.995,3.333l9.965,8.939
				L243.853,239.682z"/>
			<path d="M252.347,228.521l-5.412-4.073l-10.79-1.165l2.145-2.874l7.241,0.979l-2.994-6.62l2.111-2.809l4.127,10.072l5.4,4.05
				L252.347,228.521z"/>
		</g>
		<path fill="#22440C" d="M266.925,132.25c0,68.745-52.154,124.462-116.484,124.462c-64.329,0-116.475-55.717-116.475-124.462
			c0-68.756,52.146-124.483,116.475-124.483C214.771,7.767,266.925,63.494,266.925,132.25z"/>
		<g>
			<path fill="#FFFFFF" stroke="#FFFFFF" stroke-width="1.1328" stroke-miterlimit="10" d="M56.951,103.498l0.327-1.719
				c1.013,0.304,1.764,0.348,2.232,0.125c0.49-0.219,0.828-0.638,1.035-1.258c0.152-0.457,0.186-0.887,0.098-1.285
				c-0.087-0.403-0.272-0.729-0.578-0.975c-0.283-0.246-0.806-0.501-1.568-0.762l-8.95-3.168l0.62-1.813l8.831,3.124
				c1.11,0.381,1.894,0.817,2.406,1.307c0.5,0.491,0.795,1.094,0.916,1.807c0.119,0.72,0.021,1.482-0.229,2.298
				c-0.403,1.203-1.045,2.015-1.916,2.428C59.303,104.01,58.236,103.978,56.951,103.498z"/>
			<path fill="#FFFFFF" stroke="#FFFFFF" stroke-width="1.1328" stroke-miterlimit="10" d="M58.367,90.662
				c-2.026-1.068-3.332-2.478-3.887-4.236c-0.577-1.758-0.403-3.549,0.544-5.362c0.599-1.192,1.416-2.124,2.439-2.793
				c1.013-0.675,2.134-1.013,3.354-0.997c1.219,0.006,2.428,0.333,3.669,0.975c1.23,0.658,2.201,1.502,2.918,2.553
				c0.698,1.035,1.068,2.178,1.068,3.414c0.022,1.231-0.262,2.412-0.828,3.533c-0.62,1.209-1.458,2.146-2.482,2.81
				c-1.045,0.67-2.156,0.985-3.375,0.975C60.576,91.516,59.434,91.228,58.367,90.662z M59.281,88.914
				c1.46,0.778,2.831,0.974,4.105,0.582c1.274-0.386,2.232-1.208,2.875-2.472c0.642-1.285,0.75-2.57,0.315-3.849
				c-0.425-1.28-1.438-2.341-3.005-3.168c-0.991-0.518-1.96-0.806-2.875-0.844c-0.914-0.039-1.764,0.18-2.515,0.647
				s-1.34,1.133-1.774,1.982c-0.611,1.204-0.741,2.455-0.392,3.74C56.341,86.817,57.441,87.944,59.281,88.914z"/>
			<path fill="#FFFFFF" stroke="#FFFFFF" stroke-width="1.1328" stroke-miterlimit="10" d="M72.685,78.586l-11.379-7.873
				l1.067-1.589l11.356,7.873L72.685,78.586z"/>
			<path fill="#FFFFFF" stroke="#FFFFFF" stroke-width="1.1328" stroke-miterlimit="10" d="M75.94,73.653l-10.452-9.103l1.284-1.492
				l13.109,1.399l-8.188-7.154l1.188-1.388l10.442,9.108L82.06,66.51l-13.131-1.405l8.188,7.16L75.94,73.653z"/>
			<path fill="#FFFFFF" stroke="#FFFFFF" stroke-width="1.1328" stroke-miterlimit="10" d="M89.225,59.651l-7.872-9.343
				l-3.627,3.076l-1.067-1.251l8.711-7.394l1.045,1.252l-3.625,3.082l7.883,9.342L89.225,59.651z"/>
			<path fill="#FFFFFF" stroke="#FFFFFF" stroke-width="1.1328" stroke-miterlimit="10" d="M98.872,52.05l-1.938-14.775l1.796-0.997
				l11.922,9.229l-1.895,1.056l-3.528-2.842l-5.27,2.917l0.675,4.432L98.872,52.05z M99.721,45.07l4.268-2.363l-3.19-2.624
				c-0.969-0.795-1.731-1.469-2.298-2.014c0.272,0.86,0.48,1.758,0.611,2.685L99.721,45.07z"/>
			<path fill="#FFFFFF" stroke="#FFFFFF" stroke-width="1.1328" stroke-miterlimit="10" d="M113.07,44.515l-4.747-13.006
				l4.683-1.649c1.066-0.381,1.894-0.6,2.482-0.676c0.849-0.098,1.634-0.021,2.33,0.229c0.937,0.322,1.743,0.877,2.439,1.656
				c0.676,0.772,1.242,1.741,1.656,2.896c0.37,0.991,0.554,1.906,0.598,2.755c0.044,0.849-0.032,1.59-0.228,2.227
				c-0.196,0.63-0.469,1.17-0.807,1.611c-0.348,0.446-0.805,0.854-1.393,1.23c-0.578,0.376-1.274,0.702-2.102,0.996L113.07,44.515z
				 M114.312,42.344l2.918-1.018c0.871-0.322,1.558-0.648,2.014-0.992c0.447-0.337,0.773-0.708,0.97-1.1
				c0.272-0.566,0.403-1.235,0.403-2.009c-0.022-0.768-0.208-1.645-0.566-2.63c-0.501-1.36-1.121-2.319-1.862-2.885
				c-0.708-0.566-1.458-0.849-2.221-0.865c-0.544-0.005-1.362,0.18-2.429,0.561l-2.852,1.001L114.312,42.344z"/>
			<path fill="#FFFFFF" stroke="#FFFFFF" stroke-width="1.1328" stroke-miterlimit="10" d="M127.705,39.616l-2.352-13.611
				l2.842-0.441l5.052,9.108c0.468,0.85,0.805,1.486,1.034,1.906c0.066-0.518,0.197-1.285,0.371-2.298l1.796-10.006l2.538-0.394
				l2.352,13.606l-1.818,0.288l-1.973-11.395l-2.187,12.043l-1.7,0.261l-6.13-10.937l1.993,11.585L127.705,39.616z"/>
			<path fill="#FFFFFF" stroke="#FFFFFF" stroke-width="1.1328" stroke-miterlimit="10" d="M145.584,37.514L145.04,23.75
				l1.927-0.042l0.544,13.768L145.584,37.514z"/>
			<path fill="#FFFFFF" stroke="#FFFFFF" stroke-width="1.1328" stroke-miterlimit="10" d="M151.507,32.94l1.808,0.022
				c0.043,0.691,0.196,1.274,0.479,1.748c0.283,0.462,0.729,0.865,1.373,1.203c0.641,0.333,1.37,0.544,2.176,0.615
				c0.741,0.071,1.383,0.028,1.961-0.119c0.587-0.152,1.013-0.397,1.307-0.735c0.314-0.327,0.467-0.702,0.501-1.127
				c0.043-0.43-0.066-0.822-0.306-1.171c-0.238-0.342-0.653-0.653-1.24-0.93c-0.37-0.18-1.221-0.485-2.527-0.909
				c-1.307-0.43-2.221-0.806-2.722-1.122c-0.675-0.414-1.154-0.887-1.447-1.426c-0.307-0.543-0.427-1.127-0.382-1.758
				c0.054-0.692,0.305-1.323,0.773-1.879c0.445-0.566,1.099-0.964,1.917-1.197c0.815-0.24,1.708-0.311,2.688-0.212
				c1.068,0.098,2.004,0.354,2.788,0.756c0.806,0.409,1.394,0.953,1.786,1.627c0.402,0.681,0.576,1.422,0.544,2.228l-1.84-0.043
				c-0.032-0.871-0.314-1.563-0.85-2.059c-0.544-0.5-1.36-0.8-2.472-0.903c-1.154-0.109-2.025,0.005-2.58,0.354
				c-0.556,0.353-0.861,0.817-0.904,1.382c-0.032,0.491,0.12,0.921,0.469,1.269c0.348,0.354,1.296,0.773,2.82,1.253
				c1.523,0.484,2.568,0.876,3.136,1.186c0.806,0.441,1.394,0.969,1.754,1.574c0.357,0.604,0.512,1.269,0.456,2.009
				c-0.054,0.729-0.336,1.387-0.816,1.998c-0.49,0.598-1.154,1.045-2.004,1.322c-0.87,0.284-1.808,0.37-2.831,0.273
				c-1.307-0.125-2.395-0.415-3.255-0.861c-0.861-0.446-1.515-1.05-1.949-1.829C151.659,34.705,151.464,33.856,151.507,32.94z"/>
			<path fill="#FFFFFF" stroke="#FFFFFF" stroke-width="1.1328" stroke-miterlimit="10" d="M166.392,34.601l1.798,0.305
				c-0.077,0.687,0,1.291,0.194,1.792c0.208,0.506,0.6,0.974,1.176,1.399c0.578,0.43,1.274,0.746,2.081,0.953
				c0.707,0.18,1.36,0.239,1.949,0.174c0.598-0.054,1.066-0.228,1.415-0.512c0.348-0.277,0.576-0.626,0.675-1.04
				c0.099-0.419,0.054-0.811-0.13-1.192c-0.197-0.381-0.556-0.751-1.09-1.111c-0.358-0.239-1.131-0.664-2.362-1.29
				c-1.219-0.631-2.068-1.138-2.538-1.535c-0.587-0.495-1-1.04-1.219-1.627c-0.218-0.578-0.25-1.166-0.109-1.781
				c0.152-0.669,0.513-1.251,1.046-1.737c0.556-0.479,1.241-0.773,2.09-0.881c0.851-0.109,1.754-0.038,2.7,0.207
				c1.045,0.266,1.939,0.653,2.657,1.181c0.72,0.527,1.231,1.149,1.514,1.878c0.294,0.73,0.36,1.492,0.207,2.282l-1.818-0.333
				c0.098-0.865-0.075-1.589-0.534-2.161c-0.445-0.577-1.219-0.996-2.309-1.279c-1.144-0.283-2.002-0.3-2.612-0.039
				c-0.61,0.262-0.97,0.665-1.111,1.214c-0.108,0.491-0.021,0.926,0.272,1.329c0.284,0.402,1.165,0.963,2.604,1.671
				c1.448,0.708,2.416,1.263,2.917,1.65c0.741,0.565,1.241,1.176,1.514,1.823c0.251,0.648,0.315,1.334,0.142,2.048
				c-0.174,0.712-0.544,1.322-1.111,1.845c-0.576,0.517-1.317,0.85-2.199,0.991c-0.893,0.142-1.829,0.087-2.853-0.174
				c-1.264-0.327-2.298-0.773-3.082-1.339c-0.772-0.578-1.338-1.285-1.666-2.112C166.283,36.371,166.206,35.5,166.392,34.601z"/>
			<path fill="#FFFFFF" stroke="#FFFFFF" stroke-width="1.1328" stroke-miterlimit="10" d="M180.308,43.214l4.617-12.865
				l1.807,0.686l-4.628,12.871L180.308,43.214z"/>
			<path fill="#FFFFFF" stroke="#FFFFFF" stroke-width="1.1328" stroke-miterlimit="10" d="M188.594,39.148
				c1.033-2.016,2.406-3.289,4.138-3.812c1.741-0.529,3.517-0.31,5.347,0.665c1.196,0.637,2.123,1.475,2.81,2.52
				c0.685,1.05,1.022,2.188,1.044,3.414c0.011,1.22-0.304,2.445-0.925,3.659c-0.621,1.23-1.449,2.194-2.472,2.886
				c-1.046,0.691-2.167,1.018-3.377,1.001c-1.229-0.011-2.405-0.315-3.527-0.914c-1.207-0.653-2.166-1.513-2.83-2.575
				c-0.686-1.061-1.013-2.199-1.023-3.414C187.767,41.353,188.049,40.214,188.594,39.148z M190.336,40.105
				c-0.741,1.471-0.925,2.842-0.501,4.138c0.393,1.285,1.219,2.265,2.482,2.935c1.295,0.691,2.568,0.833,3.844,0.424
				c1.263-0.408,2.298-1.393,3.092-2.957c0.513-0.99,0.772-1.949,0.783-2.868c0.032-0.926-0.194-1.781-0.674-2.554
				c-0.468-0.768-1.133-1.377-1.992-1.835c-1.209-0.647-2.451-0.81-3.723-0.489C192.383,37.209,191.271,38.287,190.336,40.105z"/>
			<path fill="#FFFFFF" stroke="#FFFFFF" stroke-width="1.1328" stroke-miterlimit="10" d="M200.767,53.635l8.254-10.807l1.578,1.23
				l-0.424,13.23l6.501-8.488l1.447,1.144l-8.241,10.818l-1.592-1.23l0.438-13.241l-6.502,8.493L200.767,53.635z"/>
			<path fill="#FFFFFF" stroke="#FFFFFF" stroke-width="1.1328" stroke-miterlimit="10" d="M215.793,60.282l1.351,1.253
				c-0.436,0.522-0.697,1.05-0.806,1.583c-0.11,0.529-0.021,1.127,0.218,1.809c0.262,0.669,0.675,1.312,1.24,1.926
				c0.513,0.55,1.024,0.959,1.546,1.237c0.544,0.272,1.046,0.397,1.482,0.358c0.445-0.038,0.826-0.201,1.133-0.489
				c0.315-0.289,0.499-0.637,0.554-1.056c0.043-0.408-0.055-0.915-0.316-1.514c-0.162-0.392-0.587-1.187-1.295-2.374
				c-0.697-1.203-1.131-2.091-1.296-2.668c-0.229-0.74-0.283-1.416-0.151-2.014c0.141-0.599,0.434-1.104,0.882-1.535
				c0.512-0.468,1.122-0.751,1.85-0.85c0.72-0.092,1.46,0.049,2.244,0.431c0.763,0.387,1.491,0.936,2.168,1.671
				c0.738,0.794,1.273,1.606,1.6,2.444c0.327,0.833,0.414,1.628,0.239,2.379c-0.152,0.768-0.501,1.427-1.066,1.993l-1.352-1.274
				c0.555-0.664,0.795-1.35,0.73-2.079c-0.076-0.725-0.49-1.498-1.263-2.331c-0.784-0.86-1.525-1.361-2.179-1.481
				c-0.652-0.12-1.187,0.005-1.6,0.392c-0.35,0.333-0.522,0.746-0.49,1.242c0.011,0.489,0.445,1.426,1.284,2.82
				c0.827,1.383,1.351,2.373,1.568,2.978c0.305,0.876,0.392,1.655,0.262,2.33c-0.131,0.692-0.446,1.274-1.003,1.775
				c-0.512,0.489-1.165,0.79-1.928,0.898c-0.783,0.108-1.577-0.027-2.415-0.398c-0.818-0.375-1.602-0.947-2.298-1.714
				c-0.903-0.974-1.535-1.917-1.884-2.826c-0.35-0.903-0.425-1.786-0.262-2.656C214.725,61.67,215.151,60.924,215.793,60.282z"/>
			<path fill="#FFFFFF" stroke="#FFFFFF" stroke-width="1.1328" stroke-miterlimit="10" d="M224.787,77.345l14.58-2.157l1.087,1.787
				l-8.546,12.141l-1.144-1.895l2.636-3.588l-3.169-5.253l-4.366,0.729L224.787,77.345z M231.778,78.107l2.568,4.262l2.429-3.251
				c0.751-0.99,1.372-1.774,1.883-2.346c-0.849,0.288-1.709,0.512-2.635,0.659L231.778,78.107z"/>
			<path fill="#FFFFFF" stroke="#FFFFFF" stroke-width="1.1328" stroke-miterlimit="10" d="M233.041,91.548l12.652-4.992
				l0.751,1.846l-7.023,11.068l9.92-3.919l0.697,1.719l-12.642,4.998l-0.741-1.851l7.024-11.068l-9.932,3.931L233.041,91.548z"/>
			<path fill="#FFFFFF" stroke="#FFFFFF" stroke-width="1.1328" stroke-miterlimit="10" d="M238.681,106.346l13.339-2.819
				l1.122,4.926c0.238,1.11,0.37,1.972,0.392,2.581c0,0.855-0.153,1.628-0.491,2.303c-0.424,0.877-1.055,1.601-1.893,2.167
				c-0.839,0.572-1.853,0.98-3.039,1.23c-1.013,0.212-1.938,0.283-2.777,0.191c-0.848-0.087-1.557-0.277-2.178-0.566
				c-0.587-0.283-1.099-0.632-1.49-1.045c-0.402-0.408-0.763-0.925-1.057-1.562c-0.306-0.637-0.557-1.383-0.751-2.249
				L238.681,106.346z M240.684,107.898l0.698,3.059c0.216,0.937,0.456,1.661,0.763,2.162c0.272,0.507,0.607,0.876,0.968,1.138
				c0.513,0.359,1.165,0.588,1.927,0.691c0.763,0.104,1.655,0.049,2.647-0.168c1.395-0.294,2.428-0.762,3.047-1.416
				c0.632-0.643,1.003-1.35,1.101-2.107c0.064-0.55-0.021-1.383-0.282-2.504l-0.676-3L240.684,107.898z"/>
		</g>
		<g>
			<path fill="#FFFFFF" stroke="#FFFFFF" stroke-width="1.1328" stroke-miterlimit="10" d="M49.263,151.027l13.251-3.158l0.73,2.831
				l-8.537,5.596c-0.795,0.523-1.394,0.904-1.786,1.154c0.523,0.044,1.285,0.131,2.308,0.24l10.083,1.209l0.653,2.536l-13.251,3.158
				l-0.468-1.818l11.084-2.646l-12.119-1.481l-0.446-1.699l10.235-6.794l-11.27,2.679L49.263,151.027z"/>
			<path fill="#FFFFFF" stroke="#FFFFFF" stroke-width="1.1328" stroke-miterlimit="10" d="M54.229,168.906l14.743-0.271
				l0.871,1.927l-10.017,10.909l-0.893-2.014l3.06-3.212l-2.504-5.618l-4.421,0.173L54.229,168.906z M61.067,170.562l2.026,4.552
				l2.831-2.908c0.849-0.882,1.567-1.578,2.155-2.079c-0.871,0.174-1.774,0.282-2.7,0.315L61.067,170.562z"/>
			<path fill="#FFFFFF" stroke="#FFFFFF" stroke-width="1.1328" stroke-miterlimit="10" d="M62.962,186.665l10.235-6.206
				l-2.504-4.138l1.361-0.827l6.054,9.963l-1.372,0.827l-2.516-4.159l-10.246,6.206L62.962,186.665z"/>
			<path fill="#FFFFFF" stroke="#FFFFFF" stroke-width="1.1328" stroke-miterlimit="10" d="M69.092,196.073l10.376-8.766l4.181,5.01
				c0.838,1.001,1.394,1.851,1.633,2.524c0.262,0.688,0.284,1.384,0.077,2.092c-0.207,0.719-0.61,1.307-1.187,1.785
				c-0.729,0.632-1.568,0.893-2.505,0.796c-0.936-0.088-1.927-0.622-2.961-1.58c0.142,0.534,0.219,0.981,0.229,1.329
				c-0.011,0.739-0.12,1.546-0.339,2.406l-1.197,4.345l-1.568-1.884l0.903-3.321c0.272-0.947,0.446-1.721,0.544-2.275
				c0.088-0.566,0.109-1.013,0.054-1.339c-0.054-0.338-0.153-0.644-0.294-0.914c-0.108-0.196-0.314-0.491-0.643-0.873l-1.448-1.731
				l-4.606,3.889L69.092,196.073z M76.147,192.665l2.679,3.212c0.566,0.686,1.078,1.165,1.524,1.438
				c0.447,0.283,0.904,0.392,1.361,0.359c0.458-0.043,0.85-0.206,1.188-0.489c0.489-0.415,0.729-0.948,0.718-1.602
				c-0.011-0.652-0.359-1.404-1.056-2.243l-2.983-3.571L76.147,192.665z"/>
			<path fill="#FFFFFF" stroke="#FFFFFF" stroke-width="1.1328" stroke-miterlimit="10" d="M80.513,208.824l9.277-9.942l1.415,1.34
				l-9.266,9.94L80.513,208.824z"/>
			<path fill="#FFFFFF" stroke="#FFFFFF" stroke-width="1.1328" stroke-miterlimit="10" d="M96.912,216.184l1.274,1.525
				c-1.209,0.946-2.45,1.416-3.756,1.416c-1.307-0.011-2.57-0.47-3.778-1.384c-1.274-0.959-2.124-1.971-2.559-3.06
				c-0.447-1.078-0.544-2.222-0.283-3.452c0.262-1.219,0.773-2.362,1.546-3.408c0.828-1.144,1.786-1.959,2.886-2.46
				c1.088-0.501,2.232-0.653,3.408-0.447c1.187,0.207,2.309,0.698,3.332,1.482c1.176,0.882,1.949,1.905,2.352,3.069
				c0.38,1.154,0.36,2.362-0.066,3.616l-1.774-0.817c0.315-1.002,0.348-1.873,0.098-2.635c-0.24-0.752-0.773-1.427-1.557-2.015
				c-0.893-0.676-1.796-1.045-2.701-1.1c-0.893-0.044-1.72,0.173-2.461,0.675c-0.751,0.501-1.382,1.111-1.916,1.83
				c-0.686,0.936-1.133,1.861-1.36,2.775c-0.219,0.915-0.143,1.774,0.217,2.581c0.348,0.806,0.893,1.48,1.612,2.014
				c0.86,0.653,1.765,0.969,2.722,0.958C95.083,217.327,96.008,216.946,96.912,216.184z"/>
			<path fill="#FFFFFF" stroke="#FFFFFF" stroke-width="1.1328" stroke-miterlimit="10" d="M114.878,216.184l1.72,0.884
				l-3.461,7.077c-0.61,1.229-1.242,2.133-1.873,2.71c-0.654,0.566-1.48,0.895-2.483,0.938c-0.98,0.065-2.112-0.229-3.364-0.871
				c-1.23-0.622-2.124-1.34-2.712-2.124c-0.588-0.795-0.86-1.655-0.828-2.58c0.055-0.915,0.381-2.026,1.023-3.321l3.463-7.089
				l1.721,0.883l-3.463,7.077c-0.522,1.066-0.806,1.905-0.828,2.515c-0.043,0.621,0.131,1.199,0.501,1.731
				c0.381,0.533,0.947,0.991,1.677,1.372c1.263,0.644,2.298,0.839,3.113,0.577c0.796-0.272,1.591-1.165,2.332-2.7L114.878,216.184z"
				/>
			<path fill="#FFFFFF" stroke="#FFFFFF" stroke-width="1.1328" stroke-miterlimit="10" d="M115.858,231.406l4.061-13.077
				l1.83,0.621l-3.583,11.53l6.805,2.276l-0.479,1.546L115.858,231.406z"/>
			<path fill="#FFFFFF" stroke="#FFFFFF" stroke-width="1.1328" stroke-miterlimit="10" d="M127.52,235.206l7.623-12.586l2.037,0.37
				l3.745,14.612l-2.167-0.382l-1.024-4.41l-5.989-1.066l-2.21,3.822L127.52,235.206z M132.517,230.384l4.856,0.858l-0.903-4.017
				c-0.282-1.23-0.469-2.232-0.576-3.006c-0.317,0.839-0.709,1.655-1.188,2.461L132.517,230.384z"/>
			<path fill="#FFFFFF" stroke="#FFFFFF" stroke-width="1.1328" stroke-miterlimit="10" d="M146.64,237.864l0.295-12.143
				l-4.782-0.217l0.034-1.633l11.498,0.533l-0.064,1.623l-4.771-0.229l-0.304,12.15L146.64,237.864z"/>
			<path fill="#FFFFFF" stroke="#FFFFFF" stroke-width="1.1328" stroke-miterlimit="10" d="M157.561,237.864l-1.132-13.753
				l1.905-0.132l1.144,13.753L157.561,237.864z"/>
			<path fill="#FFFFFF" stroke="#FFFFFF" stroke-width="1.1328" stroke-miterlimit="10" d="M162.908,230.916
				c-0.469-2.242-0.208-4.126,0.806-5.64c0.98-1.523,2.471-2.472,4.476-2.863c1.316-0.24,2.559-0.186,3.724,0.218
				c1.176,0.392,2.154,1.066,2.938,2.036c0.762,0.958,1.296,2.112,1.58,3.474c0.293,1.37,0.261,2.656-0.099,3.854
				c-0.349,1.197-1.002,2.179-1.938,2.94c-0.958,0.762-2.048,1.252-3.267,1.503c-1.34,0.24-2.593,0.174-3.779-0.24
				s-2.144-1.1-2.917-2.068C163.671,233.181,163.169,232.104,162.908,230.916z M164.857,230.568c0.336,1.633,1.056,2.82,2.178,3.594
				c1.109,0.75,2.361,1.001,3.756,0.729c1.405-0.272,2.472-0.958,3.19-2.091c0.707-1.121,0.882-2.559,0.522-4.3
				c-0.239-1.101-0.632-2.026-1.198-2.778c-0.566-0.739-1.262-1.262-2.112-1.577c-0.837-0.306-1.743-0.36-2.668-0.187
				c-1.339,0.262-2.373,0.915-3.146,1.972C164.606,226.986,164.42,228.532,164.857,230.568z"/>
			<path fill="#FFFFFF" stroke="#FFFFFF" stroke-width="1.1328" stroke-miterlimit="10" d="M183.03,233.27l-5.151-12.871
				l1.808-0.709l11.105,7.351l-4.05-10.104l1.688-0.664l5.172,12.87l-1.807,0.708l-11.105-7.351l4.049,10.104L183.03,233.27z"/>
			<path fill="#FFFFFF" stroke="#FFFFFF" stroke-width="1.1328" stroke-miterlimit="10" d="M204.424,223.338l-7.86-11.444
				l4.443-3.048c0.914-0.621,1.72-1.003,2.417-1.154c0.708-0.141,1.382-0.076,2.024,0.186c0.643,0.272,1.144,0.663,1.503,1.187
				c0.326,0.489,0.522,1.056,0.544,1.665c0,0.622-0.162,1.253-0.533,1.906c0.86-0.294,1.645-0.326,2.363-0.108
				c0.729,0.228,1.328,0.675,1.785,1.338c0.349,0.534,0.578,1.122,0.665,1.731c0.086,0.633,0.043,1.176-0.131,1.678
				c-0.175,0.479-0.489,0.97-0.916,1.448c-0.435,0.489-1.033,0.991-1.784,1.502L204.424,223.338z M201.431,215.628l2.57-1.764
				c0.695-0.479,1.164-0.859,1.404-1.164c0.315-0.381,0.49-0.783,0.501-1.188c0.021-0.402-0.099-0.806-0.371-1.208
				c-0.26-0.37-0.588-0.653-0.979-0.807c-0.392-0.151-0.795-0.162-1.219-0.032c-0.413,0.132-1.057,0.49-1.906,1.078l-2.373,1.633
				L201.431,215.628z M205.067,220.91l2.951-2.025c0.512-0.348,0.85-0.611,1.023-0.795c0.316-0.315,0.554-0.62,0.697-0.937
				c0.143-0.315,0.206-0.663,0.153-1.045c-0.032-0.381-0.164-0.763-0.414-1.122c-0.296-0.424-0.666-0.719-1.111-0.882
				c-0.435-0.152-0.915-0.163-1.383-0.011c-0.501,0.152-1.121,0.479-1.883,0.991l-2.735,1.894L205.067,220.91z"/>
			<path fill="#FFFFFF" stroke="#FFFFFF" stroke-width="1.1328" stroke-miterlimit="10" d="M212.505,209.336
				c-1.59-1.655-2.384-3.408-2.384-5.249c0.032-1.829,0.761-3.463,2.21-4.879c0.946-0.925,2.025-1.534,3.212-1.839
				s2.352-0.262,3.517,0.142c1.164,0.402,2.221,1.101,3.181,2.09c0.968,1.023,1.644,2.134,1.991,3.343
				c0.35,1.209,0.328,2.407-0.054,3.572c-0.381,1.165-1.002,2.179-1.905,3.048c-0.98,0.959-2.06,1.569-3.256,1.862
				c-1.199,0.295-2.386,0.229-3.529-0.163C214.346,210.849,213.344,210.207,212.505,209.336z M213.932,207.985
				c1.152,1.208,2.396,1.829,3.734,1.872c1.329,0.032,2.505-0.424,3.518-1.414c1.024-1.003,1.523-2.168,1.513-3.519
				c-0.011-1.35-0.631-2.667-1.861-3.951c-0.795-0.817-1.612-1.384-2.472-1.721c-0.882-0.337-1.732-0.393-2.614-0.196
				c-0.87,0.196-1.633,0.632-2.309,1.295c-0.968,0.938-1.479,2.07-1.579,3.397C211.786,205.067,212.473,206.482,213.932,207.985z"/>
			<path fill="#FFFFFF" stroke="#FFFFFF" stroke-width="1.1328" stroke-miterlimit="10" d="M229.285,201.964l-7.818-12.783
				l1.229-1.666l14.549,3.55l-1.285,1.753l-4.346-1.154l-3.55,4.867l2.417,3.8L229.285,201.964z M227.193,195.191l2.887-3.953
				l-3.965-1.077c-1.196-0.338-2.156-0.632-2.896-0.904c0.6,0.686,1.154,1.416,1.654,2.211L227.193,195.191z"/>
			<path fill="#FFFFFF" stroke="#FFFFFF" stroke-width="1.1328" stroke-miterlimit="10" d="M239.432,187.342l-12.205-6.448
				l2.875-5.727c0.587-1.154,1.132-1.971,1.655-2.45c0.521-0.479,1.154-0.75,1.895-0.816c0.738-0.064,1.437,0.076,2.101,0.425
				c0.871,0.469,1.447,1.144,1.741,2.058c0.306,0.904,0.219,2.016-0.237,3.343c0.424-0.348,0.805-0.577,1.119-0.718
				c0.688-0.262,1.461-0.457,2.341-0.556l4.466-0.489l-1.1,2.144l-3.398,0.382c-0.979,0.109-1.741,0.217-2.298,0.337
				c-0.544,0.12-0.979,0.262-1.251,0.436c-0.295,0.164-0.545,0.371-0.73,0.611c-0.13,0.162-0.316,0.479-0.543,0.914l-0.991,1.98
				l5.422,2.865L239.432,187.342z M233.476,182.037l1.851-3.68c0.394-0.772,0.621-1.437,0.687-1.948
				c0.075-0.523,0-0.991-0.218-1.395c-0.229-0.402-0.534-0.708-0.925-0.926c-0.578-0.305-1.165-0.327-1.765-0.087
				c-0.587,0.25-1.133,0.85-1.61,1.808l-2.069,4.083L233.476,182.037z"/>
			<path fill="#FFFFFF" stroke="#FFFFFF" stroke-width="1.1328" stroke-miterlimit="10" d="M246.716,171.879l-13.054-4.388
				l1.49-4.77c0.338-1.078,0.653-1.873,0.96-2.396c0.413-0.74,0.946-1.307,1.567-1.721c0.816-0.533,1.72-0.827,2.731-0.882
				c1.035-0.065,2.125,0.099,3.29,0.49c0.989,0.338,1.818,0.763,2.514,1.263c0.687,0.501,1.231,1.023,1.602,1.59
				c0.381,0.545,0.643,1.089,0.795,1.655c0.152,0.544,0.195,1.176,0.142,1.873c-0.056,0.697-0.218,1.459-0.479,2.287
				L246.716,171.879z M245.737,169.527l0.936-2.951c0.283-0.914,0.435-1.655,0.435-2.222c-0.01-0.588-0.086-1.066-0.292-1.481
				c-0.272-0.566-0.72-1.088-1.341-1.566c-0.608-0.479-1.416-0.872-2.395-1.21c-1.361-0.468-2.482-0.577-3.364-0.337
				c-0.893,0.218-1.568,0.632-2.015,1.23c-0.338,0.425-0.675,1.187-1.014,2.275l-0.914,2.908L245.737,169.527z"/>
		</g>
		<polyline fill="none" stroke="#FFFFFF" stroke-width="4.1557" stroke-miterlimit="10" points="115.858,75.335 115.858,85.337 
			125.592,82.843 		"/>
		<polyline fill="none" stroke="#FFFFFF" stroke-width="4.1557" stroke-miterlimit="10" points="109.14,83.191 109.14,93.552 
			118.863,91.771 		"/>
		<polyline fill="none" stroke="#FFFFFF" stroke-width="4.1557" stroke-miterlimit="10" points="103.097,89.98 103.097,98.915 
			110.805,98.915 		"/>
		<polyline fill="none" stroke="#FFFFFF" stroke-width="4.1557" stroke-miterlimit="10" points="96.041,100.701 97.379,107.489 
			106.94,107.489 		"/>
		<polyline fill="none" stroke="#FFFFFF" stroke-width="4.1557" stroke-miterlimit="10" points="89.66,110.348 92.012,119.271 
			103.097,114.807 		"/>
		<polyline fill="none" stroke="#FFFFFF" stroke-width="4.1557" stroke-miterlimit="10" points="84.979,117.844 87.983,127.132 
			98.044,124.992 		"/>
		<polyline fill="none" stroke="#FFFFFF" stroke-width="4.1557" stroke-miterlimit="10" points="84.979,135.696 93.014,141.418 
			99.405,133.203 		"/>
		<polyline fill="none" stroke="#FFFFFF" stroke-width="4.1557" stroke-miterlimit="10" points="86.981,148.219 96.368,148.219 
			103.097,139.992 		"/>
		<polyline fill="none" stroke="#FFFFFF" stroke-width="4.1557" stroke-miterlimit="10" points="92.186,157.484 103.097,157.484 
			105.122,148.219 		"/>
		<polyline fill="none" stroke="#FFFFFF" stroke-width="4.1557" stroke-miterlimit="10" points="99.405,168.558 110.805,167.132 
			114.007,157.484 		"/>
		<polyline fill="none" stroke="#FFFFFF" stroke-width="4.1557" stroke-miterlimit="10" points="187.722,157.484 187.722,168.558 
			202.498,168.558 		"/>
		<polyline fill="none" stroke="#FFFFFF" stroke-width="4.1557" stroke-miterlimit="10" points="196.771,149.634 198.121,157.484 
			207.855,157.484 		"/>
		<polyline fill="none" stroke="#FFFFFF" stroke-width="4.1557" stroke-miterlimit="10" points="199.133,139.992 204.164,148.219 
			212.537,148.219 		"/>
		<polyline fill="none" stroke="#FFFFFF" stroke-width="4.1557" stroke-miterlimit="10" points="202.323,133.203 207.855,139.992 
			215.925,136.595 		"/>
		<polyline fill="none" stroke="#FFFFFF" stroke-width="4.1557" stroke-miterlimit="10" points="202.498,124.268 212.537,127.132 
			215.925,119.271 		"/>
		<polyline fill="none" stroke="#FFFFFF" stroke-width="4.1557" stroke-miterlimit="10" points="196.771,114.807 209.206,119.271 
			212.537,110.348 		"/>
		<polyline fill="none" stroke="#FFFFFF" stroke-width="4.1557" stroke-miterlimit="10" points="193.111,107.489 204.675,107.489 
			205.863,100.701 		"/>
		<polyline fill="none" stroke="#FFFFFF" stroke-width="4.1557" stroke-miterlimit="10" points="190.063,100.701 199.504,98.915 
			199.504,89.98 		"/>
		<polyline fill="none" stroke="#FFFFFF" stroke-width="4.1557" stroke-miterlimit="10" points="183.009,91.407 190.063,93.552 
			193.111,83.191 		"/>
		<polyline fill="none" stroke="#FFFFFF" stroke-width="4.1557" stroke-miterlimit="10" points="175.647,83.191 184.336,85.337 
			184.336,75.335 		"/>
		<polygon fill="#FFFFFF" stroke="#000000" stroke-width="2.0778" stroke-miterlimit="10" points="131.298,123.207 137.68,152.856 
			156.82,159.988 172.271,144.108 173.611,117.844 152.442,127.132 		"/>
		
			<line fill="none" stroke="#000000" stroke-width="1.177" stroke-miterlimit="10" x1="152.442" y1="128.559" x2="156.82" y2="159.988"/>
		<path stroke="#000000" stroke-width="1.4507" stroke-miterlimit="10" d="M161.515,143.477c0,4.676-3.311,8.477-7.384,8.477
			c-4.082,0-7.403-3.801-7.403-8.477c0-4.693,3.321-8.482,7.403-8.482C158.204,134.994,161.515,138.783,161.515,143.477z"/>
		<path fill="#FFFFFF" stroke="#000000" stroke-width="1.4507" stroke-miterlimit="10" d="M131.298,93.552l21.144,1.792v22.5
			c0,0-5.03,2.854-10.561-1.421c-5.542-4.296-11.585-9.789-10.583-10.257C132.3,105.703,131.298,93.552,131.298,93.552z"/>
		<path stroke="#000000" stroke-width="1.4507" stroke-miterlimit="10" d="M168.918,95.344c0,0-1.035,9.859-2.024,10.823
			c-1.034,0.958-5.379,5.961-5.379,5.961l-9.072,5.717v-22.5H168.918z"/>
		<path fill="#941E00" d="M168.918,95.344l4.693-6.958l-2.199-3.048l-2.494,3.048l-1.351-8.047l3.354-2.487
			c-0.686-3.937,1.349-5.368,0-6.441c-1.352-1.072-3.703-4.649-3.703-1.959c0,2.672-2.7,4.938-2.7,4.938s-4.671-1.546-3.004-4.938
			c1.676-3.403,0-7.682,0-7.682s-3.018-2.859-6.873,0.354c-3.875,3.223-0.511,2.499-0.511,2.499s1.002,3.936,0,4.83
			c-1.011,0.887-4.365,0-4.365,0l2.676-7.328l-2.676-4.999c0,0-6.382-1.066-7.949,0c-1.557,1.068,1.219,6.425,2.569,6.79
			c1.35,0.353-2.569,3.925-2.569,3.925l-6.152-6.429l-0.675,4.998l1.011,3.043l2.004,3.032v5.368h-4.682l-2.025,2.487l2.025,6.795
			h-2.025l-2.016,1.252l1.917,3.74L168.918,95.344z"/>
		<path fill="none" stroke="#FFFFFF" stroke-width="4.1557" stroke-miterlimit="10" d="M228.686,132.25
			c0,45.955-35.038,83.227-78.245,83.227c-43.206,0-78.246-37.271-78.246-83.227c0-45.966,35.04-83.232,78.246-83.232
			C193.647,49.018,228.686,86.284,228.686,132.25z"/>
		<g>
			<path fill="#FFFFFF" d="M122.26,183.138h3.593v11.76c0,1.546-0.13,2.723-0.392,3.56c-0.348,1.079-0.979,1.95-1.894,2.604
				c-0.915,0.652-2.135,0.979-3.637,0.979c-1.752,0-3.114-0.513-4.061-1.535c-0.948-1.035-1.426-2.537-1.437-4.53l3.396-0.402
				c0.043,1.067,0.185,1.818,0.447,2.255c0.392,0.674,0.991,1,1.786,1c0.806,0,1.372-0.227,1.699-0.707
				c0.337-0.479,0.5-1.47,0.5-2.972V183.138z"/>
			<path fill="#FFFFFF" d="M145.802,201.724h-3.932l-1.557-4.224h-7.144l-1.469,4.224h-3.821l6.946-18.586h3.822L145.802,201.724z
				 M139.16,194.375l-2.461-6.903l-2.417,6.903H139.16z"/>
			<path fill="#FFFFFF" d="M147.652,201.724v-18.586h5.401l3.244,12.674l3.201-12.674h5.401v18.586h-3.343v-14.633l-3.539,14.633
				h-3.485l-3.527-14.633v14.633H147.652z"/>
			<path fill="#FFFFFF" d="M168.504,183.138h7.133c1.415,0,2.472,0.054,3.168,0.185c0.686,0.12,1.306,0.371,1.863,0.763
				c0.543,0.392,1.002,0.903,1.37,1.558c0.359,0.642,0.546,1.371,0.546,2.166c0,0.871-0.229,1.677-0.677,2.406
				c-0.456,0.72-1.066,1.264-1.84,1.634c1.09,0.326,1.928,0.893,2.517,1.688c0.587,0.795,0.869,1.721,0.869,2.799
				c0,0.85-0.185,1.665-0.565,2.471c-0.37,0.795-0.893,1.438-1.546,1.906c-0.652,0.479-1.458,0.772-2.418,0.882
				c-0.598,0.076-2.047,0.108-4.345,0.13h-6.075V183.138z M172.108,186.23v4.3h2.363c1.403,0,2.274-0.021,2.612-0.065
				c0.622-0.075,1.11-0.293,1.459-0.663s0.533-0.85,0.533-1.46c0-0.566-0.152-1.034-0.456-1.393
				c-0.306-0.359-0.763-0.577-1.362-0.654c-0.359-0.043-1.383-0.064-3.081-0.064H172.108z M172.108,193.623v4.965h3.332
				c1.306,0,2.124-0.032,2.471-0.108c0.545-0.098,0.98-0.349,1.317-0.741c0.339-0.392,0.501-0.925,0.501-1.578
				c0-0.556-0.13-1.034-0.392-1.426c-0.262-0.381-0.632-0.665-1.121-0.851c-0.489-0.174-1.559-0.261-3.201-0.261H172.108z"/>
		</g>
		<path fill="none" stroke="#FFFFFF" stroke-width="2.0778" stroke-miterlimit="10" d="M123.916,123.207l1.677,14.106l-4.878,21.967
			l7.568,3.746l8.057,2.319l6.697,6.086c0,0,6.73,1.797,8.405,0c1.68-1.808,3.692-6.445,3.355-8.405c-0.327-1.96,9.407,0,9.407,0
			l11.444-10.17l2.352-12.864l6.337-3.397l3.386-11.961l-9.407-12.506h-2.667l-5.411,2.679h-9.725l-10.746,4.464l-17.793-1.426
			L123.916,123.207z"/>
	</g>
	<g>
		<path fill="#FFFFFF" d="M45.278,130.355l0.948-3.087l5.282,1.813v-5.891h3.048v5.891l5.27-1.813l0.936,3.087l-5.269,1.823
			l3.266,4.769l-2.471,1.912l-3.256-4.769l-3.267,4.769l-2.46-1.912l3.245-4.769L45.278,130.355z"/>
	</g>
	<g>
		<path fill="#FFFFFF" d="M240.041,130.355l0.937-3.087l5.283,1.813v-5.891h3.047v5.891l5.27-1.813l0.938,3.087l-5.259,1.823
			l3.255,4.769l-2.473,1.912l-3.256-4.769l-3.266,4.769l-2.461-1.912l3.244-4.769L240.041,130.355z"/>
	</g>
</g>
</svg>
