<?xml version="1.0" encoding="utf-8"?>
<!-- Generator: Adobe Illustrator 16.0.0, SVG Export Plug-In . SVG Version: 6.00 Build 0)  -->
<!DOCTYPE svg PUBLIC "-//W3C//DTD SVG 1.1//EN" "http://www.w3.org/Graphics/SVG/1.1/DTD/svg11.dtd">
<svg version="1.1" id="Layer_1" xmlns="http://www.w3.org/2000/svg" xmlns:xlink="http://www.w3.org/1999/xlink" x="0px" y="0px"
	 width="100px" height="20px" viewBox="150 40 100 20" enable-background="new 150 40 100 20" xml:space="preserve">
<g>
	<g>
		<path fill="#737373" d="M152.625,42.488l0.019,0.001l-0.04,0.013l-0.007,13.939l10.969,1.99l-0.004,0.009V41.56L152.625,42.488z
			 M162.323,57.704c-0.301-0.005-0.545-0.271-0.545-0.594c0-0.321,0.244-0.579,0.547-0.572c0.3,0.005,0.545,0.271,0.544,0.593
			C162.869,57.453,162.625,57.71,162.323,57.704z"/>
		<path fill="#C3B799" d="M163.668,58.334l-1.101-14.924l-9.889-0.922l-0.007,0.001l-0.124,0.011l-0.011,14.259l0.072-0.016
			l11.014,1.689l0.045,0.007l0.007,0.001L163.668,58.334z M162.869,57.132c0,0.321-0.244,0.578-0.546,0.573
			c-0.301-0.005-0.544-0.271-0.544-0.594s0.244-0.579,0.546-0.573C162.625,56.544,162.87,56.809,162.869,57.132z"/>
	</g>
	<path fill="#503800" stroke="#6A4A00" stroke-width="0.8133" stroke-miterlimit="10" d="M161.255,50.73
		c0,1.169-0.34,2.236-0.901,3.045c-0.061-0.046-0.123-0.09-0.186-0.135c-0.025-0.017-0.049-0.034-0.074-0.052
		c-0.006-0.005-0.011-0.008-0.016-0.012c-0.032-0.027-0.061-0.057-0.09-0.086c-0.005-0.005-0.01-0.01-0.013-0.013
		c-0.003-0.005-0.005-0.01-0.008-0.015c-0.006-0.017-0.027-0.062-0.033-0.084c-0.001-0.007-0.003-0.014-0.005-0.018
		c0-0.009,0-0.02-0.001-0.033c-0.003-0.064,0.001-0.129,0.005-0.193c0.01-0.14-0.039-0.271-0.12-0.375
		c0.29-0.61,0.456-1.33,0.456-2.1c0-2.211-1.374-4.002-3.069-4.002c-1.404,0-2.588,1.229-2.953,2.906
		c0.4-1.966,1.792-3.415,3.445-3.415C159.661,46.149,161.255,48.2,161.255,50.73z"/>
	<path fill="#A69266" stroke="#A69266" stroke-width="0.8133" stroke-miterlimit="10" d="M160.061,55.209
		c-0.021-0.039-0.044-0.077-0.069-0.114c-0.011-0.012-0.06-0.071-0.067-0.079c-0.035-0.037-0.071-0.074-0.11-0.107
		c-0.014-0.013-0.023-0.021-0.029-0.025c0-0.001,0-0.001-0.001-0.001c-0.094-0.069-0.189-0.136-0.283-0.205
		c-0.53,0.402-1.148,0.634-1.808,0.634c-1.968,0-3.562-2.05-3.562-4.58c0-0.01,0-0.02,0-0.03c0.016,2.192,1.384,3.963,3.069,3.963
		c0.621,0,1.199-0.241,1.682-0.654c0.376-0.322,0.695-0.748,0.931-1.248c0.082,0.104,0.129,0.235,0.12,0.376
		c-0.004,0.064-0.009,0.128-0.005,0.193c0.001,0.013,0.002,0.023,0.002,0.032c0.001,0.005,0.003,0.011,0.004,0.018
		c0.006,0.021,0.027,0.067,0.033,0.084c0.003,0.005,0.005,0.01,0.008,0.015c0.003,0.004,0.008,0.008,0.013,0.013
		c0.029,0.029,0.058,0.059,0.09,0.087c0.004,0.003,0.01,0.006,0.016,0.011c0.024,0.018,0.048,0.035,0.074,0.052
		c0.063,0.045,0.125,0.089,0.186,0.135c0.296,0.222,0.561,0.466,0.752,0.805C161.499,55.277,160.453,55.904,160.061,55.209z"/>
	<g>
		<path fill="#12B72F" d="M159.197,48.276v0.37c0,0.145-0.046,0.268-0.138,0.369l-2.828,3.14h2.557c0.111,0,0.205,0.044,0.283,0.133
			s0.116,0.197,0.116,0.324s-0.039,0.234-0.116,0.323s-0.171,0.133-0.282,0.133h-3.205c-0.114,0-0.21-0.044-0.289-0.133
			s-0.119-0.196-0.119-0.323V52.22c0-0.13,0.071-0.275,0.213-0.435l2.771-3.052h-2.391c-0.111,0-0.205-0.046-0.282-0.137
			c-0.078-0.09-0.117-0.201-0.117-0.331c0-0.12,0.04-0.227,0.119-0.318c0.079-0.093,0.172-0.139,0.28-0.139h3.03
			c0.11,0,0.204,0.046,0.282,0.139C159.158,48.039,159.197,48.149,159.197,48.276z"/>
	</g>
</g>
<g>
	<path fill="#D3AE13" d="M183.565,55.451c-0.304,0.351-0.61,0.647-0.92,0.891c-0.311,0.243-0.621,0.441-0.935,0.594
		c-0.313,0.152-0.628,0.263-0.945,0.332s-0.635,0.104-0.95,0.104c-0.359,0-0.721-0.037-1.084-0.111s-0.726-0.174-1.086-0.298
		s-0.72-0.268-1.079-0.432c-0.358-0.164-0.715-0.336-1.067-0.517s-0.702-0.363-1.049-0.55c-0.347-0.186-0.688-0.362-1.024-0.529
		c-0.336-0.168-0.666-0.32-0.991-0.457c-0.325-0.138-0.643-0.248-0.953-0.332c-0.172-0.047-0.336-0.084-0.494-0.113
		c-0.158-0.03-0.312-0.055-0.46-0.075c-0.149-0.021-0.294-0.04-0.436-0.058c-0.141-0.019-0.277-0.038-0.409-0.062
		c-0.488-0.082-0.932-0.229-1.332-0.443s-0.743-0.494-1.028-0.84s-0.507-0.756-0.663-1.23s-0.234-1.013-0.234-1.615
		c0-0.44,0.043-0.871,0.129-1.291s0.215-0.816,0.387-1.188c0.171-0.373,0.385-0.714,0.64-1.025c0.254-0.311,0.552-0.58,0.893-0.805
		c0.34-0.225,0.722-0.401,1.146-0.526c0.423-0.125,0.888-0.188,1.395-0.188c0.616,0,1.183,0.09,1.697,0.269
		c0.516,0.179,0.96,0.445,1.333,0.799c0.372,0.353,0.662,0.793,0.869,1.321c0.207,0.528,0.311,1.138,0.311,1.832
		c0,0.392-0.033,0.775-0.101,1.148c-0.068,0.374-0.169,0.729-0.304,1.065c-0.136,0.337-0.305,0.651-0.509,0.943
		s-0.44,0.553-0.709,0.783s-0.57,0.426-0.906,0.586s-0.705,0.277-1.106,0.352v0.03c0.34,0.06,0.687,0.143,1.04,0.25
		c0.353,0.107,0.709,0.229,1.069,0.365s0.724,0.28,1.089,0.434c0.364,0.153,0.732,0.307,1.102,0.459
		c0.37,0.152,0.739,0.298,1.109,0.438c0.369,0.14,0.738,0.263,1.106,0.369s0.734,0.191,1.098,0.255
		c0.363,0.064,0.725,0.097,1.084,0.097c0.27,0,0.535-0.021,0.798-0.063s0.521-0.11,0.777-0.204c0.257-0.093,0.507-0.216,0.753-0.366
		c0.245-0.151,0.484-0.334,0.718-0.55L183.565,55.451z M170.842,53.431c0.356,0,0.68-0.049,0.972-0.146
		c0.291-0.098,0.551-0.234,0.779-0.411s0.428-0.391,0.597-0.642c0.168-0.251,0.307-0.53,0.416-0.839
		c0.108-0.309,0.19-0.641,0.244-0.997c0.054-0.356,0.08-0.729,0.08-1.122c0-0.696-0.082-1.301-0.246-1.814s-0.388-0.938-0.67-1.275
		c-0.282-0.337-0.61-0.588-0.986-0.753s-0.775-0.248-1.199-0.248c-0.355,0-0.68,0.049-0.971,0.146
		c-0.291,0.098-0.552,0.234-0.78,0.411s-0.427,0.391-0.596,0.642s-0.308,0.53-0.416,0.839c-0.109,0.309-0.19,0.642-0.244,0.999
		c-0.054,0.357-0.081,0.73-0.081,1.12c0,0.697,0.082,1.301,0.247,1.815c0.164,0.514,0.387,0.938,0.669,1.275
		c0.282,0.336,0.611,0.587,0.987,0.752S170.419,53.431,170.842,53.431z"/>
	<path fill="#D3AE13" d="M178.283,48.91c0,0.174-0.007,0.36-0.021,0.559c-0.014,0.198-0.03,0.4-0.05,0.604
		c-0.021,0.205-0.042,0.409-0.064,0.613c-0.023,0.203-0.045,0.396-0.064,0.578c-0.021,0.182-0.037,0.349-0.051,0.501
		s-0.021,0.28-0.021,0.382c0,0.306,0.068,0.528,0.207,0.669c0.138,0.141,0.322,0.211,0.552,0.211c0.261,0,0.527-0.117,0.801-0.352
		s0.534-0.576,0.782-1.027c0.249-0.45,0.46-0.956,0.635-1.519c0.175-0.562,0.287-1.168,0.336-1.819l0.976-0.1l0.074,0.004
		c-0.028,0.243-0.053,0.501-0.076,0.773c-0.023,0.273-0.044,0.545-0.063,0.818c-0.018,0.272-0.032,0.54-0.041,0.801
		c-0.009,0.261-0.014,0.501-0.014,0.722c0,0.417,0.029,0.759,0.087,1.023c0.059,0.265,0.134,0.474,0.226,0.626
		s0.197,0.257,0.315,0.314s0.237,0.087,0.356,0.087c0.07,0,0.141-0.008,0.21-0.023c0.068-0.015,0.134-0.033,0.195-0.056
		c0.062-0.021,0.117-0.045,0.168-0.07c0.051-0.026,0.094-0.049,0.131-0.069l0.152,0.177c-0.09,0.076-0.19,0.148-0.304,0.217
		c-0.114,0.067-0.233,0.127-0.359,0.177s-0.258,0.089-0.396,0.117c-0.139,0.028-0.277,0.042-0.419,0.042
		c-0.178,0-0.351-0.029-0.518-0.088c-0.167-0.06-0.315-0.158-0.444-0.296c-0.129-0.139-0.232-0.323-0.311-0.554
		s-0.117-0.517-0.117-0.86c0-0.109,0.003-0.221,0.009-0.334c0.007-0.112,0.016-0.231,0.028-0.356
		c0.012-0.126,0.028-0.261,0.048-0.405c0.021-0.146,0.044-0.304,0.071-0.479l-0.051-0.008c-0.208,0.643-0.435,1.182-0.679,1.617
		c-0.243,0.436-0.493,0.786-0.75,1.052c-0.256,0.267-0.513,0.457-0.771,0.57c-0.258,0.114-0.503,0.171-0.736,0.171
		c-0.175,0-0.343-0.024-0.504-0.074s-0.305-0.132-0.43-0.246c-0.126-0.114-0.227-0.265-0.302-0.451s-0.113-0.417-0.113-0.691
		c0-0.179,0.013-0.388,0.037-0.624c0.024-0.237,0.052-0.489,0.081-0.757c0.028-0.268,0.056-0.544,0.08-0.83
		c0.024-0.285,0.037-0.567,0.037-0.847c0-0.113-0.005-0.21-0.014-0.292c-0.01-0.082-0.029-0.15-0.061-0.204
		c-0.03-0.054-0.075-0.093-0.136-0.119c-0.06-0.025-0.142-0.038-0.246-0.038s-0.24,0.013-0.407,0.038
		c-0.167,0.026-0.343,0.061-0.526,0.104l-0.069-0.276c0.252-0.074,0.485-0.139,0.702-0.194c0.216-0.055,0.409-0.1,0.579-0.136
		c0.171-0.036,0.314-0.063,0.433-0.081s0.205-0.027,0.261-0.027c0.11,0,0.2,0.017,0.271,0.05c0.07,0.033,0.127,0.082,0.17,0.146
		s0.072,0.141,0.09,0.23C178.274,48.693,178.283,48.795,178.283,48.91z"/>
	<path fill="#D3AE13" d="M186.036,48.315c-0.052,0.292-0.097,0.584-0.133,0.877c-0.037,0.293-0.067,0.577-0.09,0.851
		c-0.023,0.274-0.04,0.534-0.051,0.778s-0.016,0.465-0.016,0.662c0,0.267,0.004,0.495,0.014,0.686
		c0.009,0.19,0.024,0.352,0.046,0.482c0.021,0.13,0.048,0.234,0.08,0.313s0.072,0.139,0.12,0.181
		c0.047,0.042,0.103,0.07,0.165,0.083c0.063,0.013,0.135,0.019,0.214,0.019c0.147,0,0.307-0.019,0.477-0.056
		c0.171-0.037,0.343-0.089,0.518-0.155l0.088,0.199c-0.11,0.075-0.249,0.15-0.417,0.228c-0.167,0.076-0.343,0.146-0.526,0.211
		c-0.185,0.063-0.364,0.115-0.541,0.155c-0.176,0.04-0.329,0.06-0.458,0.06c-0.086,0-0.164-0.006-0.234-0.018
		c-0.07-0.011-0.134-0.04-0.191-0.086c-0.057-0.046-0.107-0.114-0.151-0.204c-0.045-0.089-0.081-0.211-0.11-0.364
		c-0.029-0.154-0.052-0.346-0.066-0.576c-0.016-0.23-0.023-0.51-0.023-0.837c0-0.192,0.002-0.409,0.007-0.651
		s0.012-0.502,0.021-0.78c0.01-0.278,0.021-0.571,0.037-0.879s0.035-0.626,0.06-0.955c0.006-0.072,0.029-0.13,0.069-0.175
		c0.04-0.044,0.089-0.079,0.147-0.104c0.058-0.024,0.12-0.041,0.187-0.05c0.065-0.009,0.126-0.014,0.182-0.014
		C185.662,48.196,185.855,48.236,186.036,48.315z M185.636,46.579c-0.107,0-0.202-0.019-0.285-0.056s-0.153-0.086-0.211-0.146
		c-0.059-0.06-0.104-0.129-0.134-0.208c-0.031-0.078-0.046-0.158-0.046-0.24c0-0.115,0.022-0.217,0.068-0.305
		c0.047-0.088,0.106-0.163,0.18-0.223c0.074-0.06,0.155-0.105,0.244-0.134c0.089-0.03,0.177-0.044,0.263-0.044
		c0.104,0,0.197,0.016,0.28,0.048c0.083,0.032,0.154,0.077,0.214,0.133s0.105,0.121,0.138,0.194
		c0.032,0.073,0.049,0.152,0.049,0.236c0,0.089-0.019,0.179-0.056,0.267c-0.036,0.088-0.088,0.168-0.153,0.24
		c-0.066,0.072-0.146,0.129-0.24,0.173C185.854,46.557,185.75,46.579,185.636,46.579z"/>
	<path fill="#D3AE13" d="M187.56,53.669c0.07-0.103,0.178-0.235,0.32-0.397c0.143-0.163,0.309-0.345,0.499-0.548
		c0.19-0.202,0.398-0.418,0.623-0.646c0.226-0.229,0.457-0.461,0.693-0.693c0.235-0.233,0.472-0.463,0.708-0.689
		s0.459-0.438,0.667-0.634c0.209-0.196,0.399-0.371,0.571-0.526c0.172-0.155,0.312-0.277,0.419-0.367l-0.028-0.027
		c-0.129,0.023-0.269,0.041-0.421,0.052c-0.151,0.012-0.297,0.018-0.435,0.018c-0.209,0-0.408-0.006-0.599-0.02
		c-0.19-0.013-0.364-0.027-0.522-0.042c-0.157-0.016-0.296-0.029-0.416-0.042c-0.119-0.013-0.212-0.019-0.276-0.019
		c-0.132,0-0.251,0.015-0.358,0.046s-0.201,0.083-0.281,0.156c-0.079,0.073-0.145,0.171-0.195,0.294
		c-0.051,0.123-0.085,0.276-0.104,0.461l-0.35-0.008c0.003-0.138,0.007-0.278,0.012-0.42c0.004-0.142,0.019-0.279,0.041-0.411
		c0.023-0.132,0.058-0.256,0.104-0.373s0.113-0.218,0.2-0.303c0.088-0.086,0.198-0.154,0.334-0.204
		c0.135-0.05,0.301-0.075,0.497-0.075c0.159,0,0.34,0.009,0.54,0.027c0.201,0.018,0.413,0.037,0.636,0.058
		c0.222,0.021,0.45,0.04,0.683,0.058c0.233,0.018,0.461,0.027,0.682,0.027c0.239,0,0.467-0.015,0.683-0.046
		c0.217-0.031,0.398-0.083,0.546-0.157l0.258,0.176c-0.062,0.113-0.155,0.249-0.281,0.409s-0.273,0.337-0.443,0.53
		c-0.171,0.193-0.359,0.399-0.566,0.617s-0.422,0.438-0.645,0.661c-0.223,0.223-0.447,0.445-0.676,0.668s-0.451,0.435-0.668,0.638
		c-0.216,0.202-0.421,0.392-0.614,0.568s-0.365,0.33-0.515,0.461l0.036,0.026c0.059-0.021,0.125-0.04,0.2-0.058
		s0.152-0.033,0.232-0.046s0.159-0.022,0.237-0.029c0.078-0.006,0.149-0.009,0.214-0.009c0.193,0,0.386,0.012,0.577,0.036
		c0.192,0.024,0.378,0.051,0.557,0.079c0.18,0.027,0.353,0.054,0.519,0.078c0.165,0.024,0.321,0.037,0.469,0.037
		c0.139,0,0.267-0.016,0.385-0.047c0.118-0.03,0.223-0.085,0.314-0.163c0.093-0.078,0.169-0.184,0.23-0.316
		c0.062-0.134,0.104-0.304,0.129-0.511l0.341,0.022c-0.007,0.369-0.043,0.674-0.11,0.914c-0.068,0.241-0.161,0.431-0.281,0.57
		c-0.119,0.14-0.261,0.237-0.423,0.292c-0.163,0.056-0.341,0.083-0.534,0.083c-0.202,0-0.418-0.021-0.646-0.063
		s-0.465-0.089-0.709-0.141c-0.243-0.051-0.491-0.098-0.743-0.14c-0.251-0.042-0.5-0.063-0.745-0.063
		c-0.23,0-0.452,0.025-0.665,0.077c-0.213,0.051-0.418,0.142-0.614,0.272L187.56,53.669z"/>
	<path fill="#D3AE13" d="M196.188,53.753c-0.08-0.243-0.165-0.498-0.255-0.764c-0.091-0.267-0.183-0.534-0.276-0.803
		s-0.188-0.534-0.28-0.795c-0.094-0.262-0.185-0.51-0.271-0.746c-0.088-0.235-0.171-0.453-0.249-0.654
		c-0.078-0.201-0.148-0.375-0.209-0.52c-0.064-0.151-0.127-0.275-0.187-0.371c-0.06-0.096-0.122-0.171-0.187-0.225
		c-0.064-0.054-0.132-0.091-0.202-0.111c-0.071-0.021-0.149-0.031-0.235-0.031c-0.098,0-0.203,0.009-0.314,0.027
		c-0.112,0.018-0.247,0.042-0.403,0.073l-0.068-0.276c0.184-0.057,0.364-0.108,0.54-0.154c0.177-0.046,0.34-0.086,0.49-0.119
		s0.284-0.059,0.4-0.077s0.209-0.027,0.276-0.027c0.079,0,0.155,0.011,0.228,0.035c0.072,0.023,0.143,0.063,0.212,0.121
		c0.068,0.058,0.136,0.137,0.2,0.238s0.129,0.229,0.193,0.382c0.043,0.097,0.094,0.222,0.153,0.374
		c0.061,0.153,0.125,0.325,0.196,0.519c0.07,0.193,0.146,0.404,0.226,0.632c0.079,0.228,0.16,0.465,0.241,0.712
		s0.162,0.5,0.241,0.759c0.08,0.259,0.157,0.515,0.23,0.768c0.153-0.335,0.313-0.686,0.48-1.05c0.168-0.365,0.338-0.731,0.511-1.101
		c0.174-0.369,0.347-0.734,0.519-1.096c0.171-0.362,0.337-0.709,0.496-1.039c0.028-0.056,0.065-0.103,0.113-0.138
		c0.048-0.036,0.101-0.065,0.158-0.086c0.059-0.022,0.119-0.037,0.183-0.046c0.063-0.009,0.125-0.013,0.186-0.013
		c0.102,0,0.2,0.012,0.296,0.037c0.094,0.024,0.186,0.054,0.271,0.09c-0.139,0.187-0.282,0.395-0.432,0.625
		c-0.148,0.229-0.301,0.474-0.457,0.733c-0.157,0.26-0.314,0.531-0.472,0.812c-0.158,0.282-0.315,0.569-0.472,0.862
		c-0.157,0.293-0.311,0.588-0.463,0.884c-0.151,0.296-0.298,0.587-0.439,0.873c-0.145,0.29-0.28,0.576-0.409,0.858
		c-0.129,0.283-0.255,0.558-0.378,0.822c-0.122,0.265-0.243,0.52-0.361,0.765c-0.118,0.244-0.238,0.473-0.36,0.686
		c-0.117,0.197-0.241,0.381-0.373,0.551s-0.278,0.317-0.438,0.441s-0.335,0.223-0.526,0.294c-0.192,0.072-0.404,0.107-0.638,0.107
		c-0.145,0-0.274-0.016-0.391-0.048c-0.117-0.032-0.216-0.074-0.297-0.127c-0.082-0.052-0.144-0.113-0.187-0.182
		c-0.043-0.069-0.064-0.143-0.064-0.22c0-0.084,0.029-0.172,0.09-0.263c0.06-0.091,0.139-0.159,0.236-0.205
		c0.129,0.066,0.26,0.113,0.392,0.142s0.25,0.042,0.354,0.042c0.251,0,0.475-0.057,0.669-0.171c0.195-0.113,0.378-0.284,0.55-0.513
		c0.172-0.228,0.345-0.513,0.518-0.856c0.174-0.343,0.366-0.745,0.578-1.206l0.092-0.203L196.188,53.753z"/>
	<path fill="#D3AE13" d="M203.979,49.774c0.086-0.141,0.129-0.284,0.129-0.43c0-0.1-0.021-0.194-0.062-0.282
		c-0.042-0.088-0.104-0.167-0.187-0.234s-0.187-0.122-0.311-0.161c-0.125-0.04-0.27-0.06-0.436-0.06
		c-0.239,0-0.454,0.035-0.644,0.105c-0.19,0.07-0.358,0.167-0.504,0.29s-0.271,0.265-0.373,0.426s-0.188,0.334-0.253,0.519
		c-0.066,0.184-0.114,0.373-0.145,0.566c-0.031,0.193-0.047,0.382-0.047,0.566c0,0.33,0.052,0.631,0.154,0.9
		c0.103,0.271,0.242,0.501,0.417,0.691c0.175,0.191,0.379,0.339,0.611,0.444c0.233,0.104,0.482,0.157,0.746,0.157
		c0.279,0,0.562-0.061,0.849-0.183s0.565-0.318,0.835-0.59c0.019,0.008,0.042,0.019,0.071,0.033c0.029,0.014,0.057,0.03,0.081,0.048
		s0.046,0.036,0.064,0.054s0.027,0.034,0.027,0.05c0,0.011-0.002,0.017-0.005,0.02l-0.009,0.015
		c-0.298,0.402-0.655,0.703-1.072,0.903c-0.417,0.199-0.874,0.299-1.371,0.299c-0.271,0-0.519-0.031-0.746-0.094
		c-0.227-0.063-0.432-0.149-0.616-0.261c-0.184-0.111-0.346-0.243-0.485-0.396s-0.256-0.318-0.35-0.496s-0.164-0.364-0.212-0.561
		s-0.071-0.394-0.071-0.594c0-0.269,0.035-0.538,0.105-0.808c0.07-0.271,0.174-0.53,0.311-0.78c0.137-0.25,0.303-0.482,0.497-0.699
		c0.195-0.216,0.416-0.405,0.663-0.564c0.247-0.16,0.52-0.286,0.816-0.376c0.298-0.091,0.615-0.136,0.953-0.136
		c0.251,0,0.486,0.025,0.704,0.077s0.405,0.124,0.563,0.217c0.158,0.094,0.282,0.206,0.373,0.338c0.09,0.132,0.136,0.279,0.136,0.44
		c0,0.105-0.02,0.198-0.058,0.278c-0.039,0.081-0.093,0.15-0.161,0.208c-0.069,0.058-0.15,0.101-0.244,0.13
		c-0.094,0.03-0.195,0.044-0.306,0.044c-0.067,0-0.138-0.006-0.21-0.017c-0.072-0.012-0.144-0.03-0.214-0.056L203.979,49.774z"/>
	<path fill="#D3AE13" d="M208.166,43.411c-0.062,0.435-0.122,0.881-0.182,1.338c-0.061,0.457-0.117,0.919-0.171,1.386
		s-0.104,0.937-0.149,1.408s-0.086,0.935-0.119,1.392c-0.034,0.457-0.061,0.906-0.078,1.346c-0.019,0.44-0.028,0.863-0.028,1.268
		c0,0.254,0.004,0.471,0.012,0.653c0.008,0.182,0.02,0.335,0.037,0.46c0.017,0.126,0.04,0.228,0.068,0.304
		c0.029,0.077,0.065,0.136,0.108,0.177s0.094,0.068,0.152,0.083c0.058,0.014,0.127,0.021,0.207,0.021
		c0.146,0,0.306-0.019,0.476-0.056c0.171-0.037,0.343-0.089,0.519-0.155l0.087,0.199c-0.11,0.075-0.249,0.15-0.416,0.228
		c-0.168,0.076-0.343,0.146-0.527,0.211c-0.184,0.063-0.364,0.115-0.541,0.155c-0.176,0.04-0.329,0.06-0.457,0.06
		c-0.166,0-0.297-0.035-0.394-0.105s-0.171-0.185-0.222-0.344c-0.05-0.159-0.082-0.365-0.096-0.62
		c-0.015-0.255-0.021-0.565-0.021-0.932c0-0.133,0.005-0.323,0.014-0.57c0.01-0.247,0.022-0.534,0.04-0.862
		c0.017-0.328,0.035-0.686,0.057-1.075s0.045-0.792,0.069-1.208s0.051-0.836,0.078-1.26s0.056-0.833,0.083-1.229
		s0.054-0.769,0.078-1.12c0.024-0.351,0.048-0.661,0.069-0.929c0.003-0.062,0.024-0.115,0.064-0.16
		c0.04-0.044,0.091-0.081,0.154-0.107c0.063-0.027,0.133-0.047,0.211-0.06s0.157-0.019,0.237-0.019
		C207.771,43.288,207.963,43.329,208.166,43.411z"/>
	<path fill="#D3AE13" d="M209.523,51.511c0-0.259,0.032-0.521,0.097-0.788c0.064-0.266,0.159-0.524,0.285-0.773
		s0.281-0.484,0.468-0.703c0.186-0.219,0.399-0.41,0.642-0.574c0.242-0.164,0.512-0.293,0.81-0.388s0.621-0.142,0.971-0.142
		c0.394,0,0.74,0.069,1.043,0.208c0.302,0.138,0.556,0.321,0.762,0.547c0.205,0.227,0.36,0.484,0.467,0.774
		c0.105,0.289,0.158,0.585,0.158,0.887c0,0.259-0.032,0.521-0.097,0.788c-0.064,0.266-0.16,0.523-0.287,0.773
		s-0.284,0.484-0.47,0.703s-0.399,0.41-0.642,0.574c-0.242,0.163-0.513,0.293-0.81,0.388c-0.298,0.095-0.621,0.142-0.972,0.142
		c-0.393,0-0.739-0.068-1.042-0.207c-0.302-0.139-0.555-0.32-0.759-0.547s-0.359-0.485-0.465-0.774
		C209.576,52.108,209.523,51.813,209.523,51.511z M210.623,51.146c0,0.174,0.017,0.351,0.049,0.53
		c0.032,0.179,0.082,0.352,0.149,0.519c0.067,0.166,0.151,0.321,0.251,0.467c0.1,0.145,0.218,0.271,0.354,0.378
		c0.136,0.107,0.289,0.192,0.46,0.253c0.17,0.062,0.358,0.093,0.563,0.093c0.224,0,0.421-0.04,0.592-0.121
		c0.17-0.081,0.317-0.188,0.441-0.32c0.124-0.134,0.227-0.286,0.309-0.457c0.081-0.172,0.146-0.35,0.195-0.532
		c0.049-0.184,0.083-0.364,0.104-0.544c0.02-0.179,0.03-0.344,0.03-0.495c0-0.177-0.017-0.354-0.049-0.532s-0.082-0.35-0.149-0.515
		c-0.067-0.166-0.151-0.32-0.251-0.465s-0.218-0.27-0.354-0.376c-0.137-0.106-0.29-0.19-0.46-0.251s-0.358-0.092-0.563-0.092
		c-0.225,0-0.421,0.04-0.592,0.119c-0.17,0.08-0.317,0.186-0.441,0.319s-0.228,0.286-0.309,0.457s-0.146,0.348-0.195,0.53
		c-0.049,0.182-0.084,0.363-0.104,0.543C210.634,50.832,210.623,50.997,210.623,51.146z"/>
	<path fill="#D3AE13" d="M215.528,48.595c0.344-0.087,0.637-0.157,0.879-0.211c0.242-0.054,0.446-0.096,0.61-0.127
		s0.293-0.052,0.387-0.063c0.093-0.011,0.163-0.017,0.209-0.017c0.076,0,0.148,0.01,0.216,0.029s0.127,0.052,0.178,0.098
		c0.051,0.046,0.09,0.108,0.117,0.187s0.041,0.175,0.041,0.29c0,0.038-0.002,0.114-0.007,0.227
		c-0.004,0.113-0.013,0.268-0.025,0.467c-0.012,0.198-0.028,0.441-0.048,0.729c-0.021,0.288-0.045,0.626-0.076,1.016l0.056,0.004
		c0.239-0.497,0.497-0.937,0.775-1.32c0.277-0.382,0.56-0.705,0.847-0.966c0.286-0.261,0.572-0.459,0.858-0.593
		c0.285-0.134,0.557-0.202,0.814-0.202c0.208,0,0.393,0.033,0.552,0.098c0.159,0.065,0.298,0.152,0.416,0.261
		c0.118,0.109,0.218,0.234,0.297,0.376c0.08,0.142,0.145,0.291,0.193,0.446s0.085,0.312,0.106,0.47s0.032,0.308,0.032,0.446
		c0,0.377-0.046,0.729-0.139,1.056c-0.092,0.328-0.218,0.628-0.377,0.901c-0.16,0.272-0.349,0.517-0.566,0.731
		s-0.453,0.396-0.706,0.543c-0.253,0.147-0.519,0.26-0.796,0.338c-0.278,0.078-0.557,0.117-0.835,0.117
		c-0.298,0-0.588-0.045-0.87-0.134c-0.282-0.09-0.548-0.238-0.796-0.445c-0.034,0.643-0.067,1.306-0.102,1.991
		c-0.033,0.685-0.052,1.399-0.055,2.145l-0.967,0.093l-0.097-0.004c0.046-0.479,0.089-0.981,0.129-1.508s0.077-1.055,0.11-1.584
		c0.034-0.53,0.064-1.052,0.092-1.565c0.028-0.514,0.051-0.995,0.069-1.446c0.019-0.45,0.033-0.859,0.044-1.227
		c0.011-0.368,0.016-0.671,0.016-0.912c0-0.098-0.006-0.183-0.019-0.256c-0.012-0.073-0.035-0.133-0.071-0.182
		c-0.035-0.049-0.086-0.085-0.153-0.109c-0.068-0.024-0.157-0.037-0.268-0.037c-0.113,0-0.251,0.01-0.414,0.031
		c-0.162,0.021-0.358,0.055-0.589,0.104L215.528,48.595z M217.912,52.928c0.261,0.185,0.521,0.32,0.78,0.407
		c0.259,0.087,0.52,0.13,0.78,0.13c0.343,0,0.66-0.061,0.95-0.182c0.289-0.122,0.539-0.303,0.75-0.544
		c0.21-0.24,0.374-0.538,0.492-0.893s0.177-0.767,0.177-1.234c0-0.175-0.016-0.354-0.048-0.539
		c-0.032-0.184-0.083-0.351-0.152-0.501c-0.068-0.15-0.159-0.272-0.271-0.369c-0.111-0.096-0.247-0.144-0.407-0.144
		c-0.187,0-0.372,0.041-0.557,0.121c-0.184,0.081-0.362,0.189-0.536,0.326c-0.173,0.137-0.34,0.298-0.499,0.482
		c-0.159,0.185-0.31,0.38-0.451,0.586c-0.141,0.206-0.27,0.419-0.387,0.638c-0.116,0.219-0.218,0.432-0.306,0.64
		c-0.088,0.207-0.158,0.403-0.212,0.587C217.962,52.624,217.928,52.787,217.912,52.928z"/>
	<path fill="#D3AE13" d="M228.717,52.528c0.018,0.008,0.042,0.019,0.071,0.032c0.028,0.015,0.056,0.029,0.08,0.046
		c0.024,0.018,0.046,0.035,0.064,0.055c0.019,0.019,0.027,0.037,0.027,0.056c0,0.01-0.004,0.021-0.014,0.03
		c-0.172,0.2-0.356,0.373-0.555,0.521c-0.197,0.147-0.403,0.271-0.616,0.368c-0.213,0.099-0.431,0.172-0.651,0.22
		c-0.221,0.047-0.438,0.07-0.653,0.07c-0.368,0-0.705-0.063-1.013-0.188c-0.307-0.126-0.57-0.297-0.791-0.515
		s-0.394-0.474-0.518-0.767s-0.187-0.607-0.187-0.942c0-0.274,0.036-0.548,0.108-0.822c0.072-0.274,0.176-0.535,0.313-0.784
		c0.137-0.248,0.303-0.479,0.499-0.693c0.196-0.214,0.42-0.4,0.67-0.557c0.25-0.158,0.524-0.281,0.824-0.371
		c0.299-0.09,0.62-0.134,0.964-0.134c0.227,0,0.443,0.025,0.648,0.077c0.206,0.051,0.386,0.125,0.541,0.221
		c0.154,0.096,0.278,0.214,0.37,0.355c0.092,0.141,0.138,0.301,0.138,0.48c0,0.261-0.102,0.489-0.306,0.684
		c-0.204,0.195-0.485,0.36-0.845,0.496c-0.358,0.136-0.781,0.245-1.268,0.328s-1.012,0.146-1.576,0.187v0.065
		c0,0.327,0.05,0.627,0.15,0.898c0.1,0.271,0.236,0.504,0.411,0.697s0.381,0.344,0.617,0.451s0.49,0.161,0.764,0.161
		c0.276,0,0.559-0.057,0.849-0.171S228.419,52.784,228.717,52.528z M227.852,49.444c0-0.118-0.024-0.228-0.071-0.331
		c-0.048-0.103-0.114-0.191-0.198-0.267c-0.084-0.075-0.185-0.135-0.302-0.178c-0.116-0.043-0.242-0.065-0.377-0.065
		c-0.199,0-0.38,0.029-0.543,0.088s-0.309,0.139-0.438,0.24c-0.129,0.102-0.242,0.219-0.34,0.354
		c-0.099,0.134-0.182,0.277-0.251,0.428c-0.069,0.151-0.125,0.306-0.168,0.465s-0.073,0.313-0.092,0.465
		c0.436-0.026,0.825-0.069,1.171-0.133c0.345-0.063,0.637-0.143,0.874-0.242c0.238-0.099,0.42-0.216,0.546-0.354
		C227.788,49.778,227.852,49.621,227.852,49.444z"/>
	<path fill="#D3AE13" d="M236.443,43.411c-0.11,0.65-0.217,1.316-0.317,1.997c-0.102,0.681-0.19,1.359-0.268,2.036
		c-0.076,0.676-0.138,1.341-0.184,1.997c-0.046,0.655-0.069,1.284-0.069,1.886c0,0.289,0.004,0.537,0.012,0.745
		c0.008,0.207,0.02,0.383,0.037,0.526c0.017,0.143,0.039,0.257,0.068,0.342c0.029,0.084,0.066,0.149,0.11,0.195
		c0.045,0.046,0.097,0.076,0.154,0.091c0.059,0.014,0.128,0.021,0.207,0.021c0.147,0,0.307-0.019,0.477-0.056
		s0.343-0.089,0.518-0.155l0.088,0.199c-0.11,0.075-0.25,0.15-0.417,0.228c-0.167,0.076-0.343,0.146-0.526,0.211
		c-0.185,0.063-0.364,0.115-0.541,0.155s-0.329,0.06-0.458,0.06c-0.095,0-0.178-0.009-0.248-0.026
		c-0.071-0.019-0.132-0.05-0.182-0.095c-0.051-0.045-0.094-0.104-0.129-0.179s-0.064-0.169-0.086-0.284
		c-0.027-0.153-0.05-0.333-0.066-0.537c-0.017-0.205-0.025-0.428-0.025-0.669c0-0.256,0.012-0.517,0.035-0.781
		c0.022-0.265,0.061-0.529,0.112-0.793l-0.041-0.008c-0.236,0.52-0.493,0.989-0.771,1.409c-0.277,0.42-0.563,0.778-0.857,1.076
		c-0.295,0.297-0.591,0.525-0.889,0.686c-0.298,0.159-0.583,0.239-0.855,0.239c-0.276,0-0.515-0.058-0.714-0.175
		c-0.199-0.116-0.362-0.27-0.49-0.461c-0.127-0.19-0.222-0.409-0.282-0.656c-0.062-0.247-0.093-0.501-0.093-0.763
		c0-0.314,0.042-0.625,0.125-0.931c0.082-0.307,0.201-0.596,0.356-0.87c0.154-0.274,0.341-0.528,0.559-0.763
		s0.462-0.436,0.732-0.605c0.27-0.169,0.562-0.301,0.876-0.397c0.314-0.096,0.646-0.144,0.992-0.144
		c0.242,0,0.483,0.026,0.725,0.077c0.24,0.051,0.48,0.136,0.72,0.253c0.016-0.436,0.035-0.877,0.058-1.327
		c0.023-0.449,0.05-0.886,0.081-1.312c0.03-0.425,0.064-0.827,0.101-1.206c0.037-0.379,0.077-0.717,0.12-1.014
		c0.009-0.062,0.033-0.115,0.073-0.16c0.04-0.044,0.091-0.081,0.152-0.107s0.13-0.047,0.207-0.06
		c0.076-0.013,0.154-0.019,0.234-0.019C236.048,43.288,236.24,43.329,236.443,43.411z M234.791,48.822
		c-0.414-0.164-0.825-0.246-1.233-0.246c-0.297,0-0.571,0.04-0.821,0.119c-0.25,0.079-0.475,0.188-0.674,0.328
		s-0.374,0.304-0.524,0.492s-0.274,0.391-0.373,0.607s-0.173,0.441-0.223,0.674c-0.051,0.233-0.076,0.465-0.076,0.695
		c0,0.082,0.004,0.176,0.014,0.282c0.009,0.106,0.026,0.217,0.053,0.33c0.026,0.114,0.061,0.226,0.104,0.334
		c0.043,0.109,0.097,0.207,0.161,0.294s0.142,0.157,0.232,0.21c0.091,0.052,0.197,0.078,0.319,0.078
		c0.222,0,0.447-0.069,0.677-0.207c0.23-0.139,0.455-0.321,0.674-0.55c0.22-0.228,0.427-0.488,0.622-0.783
		c0.194-0.294,0.368-0.597,0.52-0.908c0.152-0.311,0.276-0.618,0.373-0.922C234.711,49.346,234.77,49.07,234.791,48.822z"/>
	<path fill="#D3AE13" d="M239.549,48.315c-0.052,0.292-0.097,0.584-0.134,0.877c-0.036,0.293-0.066,0.577-0.089,0.851
		c-0.023,0.274-0.04,0.534-0.051,0.778s-0.017,0.465-0.017,0.662c0,0.267,0.005,0.495,0.014,0.686
		c0.01,0.19,0.025,0.352,0.047,0.482c0.021,0.13,0.048,0.234,0.08,0.313s0.072,0.139,0.12,0.181c0.047,0.042,0.103,0.07,0.165,0.083
		s0.135,0.019,0.214,0.019c0.147,0,0.307-0.019,0.477-0.056s0.343-0.089,0.518-0.155l0.088,0.199
		c-0.111,0.075-0.25,0.15-0.417,0.228c-0.167,0.076-0.343,0.146-0.526,0.211c-0.185,0.063-0.364,0.115-0.541,0.155
		s-0.329,0.06-0.458,0.06c-0.086,0-0.164-0.006-0.234-0.018c-0.071-0.011-0.135-0.04-0.191-0.086s-0.107-0.114-0.151-0.204
		c-0.045-0.089-0.082-0.211-0.11-0.364c-0.029-0.154-0.052-0.346-0.067-0.576c-0.015-0.23-0.022-0.51-0.022-0.837
		c0-0.192,0.002-0.409,0.007-0.651s0.012-0.502,0.021-0.78s0.021-0.571,0.037-0.879c0.015-0.309,0.035-0.626,0.06-0.955
		c0.006-0.072,0.029-0.13,0.069-0.175c0.039-0.044,0.089-0.079,0.146-0.104c0.059-0.024,0.121-0.041,0.187-0.05
		c0.066-0.009,0.127-0.014,0.182-0.014C239.175,48.196,239.368,48.236,239.549,48.315z M239.148,46.579
		c-0.107,0-0.202-0.019-0.285-0.056s-0.153-0.086-0.212-0.146c-0.058-0.06-0.103-0.129-0.133-0.208
		c-0.031-0.078-0.046-0.158-0.046-0.24c0-0.115,0.022-0.217,0.068-0.305s0.106-0.163,0.18-0.223s0.155-0.105,0.244-0.134
		c0.089-0.03,0.176-0.044,0.262-0.044c0.104,0,0.198,0.016,0.281,0.048c0.083,0.032,0.154,0.077,0.214,0.133
		s0.105,0.121,0.138,0.194c0.032,0.073,0.049,0.152,0.049,0.236c0,0.089-0.019,0.179-0.056,0.267
		c-0.037,0.088-0.088,0.168-0.154,0.24c-0.065,0.072-0.146,0.129-0.239,0.173S239.262,46.579,239.148,46.579z"/>
	<path fill="#D3AE13" d="M245.205,49.771c0-0.202-0.04-0.377-0.12-0.526c-0.079-0.149-0.184-0.271-0.313-0.365
		s-0.274-0.165-0.438-0.211c-0.162-0.046-0.325-0.069-0.487-0.069c-0.218,0-0.402,0.019-0.553,0.058s-0.271,0.091-0.365,0.158
		c-0.094,0.066-0.161,0.145-0.203,0.236c-0.041,0.091-0.062,0.189-0.062,0.294c0,0.123,0.026,0.247,0.08,0.371
		s0.133,0.245,0.237,0.363l-0.019,0.042c-0.175,0.072-0.352,0.107-0.529,0.107c-0.104,0-0.201-0.013-0.292-0.04
		c-0.091-0.027-0.169-0.066-0.234-0.117c-0.066-0.051-0.118-0.114-0.157-0.188c-0.038-0.074-0.057-0.157-0.057-0.25
		c0-0.151,0.043-0.293,0.131-0.426c0.087-0.133,0.203-0.255,0.348-0.365c0.144-0.11,0.311-0.209,0.501-0.296
		s0.387-0.161,0.589-0.221c0.203-0.06,0.406-0.106,0.61-0.138c0.204-0.032,0.394-0.048,0.568-0.048c0.322,0,0.597,0.036,0.825,0.107
		c0.229,0.072,0.415,0.176,0.558,0.313c0.143,0.137,0.246,0.303,0.313,0.498c0.066,0.195,0.099,0.415,0.099,0.661
		c0,0.169-0.008,0.354-0.025,0.557c-0.017,0.203-0.036,0.415-0.057,0.636c-0.021,0.222-0.041,0.45-0.058,0.686
		c-0.018,0.235-0.025,0.47-0.025,0.703c0,0.368,0.082,0.646,0.246,0.831s0.38,0.278,0.646,0.278c0.236,0,0.5-0.072,0.791-0.219
		l0.134,0.165c-0.206,0.172-0.43,0.303-0.672,0.393c-0.242,0.089-0.497,0.134-0.764,0.134c-0.199,0-0.384-0.028-0.553-0.084
		c-0.168-0.057-0.314-0.141-0.437-0.252c-0.123-0.111-0.218-0.252-0.285-0.421c-0.068-0.169-0.102-0.364-0.102-0.587
		c0-0.066,0.002-0.134,0.007-0.2s0.015-0.137,0.03-0.211h-0.028c-0.132,0.22-0.284,0.438-0.458,0.65
		c-0.173,0.214-0.363,0.405-0.57,0.572c-0.207,0.168-0.428,0.304-0.662,0.407c-0.235,0.104-0.481,0.156-0.739,0.156
		c-0.211,0-0.404-0.031-0.579-0.093s-0.325-0.146-0.449-0.253s-0.221-0.235-0.29-0.383c-0.068-0.146-0.104-0.308-0.104-0.481
		c0-0.226,0.05-0.431,0.149-0.614c0.101-0.185,0.238-0.35,0.415-0.496c0.176-0.146,0.387-0.271,0.632-0.378
		c0.246-0.106,0.513-0.194,0.801-0.266c0.289-0.07,0.594-0.122,0.916-0.157c0.322-0.034,0.65-0.052,0.984-0.052
		c0.021-0.161,0.04-0.317,0.054-0.468C245.198,50.119,245.205,49.952,245.205,49.771z M242.38,52.409c0,0.1,0.013,0.195,0.039,0.286
		c0.025,0.091,0.067,0.171,0.124,0.24c0.057,0.068,0.129,0.123,0.216,0.163c0.088,0.04,0.193,0.06,0.315,0.06
		c0.139,0,0.281-0.027,0.428-0.081c0.147-0.054,0.293-0.128,0.436-0.223s0.279-0.208,0.409-0.34
		c0.131-0.132,0.248-0.275,0.353-0.432c0.104-0.156,0.19-0.321,0.26-0.494c0.068-0.173,0.114-0.35,0.136-0.531
		c-0.228,0.005-0.453,0.017-0.677,0.036s-0.437,0.049-0.638,0.09c-0.2,0.041-0.387,0.095-0.559,0.162
		c-0.172,0.066-0.32,0.148-0.444,0.247s-0.222,0.215-0.292,0.35S242.38,52.232,242.38,52.409z"/>
</g>
</svg>
