<?xml version="1.0" encoding="utf-8"?>
<!-- Generator: Adobe Illustrator 16.0.0, SVG Export Plug-In . SVG Version: 6.00 Build 0)  -->
<!DOCTYPE svg PUBLIC "-//W3C//DTD SVG 1.1//EN" "http://www.w3.org/Graphics/SVG/1.1/DTD/svg11.dtd">
<svg version="1.1" id="Layer_1" xmlns="http://www.w3.org/2000/svg" xmlns:xlink="http://www.w3.org/1999/xlink" x="0px" y="0px"
	 width="400px" height="100px" viewBox="0 0 400 100" enable-background="new 0 0 400 100" xml:space="preserve">
<rect x="-1797" y="74" fill="#E1DBCC" width="655" height="150"/>
<rect x="-1742" y="-184" fill="#E1DBCC" width="655" height="200"/>
<g>
	<path fill="#737373" d="M-1667.648-167.793l-0.077,0.008l-0.599,0.138l-0.146,153.125l124.974,21.87l0.495,0.089V-178
		L-1667.648-167.793z M-1567.664-59.222c0-3.538,2.773-6.36,6.198-6.295c3.416,0.065,6.189,2.977,6.181,6.523
		c0,3.538-2.772,6.361-6.197,6.295C-1564.899-52.756-1567.664-55.676-1567.664-59.222z M-1558.229-0.646
		c-3.416-0.057-6.181-2.977-6.181-6.523c0-3.538,2.773-6.36,6.198-6.295c3.416,0.065,6.189,2.977,6.181,6.523
		C-1552.032-3.404-1554.805-0.581-1558.229-0.646z"/>
	<path fill="#C3B799" d="M-1542.979,6.267l-12.484-163.934l-112.174-10.126l-0.082,0.008l-1.398,0.122l-0.123,156.63l0.822-0.179
		l124.935,18.56l0.504,0.073l0.089,0.016L-1542.979,6.267z M-1552.032-6.941c0,3.538-2.772,6.36-6.198,6.295
		c-3.416-0.057-6.181-2.977-6.181-6.523c0-3.538,2.773-6.36,6.198-6.295C-1554.797-13.399-1552.024-10.488-1552.032-6.941z"/>
</g>
<g>
	<path fill="#503800" stroke="#6A4A00" stroke-width="0.8133" stroke-miterlimit="10" d="M-1570.343-77.259
		c0,12.842-3.862,24.563-10.226,33.447c-0.686-0.498-1.392-0.986-2.109-1.474c-0.279-0.188-0.553-0.376-0.828-0.568
		c-0.072-0.057-0.127-0.092-0.183-0.127c-0.361-0.3-0.692-0.621-1.022-0.951c-0.061-0.057-0.107-0.102-0.147-0.137
		c-0.03-0.052-0.061-0.107-0.092-0.158c-0.071-0.177-0.31-0.68-0.376-0.925c-0.02-0.075-0.035-0.136-0.056-0.192
		c0-0.096-0.005-0.213-0.015-0.361c-0.041-0.706,0.015-1.417,0.061-2.124c0.107-1.541-0.437-2.973-1.362-4.126
		c3.283-6.704,5.174-14.607,5.174-23.064c0-24.278-15.588-43.962-34.814-43.962c-15.923,0-29.351,13.499-33.493,31.927
		c4.544-21.595,20.32-37.517,39.083-37.517C-1588.431-127.574-1570.343-105.049-1570.343-77.259z"/>
	<path fill="#A69266" stroke="#A69266" stroke-width="0.8133" stroke-miterlimit="10" d="M-1583.893-28.057
		c-0.249-0.427-0.502-0.849-0.783-1.255c-0.127-0.128-0.681-0.793-0.757-0.875c-0.407-0.407-0.813-0.809-1.255-1.18
		c-0.153-0.132-0.254-0.219-0.326-0.278c-0.005-0.005-0.005-0.005-0.01-0.01c-1.062-0.762-2.149-1.495-3.216-2.247
		c-6.008,4.422-13.021,6.958-20.507,6.958c-22.317,0-40.405-22.525-40.405-50.315c0-0.112,0-0.219,0.005-0.331
		c0.183,24.081,15.699,43.532,34.809,43.532c7.049,0,13.605-2.645,19.084-7.193c4.265-3.531,7.877-8.218,10.556-13.707
		c0.925,1.154,1.469,2.586,1.362,4.126c-0.045,0.707-0.101,1.418-0.061,2.124c0.01,0.148,0.015,0.265,0.015,0.361
		c0.021,0.056,0.036,0.117,0.056,0.192c0.066,0.245,0.305,0.748,0.376,0.925c0.031,0.051,0.062,0.106,0.092,0.158
		c0.04,0.036,0.086,0.081,0.147,0.137c0.33,0.33,0.661,0.65,1.022,0.951c0.056,0.036,0.111,0.07,0.183,0.127
		c0.275,0.192,0.549,0.38,0.828,0.568c0.717,0.488,1.423,0.976,2.109,1.474c3.365,2.44,6.364,5.113,8.529,8.833
		C-1567.583-27.315-1579.445-20.414-1583.893-28.057z"/>
	<path fill="#FFFFFF" stroke="#000000" stroke-width="0.8133" stroke-miterlimit="10" d="M-1649.912-89.66
		c-0.788,3.863-1.22,7.909-1.235,12.07c-0.005-0.142-0.005-0.289-0.005-0.432C-1651.152-82.051-1650.72-85.955-1649.912-89.66z"/>
</g>
<g>
	<path fill="#12B72F" d="M-1593.691-104.217v4.064c0,1.594-0.52,2.948-1.56,4.063l-32.081,34.48h29.012
		c1.256,0,2.323,0.49,3.202,1.464c0.88,0.978,1.319,2.163,1.319,3.556c0,1.396-0.439,2.581-1.317,3.555
		c-0.879,0.978-1.945,1.464-3.2,1.464h-36.354c-1.291,0-2.385-0.487-3.28-1.464c-0.898-0.975-1.345-2.16-1.345-3.555v-4.302
		c0-1.436,0.807-3.028,2.42-4.781l31.423-33.524h-27.119c-1.255,0-2.322-0.499-3.201-1.495c-0.879-0.996-1.318-2.211-1.318-3.645
		c0-1.315,0.449-2.48,1.345-3.496c0.895-1.018,1.953-1.525,3.173-1.525h34.365c1.254,0,2.32,0.507,3.199,1.525
		C-1594.131-106.816-1593.691-105.611-1593.691-104.217z"/>
</g>
<g>
	<path fill="#6A4A00" stroke="#6A4A00" stroke-miterlimit="10" d="M-1657.644,146.863c0,15.789-4.749,30.201-12.573,41.123
		c-0.843-0.611-1.711-1.211-2.593-1.813c-0.343-0.229-0.68-0.461-1.018-0.698c-0.088-0.07-0.156-0.111-0.225-0.156
		c-0.444-0.369-0.851-0.762-1.256-1.168c-0.075-0.07-0.132-0.125-0.181-0.17c-0.038-0.063-0.075-0.131-0.113-0.193
		c-0.087-0.219-0.381-0.836-0.462-1.139c-0.025-0.092-0.043-0.168-0.068-0.236c0-0.117-0.007-0.262-0.02-0.443
		c-0.05-0.867,0.02-1.742,0.075-2.611c0.132-1.895-0.537-3.655-1.674-5.073c4.036-8.242,6.361-17.96,6.361-28.357
		c0-29.85-19.166-54.053-42.805-54.053c-19.578,0-36.087,16.599-41.18,39.256c5.586-26.552,24.983-46.129,48.054-46.129
		C-1679.884,85-1657.644,112.695-1657.644,146.863z"/>
	<path fill="#A69266" stroke="#A69266" stroke-miterlimit="10" d="M-1674.303,207.357c-0.306-0.524-0.618-1.043-0.962-1.543
		c-0.156-0.156-0.837-0.976-0.931-1.074c-0.5-0.5-1-0.994-1.543-1.451c-0.188-0.162-0.313-0.27-0.4-0.342
		c-0.006-0.008-0.006-0.008-0.013-0.014c-1.306-0.938-2.643-1.838-3.955-2.763c-7.387,5.437-16.01,8.556-25.214,8.556
		c-27.439,0-49.678-27.695-49.678-61.863c0-0.137,0-0.27,0.006-0.406c0.225,29.607,19.303,53.521,42.798,53.521
		c8.667,0,16.729-3.252,23.464-8.844c5.243-4.342,9.686-10.104,12.979-16.853c1.138,1.418,1.806,3.18,1.674,5.073
		c-0.056,0.869-0.125,1.744-0.075,2.611c0.012,0.182,0.019,0.326,0.019,0.443c0.025,0.068,0.043,0.145,0.068,0.236
		c0.082,0.303,0.375,0.92,0.462,1.139c0.038,0.063,0.075,0.131,0.113,0.193c0.049,0.045,0.106,0.1,0.181,0.17
		c0.406,0.406,0.812,0.799,1.256,1.168c0.068,0.045,0.137,0.086,0.225,0.156c0.338,0.237,0.675,0.469,1.018,0.698
		c0.882,0.603,1.75,1.201,2.593,1.813c4.137,3,7.824,6.287,10.486,10.861C-1654.25,208.271-1668.835,216.756-1674.303,207.357z"/>
	<path fill="#FFFFFF" stroke="#000000" stroke-miterlimit="10" d="M-1755.476,131.615c-0.968,4.75-1.5,9.725-1.518,14.842
		c-0.006-0.176-0.006-0.355-0.006-0.531C-1757,140.971-1756.469,136.172-1755.476,131.615z"/>
</g>
<g>
	<path fill="#12B72F" d="M-1686.351,113.717v4.998c0,1.959-0.639,3.625-1.918,4.995l-39.444,42.396h35.671
		c1.544,0,2.856,0.603,3.937,1.801c1.082,1.201,1.622,2.658,1.622,4.371c0,1.717-0.54,3.174-1.62,4.371
		c-1.08,1.203-2.392,1.802-3.934,1.802h-44.7c-1.587,0-2.933-0.599-4.033-1.802c-1.104-1.197-1.654-2.654-1.654-4.371v-5.288
		c0-1.765,0.992-3.724,2.976-5.88l38.635-41.219h-33.343c-1.543,0-2.855-0.613-3.936-1.838s-1.621-2.719-1.621-4.48
		c0-1.616,0.551-3.049,1.654-4.299c1.101-1.25,2.401-1.875,3.901-1.875h42.253c1.542,0,2.853,0.625,3.934,1.875
		C-1686.892,110.521-1686.351,112.004-1686.351,113.717z"/>
</g>
<text transform="matrix(1 0 0 1 -1480 189)" fill="#B72575" font-family="'ArialMT'" font-size="18">First Question Encyclopedia</text>
<text transform="matrix(1 0 0 1 -1633 164)" fill="#6A4A00" font-family="'Verdana-Bold'" font-size="48">Quizyclopedia</text>
<text transform="matrix(1 0 0 1 -1341 -55)" fill="#B72575" font-family="'ArialMT'" font-size="18">First Question Encyclopedia</text>
<text transform="matrix(1 0 0 1 -1494 -80)" fill="#503800" font-family="'Verdana-Bold'" font-size="48">Quizyclopedia</text>
<path fill="#737373" d="M-461.648-32.793l-0.076,0.008l-0.599,0.138l-0.146,153.125l124.975,21.869l0.494,0.09V-43L-461.648-32.793z
	 M-352.229,134.354c-3.416-0.057-6.181-2.977-6.181-6.522c0-3.537,2.773-6.358,6.197-6.295c3.416,0.065,6.189,2.978,6.182,6.522
	C-346.031,131.596-348.805,134.419-352.229,134.354z"/>
<path fill="#C3B799" d="M-336.979,141.268l-12.484-163.935l-112.174-10.126l-0.081,0.008l-1.398,0.122l-0.123,156.629l0.822-0.178
	l124.934,18.56l0.505,0.073l0.089,0.017L-336.979,141.268z M-346.031,128.059c0,3.537-2.773,6.36-6.198,6.295
	c-3.416-0.057-6.181-2.977-6.181-6.522c0-3.537,2.773-6.358,6.197-6.295C-348.797,121.602-346.023,124.512-346.031,128.059z"/>
<g>
	<path fill="#503800" stroke="#6A4A00" stroke-width="0.8133" stroke-miterlimit="10" d="M-364.343,57.741
		c0,12.843-3.862,24.563-10.226,33.446c-0.686-0.498-1.393-0.985-2.109-1.475c-0.279-0.188-0.553-0.376-0.828-0.568
		c-0.072-0.058-0.127-0.092-0.183-0.127c-0.361-0.301-0.692-0.621-1.022-0.951c-0.061-0.057-0.107-0.102-0.146-0.137
		c-0.031-0.052-0.062-0.106-0.092-0.158c-0.071-0.178-0.311-0.681-0.377-0.926c-0.02-0.074-0.035-0.136-0.055-0.191
		c0-0.096-0.006-0.213-0.016-0.361c-0.041-0.706,0.016-1.417,0.061-2.124c0.107-1.54-0.437-2.974-1.361-4.126
		c3.282-6.704,5.174-14.607,5.174-23.064c0-24.277-15.588-43.961-34.814-43.961c-15.923,0-29.351,13.499-33.492,31.927
		c4.543-21.595,20.319-37.517,39.083-37.517C-382.432,7.426-364.343,29.951-364.343,57.741z"/>
	<path fill="#A69266" stroke="#A69266" stroke-width="0.8133" stroke-miterlimit="10" d="M-377.893,106.943
		c-0.249-0.428-0.502-0.851-0.783-1.256c-0.127-0.127-0.68-0.793-0.756-0.873c-0.407-0.407-0.813-0.81-1.256-1.182
		c-0.152-0.132-0.254-0.219-0.326-0.277c-0.004-0.006-0.004-0.006-0.01-0.01c-1.063-0.764-2.149-1.496-3.217-2.248
		c-6.008,4.422-13.021,6.959-20.507,6.959c-22.317,0-40.405-22.525-40.405-50.315c0-0.112,0-0.22,0.006-0.331
		c0.183,24.081,15.699,43.531,34.809,43.531c7.049,0,13.605-2.646,19.084-7.192c4.265-3.531,7.877-8.218,10.557-13.706
		c0.925,1.152,1.469,2.586,1.361,4.126c-0.045,0.707-0.102,1.418-0.061,2.124c0.01,0.148,0.016,0.266,0.016,0.361
		c0.02,0.057,0.035,0.117,0.055,0.191c0.066,0.245,0.306,0.748,0.377,0.926c0.03,0.052,0.061,0.106,0.092,0.158
		c0.039,0.035,0.086,0.08,0.146,0.137c0.33,0.33,0.661,0.65,1.022,0.951c0.056,0.035,0.11,0.069,0.183,0.127
		c0.275,0.192,0.549,0.381,0.828,0.568c0.717,0.488,1.424,0.977,2.109,1.475c3.364,2.44,6.363,5.112,8.528,8.834
		C-361.583,107.686-373.445,114.586-377.893,106.943z"/>
	<path fill="#FFFFFF" stroke="#000000" stroke-width="0.8133" stroke-miterlimit="10" d="M-443.912,45.34
		c-0.787,3.863-1.219,7.908-1.234,12.07c-0.006-0.143-0.006-0.289-0.006-0.432C-445.152,52.949-444.72,49.045-443.912,45.34z"/>
</g>
<g>
	<path fill="#12B72F" d="M-387.691,30.783v4.064c0,1.594-0.52,2.948-1.56,4.063l-32.081,34.48h29.012
		c1.256,0,2.323,0.489,3.202,1.465c0.88,0.977,1.319,2.162,1.319,3.556c0,1.396-0.439,2.581-1.317,3.556
		c-0.879,0.977-1.945,1.465-3.2,1.465h-36.355c-1.291,0-2.385-0.488-3.279-1.465c-0.898-0.975-1.346-2.16-1.346-3.556v-4.302
		c0-1.437,0.807-3.027,2.42-4.781l31.423-33.524h-27.118c-1.256,0-2.322-0.499-3.201-1.495c-0.88-0.996-1.318-2.211-1.318-3.645
		c0-1.315,0.448-2.48,1.345-3.496c0.896-1.018,1.953-1.525,3.173-1.525h34.365c1.255,0,2.32,0.507,3.199,1.525
		C-388.131,28.184-387.691,29.389-387.691,30.783z"/>
</g>
<g>
	<g>
		<path fill="#737373" d="M7.088,11.996L7.181,12L6.99,12.059L6.957,77.364l53.066,9.325L60,86.729V7.643L7.088,11.996z
			 M54.004,83.279c-1.457-0.023-2.637-1.269-2.637-2.78c0-1.509,1.183-2.713,2.644-2.685c1.456,0.026,2.64,1.269,2.636,2.781
			C56.646,82.105,55.465,83.309,54.004,83.279z"/>
		<path fill="#C3B799" d="M60.508,86.229l-5.325-69.916L7.344,11.996L7.308,12l-0.595,0.052l-0.054,66.8l0.351-0.076l53.282,7.916
			l0.216,0.031l0.037,0.006L60.508,86.229z M56.646,80.596c0,1.51-1.182,2.713-2.643,2.686c-1.457-0.024-2.637-1.27-2.637-2.781
			c0-1.509,1.183-2.713,2.644-2.686C55.467,77.842,56.65,79.083,56.646,80.596z"/>
	</g>
	<path fill="#503800" stroke="#6A4A00" stroke-width="0.8133" stroke-miterlimit="10" d="M48.837,50.607
		c0,5.477-1.646,10.477-4.36,14.264c-0.293-0.212-0.595-0.419-0.899-0.628c-0.12-0.081-0.236-0.161-0.354-0.243
		c-0.031-0.023-0.055-0.038-0.078-0.055c-0.154-0.127-0.295-0.266-0.436-0.404c-0.026-0.023-0.047-0.043-0.063-0.061
		c-0.013-0.021-0.025-0.043-0.039-0.066c-0.03-0.076-0.132-0.289-0.16-0.395c-0.008-0.031-0.016-0.059-0.023-0.082
		c0-0.041-0.002-0.092-0.007-0.153c-0.018-0.302,0.007-0.604,0.025-0.906c0.047-0.655-0.187-1.269-0.58-1.76
		c1.399-2.859,2.206-6.229,2.206-9.836c0-10.354-6.647-18.749-14.846-18.749c-6.792,0-12.52,5.757-14.285,13.617
		c1.938-9.21,8.666-16.001,16.668-16.001C41.123,29.148,48.837,38.755,48.837,50.607z"/>
	<path fill="#A69266" stroke="#A69266" stroke-width="0.8133" stroke-miterlimit="10" d="M43.059,71.591
		c-0.105-0.184-0.215-0.362-0.334-0.534c-0.055-0.057-0.29-0.339-0.323-0.373c-0.173-0.175-0.346-0.347-0.534-0.504
		c-0.065-0.058-0.108-0.094-0.14-0.117c-0.003-0.004-0.003-0.004-0.004-0.006c-0.453-0.326-0.917-0.638-1.372-0.959
		c-2.563,1.885-5.554,2.969-8.746,2.969c-9.518,0-17.232-9.606-17.232-21.459c0-0.047,0-0.092,0.003-0.141
		c0.077,10.27,6.695,18.565,14.847,18.565c3.005,0,5.801-1.128,8.138-3.066c1.818-1.507,3.358-3.506,4.502-5.847
		c0.394,0.492,0.627,1.104,0.58,1.76c-0.019,0.303-0.043,0.604-0.025,0.906c0.005,0.063,0.007,0.111,0.007,0.152
		c0.008,0.024,0.016,0.052,0.023,0.082c0.028,0.105,0.13,0.318,0.16,0.396c0.014,0.022,0.026,0.046,0.039,0.067
		c0.017,0.017,0.037,0.035,0.063,0.06c0.141,0.14,0.281,0.276,0.436,0.405c0.023,0.016,0.047,0.029,0.078,0.054
		c0.117,0.082,0.233,0.162,0.354,0.243c0.305,0.209,0.606,0.416,0.899,0.628c1.434,1.041,2.714,2.183,3.637,3.769
		C50.014,71.907,44.956,74.85,43.059,71.591z"/>
	<g>
		<path fill="#12B72F" d="M38.879,39.11v1.733c0,0.68-0.222,1.256-0.665,1.733L24.533,57.281h12.372
			c0.536,0,0.991,0.209,1.366,0.625s0.563,0.922,0.563,1.517s-0.188,1.101-0.563,1.517s-0.829,0.623-1.364,0.623H21.402
			c-0.551,0-1.017-0.207-1.399-0.623c-0.383-0.416-0.573-0.922-0.573-1.517v-1.835c0-0.611,0.344-1.291,1.032-2.039l13.401-14.298
			H22.298c-0.536,0-0.991-0.213-1.365-0.638c-0.376-0.424-0.563-0.943-0.563-1.554c0-0.561,0.19-1.058,0.573-1.491
			c0.383-0.435,0.833-0.65,1.354-0.65h14.656c0.535,0,0.989,0.215,1.364,0.65C38.692,38.001,38.879,38.515,38.879,39.11z"/>
	</g>
</g>
<g>
	<path fill="#F1D3E3" d="M170.908,72.299v-1.803h1.802v1.803H170.908z"/>
	<path fill="#F1D3E3" d="M175.909,72.299v-1.803h1.802v1.803H175.909z"/>
	<path fill="#F1D3E3" d="M180.91,72.299v-1.803h1.802v1.803H180.91z"/>
	<path fill="#F1D3E3" d="M188.917,70.883l0.229,1.398c-0.445,0.094-0.844,0.141-1.195,0.141c-0.574,0-1.02-0.092-1.336-0.273
		c-0.316-0.181-0.539-0.42-0.668-0.715c-0.129-0.297-0.193-0.92-0.193-1.869v-5.369h-1.16v-1.229h1.16v-2.313l1.573-0.948v3.262
		h1.591v1.229h-1.591v5.457c0,0.451,0.027,0.742,0.084,0.871c0.055,0.129,0.146,0.23,0.271,0.308
		c0.127,0.076,0.307,0.114,0.541,0.114C188.398,70.945,188.63,70.924,188.917,70.883z"/>
	<path fill="#F1D3E3" d="M190.464,72.299V59.414h1.582v4.623c0.738-0.855,1.67-1.283,2.795-1.283c0.691,0,1.292,0.137,1.802,0.408
		c0.51,0.273,0.875,0.648,1.094,1.129c0.221,0.48,0.33,1.178,0.33,2.092v5.916h-1.582v-5.916c0-0.791-0.172-1.365-0.514-1.727
		c-0.344-0.359-0.828-0.541-1.455-0.541c-0.469,0-0.91,0.123-1.322,0.365c-0.414,0.244-0.708,0.571-0.884,0.987
		c-0.176,0.416-0.264,0.99-0.264,1.724v5.106L190.464,72.299L190.464,72.299z"/>
	<path fill="#F1D3E3" d="M206.864,69.293l1.635,0.201c-0.258,0.955-0.735,1.697-1.433,2.225c-0.698,0.528-1.588,0.791-2.672,0.791
		c-1.365,0-2.447-0.42-3.248-1.262c-0.799-0.84-1.2-2.02-1.2-3.537c0-1.57,0.404-2.789,1.213-3.656
		c0.809-0.867,1.857-1.301,3.146-1.301c1.248,0,2.268,0.424,3.059,1.273c0.791,0.849,1.187,2.045,1.187,3.586
		c0,0.094-0.003,0.234-0.009,0.422h-6.961c0.059,1.025,0.35,1.811,0.87,2.355c0.521,0.543,1.172,0.817,1.95,0.817
		c0.58,0,1.076-0.151,1.486-0.457C206.298,70.445,206.624,69.961,206.864,69.293z M201.67,66.734h5.212
		c-0.069-0.785-0.271-1.373-0.598-1.767c-0.505-0.608-1.157-0.913-1.96-0.913c-0.727,0-1.338,0.241-1.832,0.729
		C201.996,65.27,201.723,65.92,201.67,66.734z"/>
	<path fill="#F1D3E3" d="M221.438,75.875v-4.57c-0.246,0.346-0.592,0.633-1.033,0.861c-0.442,0.229-0.912,0.344-1.41,0.344
		c-1.107,0-2.063-0.443-2.86-1.328c-0.801-0.885-1.2-2.098-1.2-3.639c0-0.938,0.164-1.777,0.487-2.521
		c0.326-0.744,0.797-1.309,1.416-1.69c0.617-0.386,1.296-0.576,2.034-0.576c1.154,0,2.063,0.486,2.725,1.459v-1.248h1.424v12.91
		L221.438,75.875L221.438,75.875z M216.559,67.605c0,1.201,0.252,2.102,0.756,2.703c0.504,0.6,1.107,0.899,1.812,0.899
		c0.674,0,1.254-0.285,1.74-0.856c0.485-0.57,0.729-1.439,0.729-2.605c0-1.242-0.258-2.178-0.77-2.805
		c-0.514-0.627-1.115-0.939-1.807-0.939c-0.687,0-1.269,0.291-1.744,0.875C216.797,65.459,216.559,66.369,216.559,67.605z"/>
	<path fill="#F1D3E3" d="M231.614,72.299v-1.371c-0.728,1.055-1.714,1.582-2.962,1.582c-0.551,0-1.064-0.104-1.543-0.316
		c-0.478-0.211-0.832-0.477-1.063-0.795c-0.231-0.319-0.396-0.711-0.487-1.174c-0.064-0.311-0.098-0.803-0.098-1.477v-5.783h1.582
		v5.176c0,0.826,0.032,1.383,0.098,1.67c0.1,0.416,0.311,0.744,0.633,0.98c0.321,0.238,0.721,0.355,1.194,0.355
		s0.921-0.121,1.337-0.363c0.415-0.244,0.711-0.574,0.883-0.994c0.174-0.418,0.26-1.027,0.26-1.824v-5h1.582v9.334H231.614z"/>
	<path fill="#F1D3E3" d="M241.896,69.293l1.636,0.201c-0.259,0.955-0.735,1.697-1.433,2.225c-0.699,0.528-1.589,0.791-2.673,0.791
		c-1.364,0-2.446-0.42-3.247-1.262c-0.8-0.84-1.199-2.02-1.199-3.537c0-1.57,0.403-2.789,1.213-3.656
		c0.809-0.867,1.856-1.301,3.146-1.301c1.248,0,2.269,0.424,3.06,1.273c0.791,0.849,1.187,2.045,1.187,3.586
		c0,0.094-0.003,0.234-0.009,0.422h-6.961c0.059,1.025,0.349,1.811,0.869,2.355c0.521,0.543,1.173,0.817,1.951,0.817
		c0.58,0,1.075-0.151,1.485-0.457S241.657,69.961,241.896,69.293z M236.703,66.734h5.212c-0.069-0.785-0.271-1.373-0.599-1.767
		c-0.504-0.608-1.156-0.913-1.959-0.913c-0.728,0-1.338,0.241-1.832,0.729C237.029,65.27,236.756,65.92,236.703,66.734z"/>
	<path fill="#F1D3E3" d="M244.886,69.512l1.564-0.246c0.088,0.627,0.333,1.107,0.733,1.441c0.401,0.334,0.963,0.502,1.684,0.502
		c0.727,0,1.266-0.148,1.617-0.443c0.352-0.297,0.526-0.645,0.526-1.043c0-0.356-0.155-0.639-0.466-0.844
		c-0.217-0.141-0.756-0.318-1.617-0.535c-1.16-0.293-1.964-0.547-2.412-0.76c-0.447-0.215-0.787-0.51-1.021-0.889
		c-0.229-0.377-0.347-0.795-0.347-1.252c0-0.416,0.095-0.801,0.285-1.156c0.189-0.354,0.449-0.648,0.777-0.883
		c0.246-0.182,0.582-0.336,1.006-0.461c0.426-0.127,0.881-0.189,1.367-0.189c0.732,0,1.375,0.105,1.93,0.316
		c0.553,0.211,0.963,0.496,1.227,0.856c0.264,0.359,0.445,0.843,0.545,1.445l-1.547,0.211c-0.07-0.479-0.274-0.854-0.61-1.125
		c-0.338-0.271-0.813-0.403-1.429-0.403c-0.727,0-1.245,0.118-1.557,0.358c-0.311,0.239-0.466,0.521-0.466,0.844
		c0,0.205,0.064,0.392,0.193,0.556c0.129,0.17,0.331,0.311,0.606,0.422c0.157,0.059,0.623,0.192,1.396,0.404
		c1.119,0.299,1.898,0.543,2.343,0.733c0.441,0.188,0.789,0.467,1.041,0.83c0.252,0.362,0.378,0.813,0.378,1.354
		c0,0.526-0.152,1.022-0.462,1.489c-0.307,0.465-0.751,0.826-1.331,1.08c-0.58,0.256-1.236,0.383-1.969,0.383
		c-1.213,0-2.139-0.252-2.771-0.756C245.467,71.25,245.063,70.502,244.886,69.512z"/>
	<path fill="#F1D3E3" d="M257.973,70.883l0.229,1.398c-0.445,0.094-0.845,0.141-1.195,0.141c-0.573,0-1.021-0.092-1.336-0.273
		c-0.315-0.181-0.539-0.42-0.668-0.715c-0.129-0.297-0.192-0.92-0.192-1.869v-5.369h-1.16v-1.229h1.16v-2.313l1.572-0.948v3.262
		h1.592v1.229h-1.592v5.457c0,0.451,0.028,0.742,0.083,0.871c0.058,0.129,0.146,0.23,0.273,0.308
		c0.125,0.076,0.306,0.114,0.54,0.114C257.454,70.945,257.686,70.924,257.973,70.883z"/>
	<path fill="#F1D3E3" d="M259.527,61.232v-1.818h1.582v1.818H259.527z M259.527,72.299v-9.334h1.582v9.334H259.527z"/>
	<path fill="#F1D3E3" d="M262.93,67.631c0-1.729,0.48-3.008,1.441-3.84c0.803-0.691,1.781-1.037,2.936-1.037
		c1.283,0,2.332,0.42,3.146,1.262c0.814,0.84,1.222,2.002,1.222,3.484c0,1.201-0.181,2.146-0.54,2.834
		c-0.361,0.689-0.885,1.223-1.574,1.604c-0.688,0.381-1.438,0.572-2.254,0.572c-1.307,0-2.363-0.42-3.168-1.258
		C263.332,70.414,262.93,69.207,262.93,67.631z M264.557,67.631c0,1.195,0.26,2.092,0.781,2.686
		c0.521,0.597,1.178,0.894,1.969,0.894c0.785,0,1.438-0.299,1.961-0.896c0.521-0.598,0.781-1.511,0.781-2.734
		c0-1.154-0.262-2.027-0.787-2.623c-0.522-0.594-1.176-0.893-1.955-0.893c-0.791,0-1.447,0.297-1.969,0.889
		S264.557,66.436,264.557,67.631z"/>
	<path fill="#F1D3E3" d="M273.529,72.299v-9.334h1.424v1.326c0.686-1.025,1.676-1.537,2.971-1.537c0.563,0,1.08,0.102,1.551,0.303
		c0.474,0.203,0.825,0.467,1.061,0.795c0.234,0.328,0.398,0.719,0.492,1.17c0.059,0.293,0.088,0.806,0.088,1.537v5.74h-1.582v-5.678
		c0-0.645-0.063-1.127-0.186-1.445c-0.123-0.32-0.342-0.574-0.654-0.766c-0.313-0.189-0.682-0.285-1.104-0.285
		c-0.674,0-1.256,0.213-1.744,0.641c-0.49,0.428-0.734,1.24-0.734,2.437V72.3L273.529,72.299L273.529,72.299z"/>
	<path fill="#F1D3E3" d="M294.932,69.293l1.635,0.201c-0.258,0.955-0.735,1.697-1.434,2.225c-0.697,0.528-1.588,0.791-2.672,0.791
		c-1.365,0-2.447-0.42-3.248-1.262c-0.799-0.84-1.199-2.02-1.199-3.537c0-1.57,0.404-2.789,1.213-3.656
		c0.81-0.867,1.857-1.301,3.146-1.301c1.248,0,2.268,0.424,3.059,1.273c0.791,0.849,1.188,2.045,1.188,3.586
		c0,0.094-0.003,0.234-0.01,0.422h-6.961c0.06,1.025,0.35,1.811,0.871,2.355c0.521,0.543,1.172,0.817,1.951,0.817
		c0.579,0,1.074-0.151,1.484-0.457S294.689,69.961,294.932,69.293z M289.736,66.734h5.212c-0.07-0.785-0.271-1.373-0.599-1.767
		c-0.504-0.608-1.156-0.913-1.959-0.913c-0.728,0-1.339,0.241-1.832,0.729C290.063,65.27,289.789,65.92,289.736,66.734z"/>
	<path fill="#F1D3E3" d="M298.552,72.299v-9.334h1.425v1.326c0.686-1.025,1.676-1.537,2.971-1.537c0.563,0,1.078,0.102,1.552,0.303
		c0.472,0.203,0.824,0.467,1.06,0.795c0.234,0.328,0.397,0.719,0.491,1.17c0.06,0.293,0.089,0.806,0.089,1.537v5.74h-1.582v-5.678
		c0-0.645-0.063-1.127-0.186-1.445c-0.123-0.32-0.341-0.574-0.655-0.766c-0.313-0.189-0.681-0.285-1.103-0.285
		c-0.674,0-1.256,0.213-1.745,0.641c-0.488,0.428-0.733,1.24-0.733,2.437V72.3L298.552,72.299L298.552,72.299z"/>
	<path fill="#F1D3E3" d="M314.652,68.879l1.557,0.203c-0.17,1.072-0.605,1.912-1.305,2.518c-0.701,0.607-1.562,0.91-2.58,0.91
		c-1.277,0-2.305-0.418-3.08-1.252c-0.777-0.836-1.165-2.033-1.165-3.592c0-1.008,0.167-1.889,0.501-2.645s0.842-1.322,1.525-1.701
		c0.682-0.377,1.425-0.566,2.228-0.566c1.015,0,1.843,0.256,2.487,0.77c0.645,0.513,1.058,1.24,1.238,2.185l-1.537,0.235
		c-0.146-0.627-0.406-1.098-0.777-1.413c-0.373-0.316-0.822-0.476-1.35-0.476c-0.797,0-1.444,0.285-1.942,0.857
		c-0.498,0.57-0.747,1.475-0.747,2.711c0,1.254,0.24,2.164,0.721,2.732c0.481,0.567,1.107,0.854,1.881,0.854
		c0.621,0,1.141-0.191,1.557-0.572S314.542,69.67,314.652,68.879z"/>
	<path fill="#F1D3E3" d="M317.492,75.893l-0.176-1.483c0.346,0.094,0.646,0.141,0.904,0.141c0.353,0,0.633-0.059,0.844-0.176
		s0.385-0.281,0.52-0.492c0.1-0.157,0.262-0.551,0.482-1.178c0.029-0.088,0.076-0.218,0.142-0.388l-3.542-9.352h1.705l1.941,5.404
		c0.252,0.686,0.479,1.406,0.678,2.162c0.182-0.727,0.398-1.437,0.65-2.127l1.994-5.439h1.582l-3.551,9.492
		c-0.381,1.025-0.678,1.73-0.889,2.117c-0.28,0.521-0.604,0.904-0.967,1.148c-0.363,0.241-0.797,0.362-1.301,0.362
		C318.207,76.086,317.867,76.021,317.492,75.893z"/>
	<path fill="#F1D3E3" d="M332.652,68.879l1.557,0.203c-0.17,1.072-0.605,1.912-1.305,2.518c-0.701,0.607-1.562,0.91-2.58,0.91
		c-1.277,0-2.305-0.418-3.08-1.252c-0.777-0.836-1.165-2.033-1.165-3.592c0-1.008,0.167-1.889,0.501-2.645s0.842-1.322,1.525-1.701
		c0.682-0.377,1.425-0.566,2.228-0.566c1.015,0,1.843,0.256,2.487,0.77c0.645,0.513,1.058,1.24,1.238,2.185l-1.537,0.235
		c-0.146-0.627-0.406-1.098-0.777-1.413c-0.373-0.316-0.822-0.476-1.35-0.476c-0.797,0-1.444,0.285-1.942,0.857
		c-0.498,0.57-0.747,1.475-0.747,2.711c0,1.254,0.24,2.164,0.721,2.732c0.481,0.567,1.107,0.854,1.881,0.854
		c0.621,0,1.141-0.191,1.557-0.572S332.542,69.67,332.652,68.879z"/>
	<path fill="#F1D3E3" d="M335.527,72.299V59.414h1.582v12.885H335.527z"/>
	<path fill="#F1D3E3" d="M338.973,67.631c0-1.729,0.48-3.008,1.441-3.84c0.803-0.691,1.781-1.037,2.936-1.037
		c1.283,0,2.332,0.42,3.146,1.262c0.814,0.84,1.222,2.002,1.222,3.484c0,1.201-0.181,2.146-0.54,2.834
		c-0.361,0.689-0.885,1.223-1.574,1.604c-0.688,0.381-1.438,0.572-2.254,0.572c-1.307,0-2.363-0.42-3.168-1.258
		C339.375,70.414,338.973,69.207,338.973,67.631z M340.6,67.631c0,1.195,0.26,2.092,0.781,2.686
		c0.521,0.597,1.178,0.894,1.969,0.894c0.785,0,1.438-0.299,1.961-0.896c0.521-0.598,0.781-1.511,0.781-2.734
		c0-1.154-0.262-2.027-0.787-2.623c-0.522-0.594-1.176-0.893-1.955-0.893c-0.791,0-1.447,0.297-1.969,0.889
		S340.6,66.436,340.6,67.631z"/>
	<path fill="#F1D3E3" d="M349.572,75.875v-12.91h1.441v1.213c0.34-0.475,0.723-0.83,1.15-1.068c0.428-0.235,0.945-0.354,1.557-0.354
		c0.797,0,1.5,0.205,2.108,0.615s1.069,0.987,1.38,1.735c0.311,0.746,0.466,1.564,0.466,2.455c0,0.955-0.172,1.816-0.514,2.58
		c-0.345,0.767-0.843,1.353-1.494,1.758c-0.653,0.406-1.341,0.611-2.062,0.611c-0.527,0-1.002-0.111-1.42-0.334
		c-0.42-0.223-0.764-0.504-1.033-0.844v4.543H349.572z M351.005,67.684c0,1.201,0.243,2.09,0.729,2.664s1.074,0.861,1.767,0.861
		c0.703,0,1.306-0.297,1.806-0.893c0.502-0.594,0.752-1.517,0.752-2.765c0-1.188-0.244-2.079-0.733-2.672
		c-0.488-0.592-1.073-0.889-1.753-0.889c-0.674,0-1.271,0.315-1.788,0.944C351.264,65.568,351.005,66.482,351.005,67.684z"/>
	<path fill="#F1D3E3" d="M365.973,69.293l1.635,0.201c-0.258,0.955-0.734,1.697-1.433,2.225c-0.698,0.528-1.588,0.791-2.672,0.791
		c-1.364,0-2.448-0.42-3.247-1.262c-0.801-0.84-1.199-2.02-1.199-3.537c0-1.57,0.403-2.789,1.213-3.656
		c0.809-0.867,1.856-1.301,3.146-1.301c1.248,0,2.269,0.424,3.06,1.273c0.791,0.849,1.187,2.045,1.187,3.586
		c0,0.094-0.003,0.234-0.009,0.422h-6.961c0.059,1.025,0.349,1.811,0.869,2.355c0.521,0.543,1.172,0.817,1.951,0.817
		c0.58,0,1.075-0.151,1.485-0.457C365.406,70.445,365.732,69.961,365.973,69.293z M360.777,66.734h5.213
		c-0.07-0.785-0.27-1.373-0.598-1.767c-0.504-0.608-1.158-0.913-1.961-0.913c-0.727,0-1.336,0.241-1.832,0.729
		C361.105,65.27,360.831,65.92,360.777,66.734z"/>
	<path fill="#F1D3E3" d="M375.648,72.299v-1.178c-0.592,0.926-1.461,1.389-2.609,1.389c-0.744,0-1.428-0.205-2.053-0.615
		c-0.623-0.41-1.107-0.981-1.449-1.719c-0.344-0.734-0.516-1.58-0.516-2.535c0-0.932,0.155-1.776,0.467-2.535
		c0.311-0.76,0.775-1.342,1.396-1.746c0.621-0.403,1.315-0.604,2.083-0.604c0.563,0,1.063,0.119,1.503,0.354
		c0.439,0.238,0.797,0.548,1.072,0.929v-4.623h1.573V72.3L375.648,72.299L375.648,72.299z M370.648,67.641
		c0,1.195,0.252,2.088,0.756,2.68c0.504,0.593,1.099,0.89,1.783,0.89c0.691,0,1.278-0.283,1.764-0.849
		c0.482-0.565,0.725-1.43,0.725-2.59c0-1.276-0.246-2.215-0.738-2.813s-1.099-0.896-1.818-0.896c-0.703,0-1.29,0.287-1.764,0.861
		C370.885,65.498,370.648,66.404,370.648,67.641z"/>
	<path fill="#F1D3E3" d="M379.613,61.232v-1.818h1.582v1.818H379.613z M379.613,72.299v-9.334h1.582v9.334H379.613z"/>
	<path fill="#F1D3E3" d="M389.693,71.146c-0.586,0.498-1.148,0.85-1.691,1.055c-0.541,0.205-1.123,0.309-1.744,0.309
		c-1.025,0-1.813-0.25-2.363-0.752c-0.552-0.5-0.826-1.141-0.826-1.92c0-0.457,0.104-0.875,0.312-1.252
		c0.209-0.379,0.479-0.682,0.818-0.91c0.336-0.229,0.716-0.402,1.138-0.52c0.311-0.082,0.779-0.16,1.406-0.236
		c1.277-0.152,2.218-0.334,2.82-0.545c0.006-0.217,0.01-0.355,0.01-0.414c0-0.645-0.149-1.098-0.448-1.361
		c-0.403-0.356-1.005-0.537-1.802-0.537c-0.744,0-1.295,0.131-1.647,0.394c-0.354,0.26-0.616,0.721-0.786,1.383l-1.548-0.211
		c0.142-0.662,0.372-1.194,0.694-1.604c0.322-0.405,0.788-0.721,1.396-0.938c0.609-0.221,1.315-0.33,2.119-0.33
		c0.797,0,1.443,0.095,1.941,0.281s0.863,0.424,1.099,0.707c0.234,0.284,0.398,0.643,0.492,1.075
		c0.054,0.271,0.079,0.757,0.079,1.459v2.109c0,1.471,0.033,2.402,0.102,2.791c0.066,0.391,0.2,0.764,0.399,1.121h-1.651
		C389.848,71.971,389.741,71.586,389.693,71.146z M389.563,67.613c-0.574,0.234-1.436,0.434-2.584,0.598
		c-0.649,0.094-1.109,0.199-1.379,0.316c-0.271,0.117-0.479,0.289-0.625,0.516c-0.146,0.225-0.22,0.475-0.22,0.75
		c0,0.422,0.159,0.773,0.479,1.055c0.317,0.281,0.785,0.422,1.4,0.422c0.609,0,1.151-0.133,1.626-0.397
		c0.476-0.269,0.823-0.633,1.046-1.097c0.17-0.356,0.256-0.885,0.256-1.582V67.613L389.563,67.613z"/>
</g>
<g>
	<path fill="#6AC34E" d="M87.026,49.535c0.055,1.36,0.424,2.336,1.107,2.928c0.683,0.59,1.853,0.887,3.506,0.887
		c0.561,0,1.224-0.096,1.989-0.287s1.299-0.361,1.6-0.514h0.778v5.396c-0.766,0.178-1.596,0.334-2.491,0.471
		c-0.895,0.135-2.266,0.203-4.11,0.203c-1.627,0-3.045-0.201-4.255-0.604s-2.218-0.975-3.024-1.713
		c-0.793-0.725-1.388-1.578-1.783-2.563c-0.397-0.984-0.629-2.078-0.697-3.282c-4.566-0.26-8.123-1.786-10.673-4.583
		c-2.549-2.795-3.823-6.538-3.823-11.226c0-4.907,1.394-8.786,4.183-11.636c2.788-2.85,6.636-4.275,11.543-4.275
		c4.894,0,8.742,1.425,11.544,4.275c2.802,2.85,4.203,6.729,4.203,11.636c0,3.623-0.82,6.75-2.46,9.38
		C92.521,46.662,90.144,48.497,87.026,49.535z M86.186,42.38c0.766-0.929,1.333-2.026,1.702-3.291
		c0.369-1.264,0.554-2.75,0.554-4.459c0-1.832-0.212-3.39-0.636-4.675c-0.424-1.285-0.978-2.324-1.661-3.117
		c-0.696-0.82-1.5-1.415-2.409-1.784c-0.909-0.369-1.855-0.554-2.84-0.554c-0.997,0-1.938,0.178-2.818,0.533
		c-0.882,0.355-1.692,0.943-2.431,1.763c-0.684,0.766-1.24,1.822-1.671,3.168c-0.431,1.347-0.646,2.908-0.646,4.685
		c0,1.818,0.208,3.366,0.625,4.644c0.417,1.278,0.967,2.321,1.651,3.127c0.683,0.807,1.482,1.401,2.398,1.784
		c0.916,0.383,1.879,0.574,2.891,0.574s1.976-0.195,2.892-0.584C84.702,43.805,85.502,43.2,86.186,42.38z"/>
	<path fill="#6AC34E" d="M125.164,49.906h-7.402v-2.543c-1.365,1.039-2.614,1.829-3.747,2.368c-1.133,0.54-2.484,0.811-4.055,0.811
		c-2.539,0-4.495-0.731-5.867-2.194c-1.371-1.463-2.058-3.623-2.058-6.479V26.879h7.402V38.3c0,1.162,0.037,2.129,0.112,2.901
		c0.075,0.772,0.25,1.412,0.523,1.917c0.259,0.506,0.652,0.875,1.179,1.107c0.526,0.233,1.261,0.349,2.204,0.349
		c0.629,0,1.326-0.116,2.092-0.349c0.765-0.232,1.503-0.574,2.214-1.025V26.879h7.402L125.164,49.906L125.164,49.906z"/>
	<path fill="#6AC34E" d="M139.742,23.598h-7.813v-5.597h7.813V23.598z M139.537,49.906h-7.402V26.879h7.402V49.906z"/>
	<path fill="#6AC34E" d="M166.355,49.906h-21.631v-4.736l12.122-12.897h-11.63v-5.393h20.913v4.654l-11.935,12.876h12.16
		L166.355,49.906L166.355,49.906z"/>
	<path fill="#6AC34E" d="M181.929,41.764l5.254-14.885h7.592l-12.796,31.472h-8.012l3.661-8.623l-8.956-22.85h7.752L181.929,41.764z
		"/>
	<path fill="#6AC34E" d="M210.87,50.52c-2.011,0-3.845-0.239-5.505-0.717c-1.661-0.479-3.106-1.216-4.338-2.214
		c-1.216-0.998-2.159-2.255-2.829-3.773c-0.67-1.517-1.004-3.294-1.004-5.331c0-2.146,0.358-3.999,1.076-5.557
		c0.718-1.559,1.719-2.85,3.003-3.875c1.244-0.97,2.68-1.681,4.307-2.132c1.627-0.451,3.314-0.677,5.064-0.677
		c1.57,0,3.021,0.171,4.347,0.513c1.325,0.342,2.563,0.786,3.711,1.333v6.294h-1.044c-0.286-0.246-0.631-0.533-1.034-0.861
		c-0.401-0.328-0.897-0.649-1.483-0.964c-0.561-0.301-1.175-0.55-1.843-0.749c-0.669-0.198-1.446-0.297-2.334-0.297
		c-1.966,0-3.478,0.625-4.534,1.876c-1.06,1.25-1.588,2.949-1.588,5.095c0,2.214,0.543,3.896,1.628,5.044s2.624,1.722,4.616,1.722
		c0.93,0,1.766-0.106,2.508-0.318c0.744-0.212,1.362-0.461,1.854-0.749c0.464-0.273,0.872-0.56,1.229-0.861
		c0.354-0.301,0.683-0.595,0.982-0.882h1.044v6.294c-1.162,0.548-2.375,0.981-3.639,1.302C213.799,50.359,212.4,50.52,210.87,50.52z
		"/>
	<path fill="#6AC34E" d="M230.984,49.906h-7.402V18.001h7.402V49.906z"/>
	<path fill="#6AC34E" d="M261.475,38.402c0,3.786-1.104,6.77-3.313,8.95c-2.208,2.181-5.309,3.271-9.299,3.271
		c-3.991,0-7.092-1.09-9.299-3.271c-2.207-2.18-3.312-5.164-3.312-8.95c0-3.814,1.11-6.808,3.331-8.981
		c2.223-2.173,5.314-3.26,9.277-3.26c4.02,0,7.125,1.094,9.32,3.281C260.376,31.629,261.475,34.616,261.475,38.402z M252.391,43.999
		c0.479-0.587,0.838-1.295,1.076-2.122c0.238-0.827,0.358-1.972,0.358-3.434c0-1.354-0.123-2.488-0.369-3.404
		s-0.588-1.647-1.024-2.194c-0.438-0.561-0.964-0.957-1.578-1.189c-0.615-0.232-1.278-0.349-1.989-0.349
		c-0.712,0-1.343,0.096-1.896,0.287c-0.554,0.192-1.083,0.574-1.589,1.148c-0.451,0.533-0.811,1.265-1.076,2.194
		c-0.267,0.93-0.4,2.099-0.4,3.506c0,1.257,0.117,2.348,0.35,3.271c0.232,0.923,0.574,1.665,1.025,2.225
		c0.438,0.533,0.959,0.923,1.567,1.169c0.608,0.246,1.302,0.369,2.081,0.369c0.67,0,1.309-0.113,1.917-0.338
		S251.966,44.533,252.391,43.999z"/>
	<path fill="#6AC34E" d="M290.794,38.074c0,1.9-0.291,3.629-0.871,5.188c-0.58,1.558-1.341,2.843-2.282,3.854
		c-0.982,1.066-2.097,1.873-3.339,2.418c-1.241,0.547-2.573,0.82-3.993,0.82c-1.311,0-2.424-0.141-3.338-0.421
		c-0.914-0.278-1.851-0.673-2.806-1.179v9.596h-7.401V26.879h7.401v2.399c1.133-0.902,2.29-1.633,3.471-2.194
		c1.181-0.56,2.544-0.841,4.087-0.841c2.865,0,5.096,1.053,6.686,3.158S290.794,34.397,290.794,38.074z M283.188,38.228
		c0-2.238-0.383-3.862-1.146-4.872c-0.764-1.01-1.971-1.515-3.621-1.515c-0.695,0-1.412,0.106-2.148,0.317
		c-0.735,0.211-1.438,0.515-2.105,0.911v11.566c0.49,0.191,1.016,0.314,1.575,0.369c0.559,0.054,1.11,0.082,1.657,0.082
		c1.949,0,3.401-0.57,4.356-1.709C282.709,42.238,283.188,40.521,283.188,38.228z"/>
	<path fill="#6AC34E" d="M318.802,39.755h-16.896c0.109,1.804,0.796,3.185,2.061,4.142c1.266,0.957,3.127,1.436,5.588,1.436
		c1.559,0,3.068-0.28,4.531-0.841c1.462-0.56,2.617-1.162,3.465-1.804h0.82v5.926c-1.668,0.668-3.239,1.155-4.716,1.456
		c-1.478,0.301-3.11,0.452-4.9,0.452c-4.621,0-8.161-1.04-10.621-3.117c-2.461-2.078-3.69-5.037-3.69-8.878
		c0-3.8,1.166-6.811,3.496-9.032s5.525-3.332,9.586-3.332c3.744,0,6.562,0.947,8.447,2.84c1.887,1.894,2.829,4.617,2.829,8.171
		V39.755z M311.461,35.429c-0.041-1.544-0.424-2.707-1.148-3.486c-0.724-0.779-1.852-1.168-3.383-1.168
		c-1.422,0-2.591,0.369-3.506,1.107c-0.916,0.738-1.429,1.921-1.538,3.547H311.461z"/>
	<path fill="#6AC34E" d="M346.4,49.906h-7.402v-2.399c-1.27,1.039-2.457,1.804-3.563,2.296s-2.383,0.739-3.83,0.739
		c-2.799,0-5.037-1.081-6.717-3.241s-2.519-5.071-2.519-8.734c0-1.955,0.282-3.688,0.85-5.198s1.341-2.806,2.324-3.886
		c0.929-1.025,2.056-1.821,3.379-2.389c1.324-0.567,2.647-0.851,3.974-0.851c1.379,0,2.508,0.147,3.39,0.441
		c0.88,0.294,1.784,0.667,2.713,1.118V18h7.401V49.906L346.4,49.906z M338.998,43.567V32.252c-0.518-0.219-1.063-0.376-1.637-0.472
		c-0.572-0.096-1.098-0.144-1.574-0.144c-1.938,0-3.391,0.606-4.357,1.817c-0.969,1.212-1.453,2.892-1.453,5.042
		c0,2.259,0.39,3.898,1.166,4.918c0.777,1.02,2.025,1.53,3.744,1.53c0.668,0,1.377-0.126,2.127-0.38S338.426,43.977,338.998,43.567z
		"/>
	<path fill="#6AC34E" d="M360.979,23.598h-7.813v-5.597h7.813V23.598z M360.773,49.906h-7.402V26.879h7.402V49.906z"/>
	<path fill="#6AC34E" d="M381.667,47.465c-0.397,0.301-0.89,0.663-1.478,1.087s-1.142,0.758-1.66,1.004
		c-0.725,0.328-1.478,0.57-2.256,0.729c-0.778,0.156-1.633,0.235-2.563,0.235c-2.188,0-4.02-0.676-5.495-2.029
		c-1.476-1.354-2.214-3.083-2.214-5.188c0-1.682,0.375-3.055,1.127-4.122c0.752-1.066,1.818-1.907,3.199-2.522
		c1.365-0.615,3.063-1.052,5.085-1.312s4.121-0.451,6.295-0.574v-0.123c0-1.271-0.521-2.149-1.56-2.635
		c-1.039-0.485-2.569-0.728-4.592-0.728c-1.218,0-2.517,0.215-3.896,0.646c-1.381,0.431-2.372,0.762-2.975,0.995h-0.676V27.37
		c0.778-0.205,2.047-0.448,3.803-0.728c1.756-0.28,3.518-0.42,5.279-0.42c4.196,0,7.229,0.646,9.094,1.938
		c1.867,1.292,2.799,3.318,2.799,6.079v15.665h-7.318L381.667,47.465L381.667,47.465z M381.667,43.882v-4.783
		c-0.998,0.082-2.078,0.195-3.24,0.337c-1.161,0.143-2.044,0.31-2.645,0.501c-0.738,0.231-1.304,0.569-1.691,1.012
		c-0.39,0.443-0.585,1.025-0.585,1.747c0,0.477,0.041,0.865,0.123,1.166c0.082,0.3,0.287,0.586,0.615,0.858
		c0.314,0.273,0.689,0.474,1.128,0.603s1.12,0.194,2.05,0.194c0.738,0,1.487-0.15,2.245-0.45
		C380.426,44.767,381.093,44.372,381.667,43.882z"/>
</g>
</svg>
