<?xml version="1.0" encoding="utf-8"?>
<!-- Generator: Adobe Illustrator 16.0.0, SVG Export Plug-In . SVG Version: 6.00 Build 0)  -->
<!DOCTYPE svg PUBLIC "-//W3C//DTD SVG 1.1//EN" "http://www.w3.org/Graphics/SVG/1.1/DTD/svg11.dtd">
<svg version="1.1" id="Layer_1" xmlns="http://www.w3.org/2000/svg" xmlns:xlink="http://www.w3.org/1999/xlink" x="0px" y="0px"
	 width="300px" height="300px" viewBox="0 0 300 300" enable-background="new 0 0 300 300" xml:space="preserve">
<g>
	<path fill="#737373" d="M42.506,23.422l-0.12,0.014l-0.92,0.211l-0.223,235.613l192.299,33.651l0.752,0.14V7.717L42.506,23.422z
		 M210.866,280.614c-5.258-0.091-9.513-4.584-9.513-10.04c0-5.445,4.271-9.777,9.538-9.681c5.255,0.098,9.526,4.583,9.516,10.031
		C220.407,276.362,216.136,280.715,210.866,280.614z"/>
	<path fill="#C3B799" d="M234.34,291.253l-19.222-252.25L42.52,23.422l-0.123,0.014l-2.151,0.183l-0.191,241.008l1.269-0.273
		l192.23,28.559l0.786,0.108l0.131,0.031L234.34,291.253z M220.407,270.925c0,5.438-4.271,9.79-9.541,9.689
		c-5.258-0.091-9.513-4.584-9.513-10.04c0-5.445,4.271-9.777,9.538-9.681C216.146,260.991,220.418,265.468,220.407,270.925z"/>
	<g>
		<path fill="#503800" stroke="#6A4A00" stroke-width="1.2514" stroke-miterlimit="10" d="M192.229,162.729
			c0,19.764-5.945,37.798-15.737,51.465c-1.054-0.767-2.138-1.519-3.243-2.274c-0.436-0.29-0.85-0.575-1.273-0.874
			c-0.106-0.083-0.2-0.146-0.282-0.191c-0.553-0.465-1.069-0.955-1.576-1.468c-0.089-0.088-0.16-0.15-0.223-0.202
			c-0.046-0.085-0.097-0.162-0.137-0.247c-0.108-0.271-0.481-1.053-0.584-1.426c-0.031-0.114-0.054-0.211-0.086-0.293
			c0-0.143-0.009-0.331-0.022-0.562c-0.065-1.081,0.022-2.175,0.094-3.261c0.163-2.371-0.675-4.577-2.095-6.35
			c5.051-10.315,7.963-22.477,7.963-35.492c0-37.353-23.981-67.641-53.569-67.641c-24.505,0-45.161,20.77-51.533,49.125
			c6.984-33.229,31.262-57.732,60.137-57.732C164.396,85.307,192.229,119.969,192.229,162.729z"/>
		<path fill="#A69266" stroke="#A69266" stroke-width="1.2514" stroke-miterlimit="10" d="M171.375,238.438
			c-0.384-0.661-0.767-1.312-1.202-1.941c-0.194-0.19-1.043-1.216-1.163-1.336c-0.63-0.624-1.248-1.248-1.932-1.821
			c-0.234-0.202-0.391-0.336-0.508-0.424c-0.003-0.009-0.003-0.009-0.011-0.012c-1.633-1.18-3.306-2.307-4.95-3.466
			c-9.239,6.812-20.032,10.71-31.551,10.71c-34.341,0-62.175-34.66-62.175-77.419c0-0.174,0-0.337,0.009-0.51
			c0.285,37.059,24.158,66.981,53.56,66.981c10.847,0,20.938-4.071,29.365-11.064c6.56-5.438,12.128-12.648,16.246-21.09
			c1.429,1.772,2.258,3.979,2.095,6.35c-0.071,1.086-0.159,2.18-0.094,3.261c0.014,0.23,0.022,0.419,0.022,0.562
			c0.032,0.091,0.055,0.179,0.086,0.293c0.103,0.373,0.476,1.154,0.584,1.426c0.04,0.085,0.091,0.162,0.137,0.247
			c0.063,0.052,0.134,0.114,0.223,0.202c0.507,0.513,1.023,1.003,1.576,1.468c0.082,0.046,0.168,0.108,0.282,0.191
			c0.424,0.299,0.838,0.584,1.273,0.874c1.105,0.756,2.189,1.508,3.243,2.274c5.178,3.751,9.792,7.863,13.123,13.594
			C196.472,239.58,178.222,250.199,171.375,238.438z"/>
		<path fill="#FFFFFF" stroke="#000000" stroke-width="1.2514" stroke-miterlimit="10" d="M69.796,143.643
			c-1.211,5.951-1.873,12.169-1.903,18.576c-0.009-0.22-0.009-0.441-0.009-0.665C67.883,155.355,68.547,149.343,69.796,143.643z"/>
	</g>
	<g>
		<path fill="#12B72F" d="M156.297,121.249v6.25c0,2.454-0.795,4.537-2.397,6.256l-49.364,53.055h44.637
			c1.935,0,3.58,0.747,4.933,2.254c1.354,1.502,2.033,3.323,2.033,5.47c0,2.146-0.68,3.973-2.033,5.468
			c-1.345,1.508-2.993,2.261-4.922,2.261H93.244c-1.986,0-3.667-0.753-5.041-2.261c-1.379-1.495-2.075-3.322-2.075-5.468v-6.62
			c0-2.209,1.24-4.654,3.725-7.356l48.348-51.585H96.479c-1.935,0-3.577-0.769-4.925-2.3c-1.356-1.53-2.032-3.402-2.032-5.608
			c0-2.023,0.687-3.815,2.066-5.377c1.376-1.564,3.012-2.349,4.884-2.349h52.881c1.927,0,3.57,0.784,4.92,2.349
			C155.625,117.248,156.297,119.1,156.297,121.249z"/>
	</g>
</g>
</svg>
