<?xml version="1.0" encoding="utf-8"?>
<!-- Generator: Adobe Illustrator 16.0.0, SVG Export Plug-In . SVG Version: 6.00 Build 0)  -->
<!DOCTYPE svg PUBLIC "-//W3C//DTD SVG 1.1//EN" "http://www.w3.org/Graphics/SVG/1.1/DTD/svg11.dtd">
<svg version="1.1" id="Layer_1" xmlns="http://www.w3.org/2000/svg" xmlns:xlink="http://www.w3.org/1999/xlink" x="0px" y="0px"
	 width="300px" height="300px" viewBox="0 0 300 300" enable-background="new 0 0 300 300" xml:space="preserve">
<g>
	
		<polygon fill-rule="evenodd" clip-rule="evenodd" fill="#FFFD00" stroke="#FFFD00" stroke-width="1.0496" stroke-miterlimit="10" points="
		7.858,114.147 63.144,112.392 56.847,102.953 64.194,101.551 56.847,93.504 77.839,91.755 39.352,53.276 86.237,72.868 
		87.289,61.323 98.483,65.174 98.483,49.781 113.183,58.523 102.338,18.996 134.525,57.127 137.324,41.381 149.221,50.83 
		149.924,38.935 157.97,42.783 167.763,13.398 176.513,56.427 187.708,50.83 190.508,63.419 198.906,55.372 204.154,64.474 
		252.793,26.689 255.066,25.988 225.15,74.616 237.4,70.064 235.647,77.764 249.643,73.916 234.25,98.053 300.73,83.361 
		304.23,83.008 255.066,116.243 277.636,121.139 279.737,123.589 263.287,129.187 266.438,133.034 260.494,136.88 269.938,141.429 
		269.938,144.927 255.066,148.774 299.335,170.466 299.686,174.311 243.699,169.765 252.092,183.757 249.643,186.206 
		242.299,184.804 247.545,192.504 247.193,197.403 262.242,213.494 259.443,216.291 225.501,203.694 223.755,210.346 
		221.649,213.494 224.45,220.486 222.351,223.984 210.806,218.74 213.605,275.761 213.251,278.554 211.856,279.255 183.863,223.984 
		181.411,223.283 179.663,234.134 175.468,234.828 170.213,231.33 168.814,235.879 163.569,234.134 160.069,229.233 
		155.171,264.563 153.074,265.61 149.221,261.769 145.721,235.879 142.221,234.828 141.869,237.976 136.974,235.179 
		134.875,224.338 133.477,223.984 130.678,225.038 128.926,229.581 125.081,229.935 122.275,226.087 120.881,222.936 
		118.782,223.637 85.189,286.601 80.288,285.553 80.988,280.303 100.583,218.04 98.134,215.59 94.633,217.692 88.334,222.235 
		84.139,221.888 85.888,208.592 80.288,211.041 78.189,212.442 75.039,211.041 78.539,202.3 68.389,206.843 65.596,204.749 
		72.59,190.754 69.09,189.356 23.608,196.703 20.452,193.198 58.595,172.214 55.796,170.813 51.594,170.466 51.594,165.569 
		56.847,163.12 55.796,161.021 52.296,160.319 51.945,156.475 54.744,154.376 42.151,152.974 52.646,143.178 48.101,140.728 
		47.046,137.934 59.996,129.534 10.308,118.69 	"/>
	<polygon fill-rule="evenodd" clip-rule="evenodd" fill="#1500A9" points="30.797,121.593 76.68,120.168 71.456,112.503 
		77.55,111.362 71.456,104.829 88.878,103.412 56.933,72.167 95.85,88.071 96.72,78.7 106.014,81.82 106.014,69.323 118.205,76.421 
		109.205,44.324 135.92,75.286 138.241,62.507 148.116,70.176 148.695,60.517 155.378,63.643 163.509,39.781 170.771,74.722 
		180.055,70.176 182.383,80.403 189.354,73.866 193.708,81.256 234.075,50.575 235.96,50.004 211.131,89.489 221.294,85.798 
		219.845,92.05 231.463,88.924 218.683,108.525 273.855,96.596 276.764,96.311 235.96,123.295 254.691,127.273 256.433,129.264 
		242.786,133.807 245.397,136.932 240.465,140.052 248.299,143.748 248.299,146.585 235.96,149.711 272.695,167.324 272.986,170.45 
		226.523,166.757 233.496,178.119 231.463,180.109 225.363,178.972 229.721,185.223 229.425,189.195 241.917,202.269 
		239.588,204.535 211.427,194.312 209.971,199.71 208.229,202.269 210.557,207.943 208.808,210.786 199.228,206.525 
		201.551,252.832 201.257,255.105 200.098,255.669 176.862,210.786 174.837,210.217 173.382,219.028 169.896,219.594 
		165.547,216.75 164.378,220.446 160.024,219.028 157.12,215.047 153.055,243.737 151.313,244.593 148.116,241.467 145.214,220.446 
		142.313,219.594 142.017,222.148 137.952,219.876 136.21,211.068 135.051,210.786 132.729,211.64 131.276,215.333 128.079,215.615 
		125.757,212.496 124.598,209.94 122.855,210.505 94.974,261.633 90.909,260.786 91.489,256.522 107.752,205.962 105.717,203.971 
		102.815,205.674 97.586,209.369 94.102,209.081 95.554,198.29 90.909,200.275 89.168,201.41 86.55,200.275 89.457,193.177 
		81.036,196.866 78.708,195.164 84.521,183.8 81.616,182.661 43.861,188.624 41.25,185.787 72.905,168.747 70.584,167.613 
		67.096,167.324 67.096,163.349 71.456,161.361 70.584,159.653 67.675,159.088 67.385,155.963 69.714,154.261 59.254,153.119 
		67.965,145.168 64.194,143.178 63.315,140.905 74.067,134.089 32.829,125.286 	"/>
	<path fill-rule="evenodd" clip-rule="evenodd" fill="none" stroke="#FFFD00" stroke-width="4.1983" stroke-miterlimit="10" d="
		M210.98,141.082c0,31.297-26.317,56.668-58.785,56.668c-32.465,0-58.781-25.371-58.781-56.668
		c0-31.301,26.316-56.672,58.781-56.672C184.663,84.409,210.98,109.781,210.98,141.082z"/>
	<g>
		<path fill="#FFFD00" d="M126.537,177.88l-4.197,6.158l2.301,1.568l-0.562,0.824l-5.536-3.773l0.562-0.823l2.312,1.574l4.197-6.158
			L126.537,177.88z"/>
		<path fill="#FFFD00" d="M122.773,175.242l-5.905,6.043l-0.8-0.781l2.425-2.481l-3.144-3.069l-2.425,2.48l-0.8-0.781l5.905-6.044
			l0.8,0.781l-2.783,2.849l3.143,3.07l2.783-2.849L122.773,175.242z"/>
		<path fill="#FFFD00" d="M117.172,169.555l-6.922,4.847l-3.506-5.006l0.816-0.571l2.865,4.089l2.12-1.483l-2.683-3.83l0.813-0.568
			l2.682,3.83l2.356-1.65l-2.977-4.249l0.816-0.572L117.172,169.555z"/>
		<path fill="#FFFD00" d="M111.109,159.498l-7.297,4.815l-0.365-1.088l4.842-2.981c0.507-0.315,1.016-0.612,1.525-0.889
			c-0.925,0.083-1.459,0.129-1.602,0.137l-5.922,0.291l-0.43-1.278l3.669-2.509c0.909-0.625,1.784-1.15,2.627-1.576
			c-0.541,0.069-1.167,0.131-1.877,0.188l-5.57,0.471l-0.358-1.065l8.75-0.493l0.343,1.022l-5.536,3.738
			c-0.463,0.313-0.748,0.502-0.855,0.566c0.396-0.039,0.736-0.066,1.019-0.081l6.675-0.349L111.109,159.498z"/>
		<path fill="#FFFD00" d="M108.522,150.83l-8.4,0.915l-0.662-6.075l0.991-0.109l0.541,4.964l2.573-0.28l-0.507-4.648l0.985-0.107
			l0.507,4.648l2.859-0.311l-0.563-5.159l0.992-0.107L108.522,150.83z"/>
		<path fill="#FFFD00" d="M105.11,143.705l-0.021-1.06c0.426-0.02,0.779-0.112,1.063-0.276c0.282-0.164,0.521-0.432,0.713-0.804
			c0.193-0.372,0.307-0.797,0.339-1.277c0.029-0.424-0.009-0.805-0.112-1.139c-0.104-0.334-0.262-0.59-0.471-0.763
			c-0.21-0.175-0.445-0.271-0.706-0.288c-0.265-0.019-0.501,0.042-0.708,0.183c-0.209,0.139-0.391,0.381-0.549,0.725
			c-0.104,0.22-0.275,0.711-0.515,1.473c-0.239,0.762-0.451,1.292-0.638,1.591c-0.238,0.389-0.521,0.671-0.846,0.848
			c-0.327,0.175-0.684,0.25-1.07,0.224c-0.426-0.03-0.815-0.177-1.169-0.444s-0.61-0.64-0.771-1.116
			c-0.159-0.478-0.221-1-0.182-1.567c0.043-0.625,0.182-1.169,0.415-1.633c0.234-0.464,0.556-0.811,0.964-1.04
			s0.861-0.338,1.357-0.323l0.007,1.076c-0.536,0.021-0.952,0.188-1.247,0.501c-0.295,0.312-0.465,0.793-0.509,1.44
			c-0.046,0.675,0.044,1.175,0.27,1.5c0.227,0.326,0.514,0.5,0.862,0.524c0.303,0.021,0.561-0.071,0.771-0.275
			c0.21-0.202,0.448-0.749,0.716-1.642c0.268-0.894,0.49-1.503,0.666-1.829c0.26-0.476,0.571-0.818,0.934-1.028
			c0.363-0.211,0.771-0.3,1.223-0.269c0.449,0.03,0.863,0.188,1.242,0.472c0.379,0.283,0.663,0.674,0.851,1.171
			c0.187,0.497,0.261,1.045,0.22,1.647c-0.053,0.762-0.208,1.395-0.465,1.895c-0.258,0.5-0.62,0.882-1.087,1.146
			C106.19,143.607,105.675,143.728,105.11,143.705z"/>
		<path fill="#FFFD00" d="M108.984,134.059l-7.252-1.72l-0.643,2.708l-0.971-0.23l1.547-6.516l0.971,0.229l-0.646,2.721l7.251,1.721
			L108.984,134.059z"/>
		<path fill="#FFFD00" d="M110.51,128.317l-6.234-6.564l0.52-1.087l9.116,0.511l-0.548,1.15l-2.734-0.211l-1.52,3.191l1.911,1.939
			L110.51,128.317z M108.426,124.624l1.232-2.586l-2.492-0.211c-0.758-0.063-1.372-0.134-1.84-0.212
			c0.441,0.33,0.863,0.699,1.261,1.106L108.426,124.624z"/>
		<path fill="#FFFD00" d="M114.252,120.798l-6.969-4.782l3.227-4.7l0.822,0.564l-2.594,3.777l2.158,1.482l2.245-3.271l0.822,0.565
			l-2.245,3.27l3.166,2.172L114.252,120.798z"/>
		<path fill="#FFFD00" d="M118.104,115.297l-6.103-5.847l2.591-2.706c0.521-0.543,0.973-0.904,1.354-1.081
			c0.381-0.179,0.791-0.219,1.23-0.124c0.44,0.098,0.828,0.307,1.164,0.627c0.434,0.415,0.664,0.905,0.692,1.469
			c0.028,0.566-0.198,1.179-0.679,1.841c0.308-0.115,0.564-0.181,0.771-0.196c0.442-0.028,0.927,0.007,1.454,0.106l2.678,0.531
			l-0.973,1.016l-2.044-0.41c-0.593-0.114-1.06-0.189-1.399-0.222s-0.607-0.027-0.801,0.02c-0.193,0.045-0.365,0.117-0.516,0.212
			c-0.106,0.074-0.26,0.213-0.459,0.422l-0.896,0.936l2.709,2.596L118.104,115.297z M115.468,111.223l1.663-1.737
			c0.354-0.368,0.592-0.694,0.715-0.975c0.123-0.282,0.152-0.557,0.088-0.825c-0.063-0.27-0.194-0.499-0.393-0.688
			c-0.287-0.277-0.625-0.398-1.012-0.368c-0.387,0.032-0.797,0.274-1.23,0.726l-1.851,1.932L115.468,111.223z"/>
		<path fill="#FFFD00" d="M124.053,109.474l-5.357-6.536l0.865-0.708l5.357,6.535L124.053,109.474z"/>
		<path fill="#FFFD00" d="M129.619,101.95l1.094-0.363c0.297,0.9,0.316,1.717,0.063,2.451s-0.753,1.338-1.495,1.811
			c-0.769,0.489-1.493,0.73-2.173,0.725c-0.682-0.006-1.336-0.226-1.965-0.66c-0.629-0.433-1.161-0.989-1.595-1.669
			c-0.473-0.743-0.743-1.48-0.812-2.213c-0.069-0.734,0.066-1.411,0.407-2.031s0.825-1.131,1.454-1.531
			c0.713-0.454,1.429-0.655,2.146-0.601c0.718,0.052,1.381,0.348,1.992,0.883l-0.789,0.812c-0.496-0.414-0.977-0.638-1.441-0.674
			c-0.465-0.037-0.936,0.096-1.412,0.399c-0.549,0.35-0.922,0.772-1.123,1.27c-0.201,0.496-0.235,1.014-0.102,1.55
			c0.133,0.538,0.349,1.042,0.648,1.512c0.385,0.605,0.811,1.079,1.275,1.418c0.465,0.34,0.955,0.502,1.471,0.488
			c0.516-0.014,0.99-0.159,1.424-0.436c0.529-0.336,0.879-0.774,1.051-1.312C129.912,103.242,129.871,102.632,129.619,101.95z"/>
		<path fill="#FFFD00" d="M132.138,103.845l-0.347-9.046l1.108-0.474l6.509,6.404l-1.172,0.502l-1.914-1.964l-3.248,1.392
			l0.154,2.717L132.138,103.845z M133.012,99.694l2.634-1.128l-1.732-1.804c-0.528-0.547-0.941-1.005-1.241-1.374
			c0.114,0.541,0.188,1.094,0.217,1.662L133.012,99.694z"/>
		<path fill="#FFFD00" d="M139.807,100.643l-2.019-8.206l1.114-0.273l5.896,5.382l-1.586-6.442l1.041-0.256l2.02,8.204l-1.113,0.274
			l-5.898-5.386l1.588,6.446L139.807,100.643z"/>
		<path fill="#FFFD00" d="M150.746,98.526l-0.061-8.45l6.111-0.042l0.008,0.997l-4.993,0.035l0.019,2.588l4.676-0.033l0.008,0.991
			l-4.677,0.032l0.021,2.877l5.189-0.036l0.007,0.996L150.746,98.526z"/>
		<path fill="#FFFD00" d="M157.27,98.449l3.911-3.844l-2.222-4.443l1.316,0.206l1.18,2.379c0.244,0.494,0.416,0.871,0.511,1.13
			c0.233-0.274,0.503-0.558,0.81-0.848l2.027-1.952l1.203,0.189l-3.551,3.475l2.47,4.908l-1.368-0.214l-1.635-3.307
			c-0.09-0.189-0.183-0.396-0.277-0.615c-0.232,0.274-0.398,0.461-0.496,0.563l-2.553,2.582L157.27,98.449z"/>
		<path fill="#FFFD00" d="M164.541,99.547l5.742-6.997l1.145,0.38l0.621,9.108l-1.209-0.402l-0.131-2.739l-3.354-1.113l-1.688,2.136
			L164.541,99.547z M167.949,97.021l2.719,0.902l-0.1-2.498c-0.032-0.76-0.037-1.377-0.018-1.853
			c-0.272,0.48-0.586,0.944-0.94,1.389L167.949,97.021z"/>
		<path fill="#FFFD00" d="M172.346,102.154l4.12-7.377l1.47,0.821l-1.171,6.2c-0.11,0.575-0.196,1.005-0.257,1.289
			c0.233-0.223,0.584-0.543,1.053-0.964l4.633-4.146l1.314,0.735l-4.12,7.376l-0.941-0.526l3.448-6.173l-5.593,4.976l-0.881-0.492
			l1.374-7.471l-3.508,6.279L172.346,102.154z"/>
		<path fill="#FFFD00" d="M180.568,107.162l5.135-6.709l0.888,0.679l-5.135,6.71L180.568,107.162z"/>
		<path fill="#FFFD00" d="M182.763,108.739l5.974-5.975l0.813,0.811l-1.551,7.83l4.69-4.692l0.758,0.759l-5.974,5.975l-0.812-0.811
			l1.555-7.833l-4.694,4.694L182.763,108.739z"/>
		<path fill="#FFFD00" d="M187.791,113.731l8.808-2.088l0.681,0.995l-5.024,7.623l-0.72-1.053l1.557-2.257l-1.994-2.917
			l-2.637,0.678L187.791,113.731z M192.031,113.787l1.617,2.365l1.435-2.048c0.435-0.623,0.805-1.118,1.108-1.485
			c-0.508,0.218-1.038,0.396-1.59,0.536L192.031,113.787z"/>
		<path fill="#FFFD00" d="M192.904,121.901l6.715-3.235l-1.209-2.509l0.897-0.434l2.909,6.036l-0.898,0.432l-1.213-2.518
			l-6.715,3.234L192.904,121.901z"/>
		<path fill="#FFFD00" d="M194.82,126.379l7.986-2.758l0.365,1.058l-7.986,2.758L194.82,126.379z"/>
		<path fill="#FFFD00" d="M199.779,127.774c1.377-0.265,2.527-0.104,3.449,0.485c0.922,0.589,1.496,1.467,1.723,2.637
			c0.148,0.766,0.1,1.493-0.148,2.179c-0.246,0.686-0.666,1.253-1.258,1.702c-0.593,0.449-1.304,0.754-2.133,0.915
			c-0.842,0.163-1.627,0.138-2.357-0.073c-0.73-0.21-1.326-0.595-1.787-1.151c-0.463-0.557-0.764-1.196-0.902-1.916
			c-0.152-0.781-0.098-1.516,0.16-2.204c0.259-0.688,0.683-1.254,1.273-1.697C198.391,128.209,199.051,127.917,199.779,127.774z
			 M199.98,128.911c-0.999,0.193-1.734,0.615-2.205,1.264c-0.473,0.649-0.629,1.379-0.473,2.189c0.16,0.827,0.582,1.45,1.268,1.873
			c0.684,0.421,1.56,0.528,2.627,0.322c0.676-0.131,1.244-0.358,1.703-0.685c0.46-0.325,0.785-0.735,0.977-1.228
			c0.193-0.493,0.236-1.013,0.131-1.561c-0.151-0.776-0.547-1.394-1.189-1.851C202.176,128.777,201.23,128.669,199.98,128.911z"/>
		<path fill="#FFFD00" d="M197.281,137.368l8.449,0.078l-0.01,1.147l-6.675,4.377l6.634,0.061l-0.01,1.072l-8.449-0.078l0.01-1.147
			l6.681-4.376l-6.64-0.062L197.281,137.368z"/>
		<path fill="#FFFD00" d="M197.876,154.985l-0.568,1.004c-0.823-0.468-1.388-1.062-1.692-1.774c-0.304-0.715-0.34-1.498-0.107-2.346
			c0.24-0.879,0.615-1.545,1.123-1.997c0.51-0.453,1.142-0.729,1.898-0.831c0.758-0.102,1.525-0.046,2.304,0.168
			c0.849,0.232,1.544,0.597,2.088,1.095c0.542,0.497,0.896,1.09,1.061,1.777c0.164,0.689,0.147,1.393-0.05,2.112
			c-0.223,0.814-0.618,1.444-1.186,1.886c-0.567,0.442-1.258,0.67-2.07,0.683l0.041-1.131c0.645-0.026,1.152-0.183,1.521-0.468
			c0.368-0.285,0.627-0.7,0.777-1.246c0.172-0.625,0.164-1.19-0.021-1.693s-0.507-0.908-0.966-1.218
			c-0.46-0.309-0.958-0.537-1.496-0.685c-0.692-0.189-1.326-0.254-1.898-0.194s-1.044,0.269-1.416,0.625
			c-0.373,0.356-0.627,0.782-0.764,1.28c-0.166,0.604-0.131,1.162,0.104,1.677C196.791,154.224,197.23,154.648,197.876,154.985z"/>
		<path fill="#FFFD00" d="M198.25,157.589c1.26,0.616,2.08,1.438,2.463,2.462c0.381,1.026,0.31,2.073-0.215,3.144
			c-0.342,0.7-0.818,1.25-1.43,1.648c-0.61,0.399-1.287,0.6-2.029,0.602c-0.744,0.002-1.496-0.184-2.254-0.555
			c-0.771-0.377-1.383-0.87-1.838-1.479c-0.455-0.607-0.701-1.272-0.734-1.996c-0.033-0.722,0.111-1.411,0.434-2.071
			c0.35-0.714,0.836-1.269,1.456-1.662s1.3-0.589,2.04-0.586C196.882,157.098,197.584,157.262,198.25,157.589z M197.728,158.615
			c-0.915-0.448-1.755-0.554-2.522-0.319c-0.768,0.233-1.333,0.721-1.696,1.464c-0.37,0.756-0.408,1.509-0.116,2.256
			c0.293,0.75,0.928,1.362,1.904,1.841c0.617,0.302,1.207,0.462,1.771,0.479c0.563,0.016,1.07-0.114,1.52-0.393
			c0.451-0.278,0.799-0.667,1.044-1.167c0.349-0.711,0.403-1.443,0.166-2.194C199.561,159.83,198.87,159.175,197.728,158.615z"/>
		<path fill="#FFFD00" d="M193.95,173.265l-0.668,0.896l-3.919-2.911c-0.682-0.507-1.166-0.986-1.453-1.438
			c-0.285-0.451-0.404-0.973-0.357-1.563c0.048-0.588,0.314-1.21,0.801-1.863c0.472-0.637,0.968-1.075,1.487-1.316
			c0.519-0.241,1.05-0.294,1.594-0.159c0.544,0.137,1.174,0.471,1.894,1.005l3.919,2.911l-0.667,0.897l-3.915-2.908
			c-0.589-0.438-1.063-0.705-1.425-0.803c-0.361-0.099-0.715-0.069-1.064,0.086c-0.35,0.153-0.668,0.424-0.954,0.81
			c-0.491,0.659-0.69,1.242-0.601,1.745c0.091,0.502,0.563,1.07,1.414,1.703L193.95,173.265z"/>
		<path fill="#FFFD00" d="M185.611,170.126l5.801,6.144l-0.834,0.788l-7.783-1.777l4.556,4.824l-0.78,0.736l-5.801-6.145
			l0.834-0.788l7.787,1.782l-4.561-4.829L185.611,170.126z"/>
		<path fill="#FFFD00" d="M176.274,181.356l-1.089,0.381c-0.311-0.897-0.344-1.713-0.102-2.451c0.243-0.738,0.732-1.35,1.467-1.834
			c0.761-0.501,1.481-0.755,2.162-0.76c0.68-0.004,1.339,0.205,1.975,0.629c0.636,0.422,1.176,0.97,1.62,1.645
			c0.484,0.733,0.767,1.468,0.847,2.2c0.08,0.731-0.045,1.409-0.375,2.036c-0.331,0.625-0.809,1.143-1.431,1.555
			c-0.706,0.465-1.417,0.677-2.136,0.635s-1.387-0.327-2.006-0.853l0.776-0.822c0.502,0.404,0.985,0.621,1.452,0.651
			c0.465,0.028,0.934-0.113,1.406-0.424c0.541-0.357,0.909-0.787,1.102-1.286c0.193-0.501,0.219-1.017,0.077-1.554
			c-0.142-0.535-0.365-1.035-0.672-1.5c-0.396-0.6-0.829-1.066-1.299-1.397c-0.47-0.332-0.962-0.487-1.478-0.465
			c-0.515,0.021-0.986,0.175-1.418,0.457c-0.521,0.346-0.865,0.789-1.029,1.329S176.012,180.678,176.274,181.356z"/>
		<path fill="#FFFD00" d="M172.571,179.937l3.796,7.549l-0.998,0.503l-3.797-7.55L172.571,179.937z"/>
		<path fill="#FFFD00" d="M170.102,181.188l3.047,7.881l-1.043,0.404l-2.688-6.952l-3.884,1.5l-0.359-0.93L170.102,181.188z"/>
	</g>
	<path fill-rule="evenodd" clip-rule="evenodd" fill="none" stroke="#FFFD00" stroke-width="2.8161" stroke-miterlimit="10" d="
		M192.759,141.082c0,20.408-18.163,36.951-40.563,36.951c-22.403,0-40.566-16.543-40.566-36.951
		c0-20.407,18.163-36.954,40.566-36.954C174.596,104.128,192.759,120.674,192.759,141.082z"/>
	<g>
		<path fill="#FFFD00" d="M143.437,120.187l1.957,14.47c2.662-2.047,4.399-3.666,5.211-4.854c0.811-1.188,1.216-2.181,1.216-2.979
			c0-0.302-0.088-0.604-0.264-0.907c-0.177-0.302-0.529-0.722-1.059-1.257c-0.528-0.536-0.829-0.873-0.899-1.01
			c-0.123-0.261-0.185-0.577-0.185-0.948c0-0.701,0.309-1.295,0.926-1.783s1.393-0.732,2.327-0.732s1.675,0.248,2.222,0.742
			c0.775,0.715,1.164,1.539,1.164,2.474c0,1.525-0.936,3.524-2.804,5.998c-1.869,2.474-6.136,5.964-12.801,10.471h-1.059
			l-1.64-12.656l-11.426,12.656h-1.137c0.265-3.82,0.396-7.393,0.396-10.718c0-2.171-0.15-3.738-0.449-4.7
			c-0.177-0.563-0.489-0.99-0.939-1.278c-0.449-0.289-0.938-0.433-1.468-0.433c-0.282,0-0.644,0.028-1.084,0.083v-0.763l9.098-1.876
			c0.494,1.072,0.829,2.082,1.005,3.03c0.3,1.457,0.45,3.154,0.45,5.091c0,0.687-0.036,1.731-0.105,3.133l10.235-11.254H143.437z"/>
		<path fill="#FFFD00" d="M182.209,120.476l-5.131,13.708l-0.528,1.669c-0.054,0.206-0.08,0.357-0.08,0.454
			c0,0.165,0.075,0.309,0.226,0.433c0.149,0.124,0.304,0.186,0.463,0.186c0.37,0,0.881-0.219,1.533-0.659
			c0.265-0.179,0.899-0.811,1.904-1.896l0.926,0.371c-1.252,1.786-2.588,3.088-4.007,3.906s-2.949,1.227-4.589,1.227
			c-1.005,0-1.771-0.203-2.301-0.608c-0.529-0.405-0.793-0.917-0.793-1.536c0-0.536,0.281-1.532,0.846-2.989l0.635-1.67
			c-2.045,2.735-4.012,4.672-5.897,5.813c-1.094,0.66-2.258,0.989-3.491,0.989c-1.623,0-2.795-0.519-3.518-1.556
			c-0.724-1.038-1.085-2.209-1.085-3.515c0-1.938,0.758-4.16,2.274-6.668s3.509-4.524,5.978-6.05
			c2.027-1.264,3.932-1.896,5.713-1.896c0.987,0,1.781,0.224,2.381,0.67c0.599,0.447,1.04,1.261,1.322,2.443l0.952-2.536
			L182.209,120.476z M173.746,124.392c0-1.113-0.221-1.917-0.661-2.412c-0.317-0.343-0.75-0.515-1.296-0.515
			c-0.547,0-1.111,0.206-1.693,0.618c-1.181,0.852-2.455,2.58-3.821,5.184c-1.367,2.604-2.05,4.854-2.05,6.75
			c0,0.729,0.154,1.254,0.463,1.577s0.647,0.484,1.019,0.484c0.793,0,1.595-0.357,2.406-1.072c1.164-1.017,2.213-2.26,3.147-3.73
			C172.917,128.693,173.746,126.398,173.746,124.392z"/>
	</g>
	<g>
		<path fill="#FFFD00" d="M149.617,152.094h-18.901c0.222,2.572,1.438,4.606,3.647,6.101c1.695,1.148,3.733,1.723,6.116,1.723
			c1.474,0,2.813-0.231,4.017-0.695c1.203-0.464,2.492-1.297,3.868-2.501l1.253,0.457c-1.867,2.145-3.931,3.663-6.189,4.555
			c-2.261,0.893-4.877,1.339-7.849,1.339c-5.108,0-8.978-1.106-11.605-3.32c-2.112-1.785-3.168-3.999-3.168-6.642
			c0-3.237,1.553-5.813,4.66-7.73c3.107-1.916,6.748-2.874,10.924-2.874c3.488,0,6.516,0.806,9.082,2.417
			C148.038,146.535,149.42,148.925,149.617,152.094z M140.554,150.703c0-2.228-0.216-3.756-0.646-4.586s-1.099-1.459-2.008-1.889
			c-0.516-0.249-1.203-0.374-2.063-0.374c-1.278,0-2.321,0.353-3.132,1.059c-1.45,1.231-2.174,2.919-2.174,5.063v0.727H140.554z"/>
		<path fill="#FFFD00" d="M182.04,157.489l1.142,0.498c-1.621,1.715-3.642,2.991-6.061,3.828c-2.42,0.837-4.992,1.256-7.719,1.256
			c-4.594,0-8.266-0.976-11.017-2.926c-2.751-1.951-4.126-4.296-4.126-7.036c0-2.642,1.253-4.966,3.758-6.973
			c3.021-2.421,7.185-3.631,12.49-3.631c3.561,0,6.393,0.505,8.492,1.515c2.101,1.01,3.15,2.138,3.15,3.383
			c0,0.789-0.424,1.418-1.271,1.889c-0.847,0.47-1.959,0.706-3.334,0.706c-1.449,0-2.647-0.27-3.593-0.81s-1.528-1.501-1.75-2.885
			c-0.147-0.872-0.503-1.48-1.068-1.826c-0.565-0.346-1.229-0.519-1.989-0.519c-1.179,0-2.187,0.353-3.021,1.058
			c-1.277,1.066-1.916,2.698-1.916,4.898c0,1.826,0.517,3.572,1.548,5.24c1.031,1.667,2.443,2.909,4.237,3.725
			c1.351,0.596,2.947,0.893,4.789,0.893c1.203,0,2.346-0.159,3.427-0.478C179.288,158.977,180.566,158.374,182.04,157.489z"/>
	</g>
</g>
</svg>
