<?xml version="1.0" encoding="utf-8"?>
<!-- Generator: Adobe Illustrator 16.0.0, SVG Export Plug-In . SVG Version: 6.00 Build 0)  -->
<!DOCTYPE svg PUBLIC "-//W3C//DTD SVG 1.1//EN" "http://www.w3.org/Graphics/SVG/1.1/DTD/svg11.dtd">
<svg version="1.1" id="Layer_1" xmlns="http://www.w3.org/2000/svg" xmlns:xlink="http://www.w3.org/1999/xlink" x="0px" y="0px"
	 width="300px" height="300px" viewBox="0 0 300 300" enable-background="new 0 0 300 300" xml:space="preserve">
<polygon fill="none" stroke="#000000" stroke-width="0.9422" stroke-miterlimit="10" points="69.919,139.307 13.223,78.455 
	68.742,20.772 125.438,81.625 "/>
<text transform="matrix(0.947 0 0 1 4.7344 76.9326)" font-family="'MyriadPro-Regular'" font-size="17.9814">3</text>
<text transform="matrix(0.947 0 0 1 61.2197 20.0557)" font-family="'MyriadPro-Regular'" font-size="17.9814">12</text>
<text transform="matrix(0.947 0 0 1 127.3384 83.146)" font-family="'MyriadPro-Regular'" font-size="17.9814">3</text>
<text transform="matrix(0.947 0 0 1 64.7061 153.3711)" font-family="'MyriadPro-Regular'" font-size="17.9814">5</text>
<polygon fill="none" stroke="#000000" stroke-width="0.9422" stroke-miterlimit="10" points="217.681,144.78 160.984,83.928 
	216.504,26.245 273.2,87.097 "/>
<text transform="matrix(0.947 0 0 1 152.4961 82.4053)" font-family="'MyriadPro-Regular'" font-size="17.9814">7</text>
<text transform="matrix(0.947 0 0 1 208.9814 25.5283)" font-family="'MyriadPro-Regular'" font-size="17.9814">26</text>
<text transform="matrix(0.947 0 0 1 275.0996 88.6187)" font-family="'MyriadPro-Regular'" font-size="17.9814">2</text>
<text transform="matrix(0.947 0 0 1 212.4678 158.8438)" font-family="'MyriadPro-Regular'" font-size="17.9814">4</text>
<polygon fill="none" stroke="#000000" stroke-width="0.9422" stroke-miterlimit="10" points="143.551,276.123 86.854,215.271 
	142.374,157.588 199.07,218.44 "/>
<text transform="matrix(0.947 0 0 1 78.3662 213.748)" font-family="'MyriadPro-Regular'" font-size="17.9814">2</text>
<text transform="matrix(0.947 0 0 1 134.8516 156.8711)" font-family="'MyriadPro-Regular'" font-size="17.9814">1</text>
<text transform="matrix(0.947 0 0 1 200.9707 219.9619)" font-family="'MyriadPro-Regular'" font-size="17.9814">5</text>
<text transform="matrix(0.947 0 0 1 138.3379 290.1865)" font-family="'MyriadPro-Regular'" font-size="17.9814">3</text>
</svg>
