<?xml version="1.0" encoding="utf-8"?>
<!-- Generator: Adobe Illustrator 16.0.0, SVG Export Plug-In . SVG Version: 6.00 Build 0)  -->
<!DOCTYPE svg PUBLIC "-//W3C//DTD SVG 1.1//EN" "http://www.w3.org/Graphics/SVG/1.1/DTD/svg11.dtd">
<svg version="1.1" id="Layer_1" xmlns="http://www.w3.org/2000/svg" xmlns:xlink="http://www.w3.org/1999/xlink" x="0px" y="0px"
	 width="300px" height="300px" viewBox="0 0 300 300" enable-background="new 0 0 300 300" xml:space="preserve">
<polygon fill="none" stroke="#000000" stroke-miterlimit="10" points="28,9 28,127 142.702,127 "/>
<text transform="matrix(0.9874 0 0 1 77.2378 62.0493)" font-family="'MyriadPro-Regular'" font-size="23.0992">169</text>
<text transform="matrix(0.9874 0 0 1 14.3281 82.4004)" font-family="'MyriadPro-Regular'" font-size="23.0992">4</text>
<text transform="matrix(0.9874 0 0 1 76.9736 144.9106)" font-family="'MyriadPro-Regular'" font-size="23.0992">9</text>
<polygon fill="none" stroke="#000000" stroke-miterlimit="10" points="168,9 168,127 282.702,127 "/>
<text transform="matrix(0.9874 0 0 1 217.2383 62.0493)" font-family="'MyriadPro-Regular'" font-size="23.0992">225</text>
<text transform="matrix(0.9874 0 0 1 154.3281 82.4004)" font-family="'MyriadPro-Regular'" font-size="23.0992">7</text>
<text transform="matrix(0.9874 0 0 1 216.9736 144.9106)" font-family="'MyriadPro-Regular'" font-size="23.0992">8</text>
<polygon fill="none" stroke="#000000" stroke-miterlimit="10" points="114,154 114,272 228.702,272 "/>
<text transform="matrix(0.9874 0 0 1 168.9375 207.0488)" font-family="'MyriadPro-Regular'" font-size="23.0992">4</text>
<text transform="matrix(0.9874 0 0 1 100.3281 227.4004)" font-family="'MyriadPro-Regular'" font-size="23.0992">1</text>
<text transform="matrix(0.9874 0 0 1 162.9736 289.9102)" font-family="'MyriadPro-Regular'" font-size="23.0992">1</text>
</svg>
