<?xml version="1.0" encoding="utf-8"?>
<!-- Generator: Adobe Illustrator 16.0.0, SVG Export Plug-In . SVG Version: 6.00 Build 0)  -->
<!DOCTYPE svg PUBLIC "-//W3C//DTD SVG 1.1//EN" "http://www.w3.org/Graphics/SVG/1.1/DTD/svg11.dtd">
<svg version="1.1" id="Layer_1" xmlns="http://www.w3.org/2000/svg" xmlns:xlink="http://www.w3.org/1999/xlink" x="0px" y="0px"
	 width="300px" height="300px" viewBox="0 0 300 300" enable-background="new 0 0 300 300" xml:space="preserve">
<rect x="72.155" y="73.79" transform="matrix(-0.7013 -0.7128 0.7128 -0.7013 150.6861 361.1496)" fill="none" stroke="#000000" stroke-width="1.7798" stroke-miterlimit="10" width="157.692" height="150.434"/>
<g enable-background="new    ">
	<path d="M10.747,115.134h-0.072l-4.067,2.195l-0.612-2.411l5.111-2.736h2.7v23.397h-3.06V115.134z"/>
	<path d="M24.571,126.004v-11.842h-0.072l-2.591,1.26l-0.396-1.872l3.383-1.584h2.196v14.038H24.571z"/>
	<path d="M29.467,137.019l10.043-26.097h2.448l-10.079,26.097H29.467z"/>
	<path d="M42.283,134.247l2.268-2.123c2.988-2.7,4.535-4.392,4.535-6.228c0-1.368-0.864-2.52-2.735-2.52
		c-1.26,0-2.34,0.647-3.024,1.115l-0.756-1.619c0.972-0.828,2.592-1.512,4.392-1.512c3.384,0,4.788,2.123,4.788,4.067
		c0,2.699-2.052,4.679-4.788,7.091l-1.116,1.008v0.072h6.155v1.979h-9.719V134.247z"/>
</g>
<g enable-background="new    ">
	<path d="M125.584,26.196l2.268-2.124c2.988-2.7,4.535-4.392,4.535-6.228c0-1.367-0.864-2.52-2.735-2.52
		c-1.26,0-2.34,0.648-3.024,1.116l-0.756-1.62c0.972-0.828,2.592-1.512,4.392-1.512c3.384,0,4.788,2.124,4.788,4.067
		c0,2.7-2.052,4.68-4.788,7.091l-1.116,1.008v0.072h6.155v1.979h-9.719V26.196z"/>
	<path d="M136.312,38.542l10.043-26.097h2.448l-10.079,26.097H136.312z"/>
	<path d="M158.342,25.044h-5.58l-0.467,3.06c0.287-0.036,0.647-0.072,1.115-0.072c1.188,0,2.376,0.217,3.312,0.792
		c1.116,0.612,2.017,1.872,2.017,3.636c0,2.771-2.269,4.823-5.616,4.823c-1.548,0-3.023-0.432-3.743-0.863l0.504-1.8
		c0.612,0.359,1.836,0.792,3.203,0.792c1.62,0,3.168-1.044,3.168-2.736c0-1.691-1.152-2.879-4.067-2.879
		c-0.828,0-1.512,0.107-2.052,0.144l0.936-6.875h7.271V25.044z"/>
</g>
<text transform="matrix(1 0 0 1 263.9385 155.5146)" font-family="'MyriadPro-Regular'" font-size="36">?</text>
<g enable-background="new    ">
	<path d="M140.051,275.951l2.268-2.124c2.988-2.7,4.535-4.392,4.535-6.228c0-1.367-0.864-2.52-2.735-2.52
		c-1.26,0-2.34,0.648-3.024,1.116l-0.756-1.62c0.972-0.828,2.592-1.512,4.392-1.512c3.384,0,4.788,2.124,4.788,4.067
		c0,2.7-2.052,4.68-4.788,7.091l-1.116,1.008v0.072h6.155v1.979h-9.719V275.951z"/>
	<path d="M150.779,288.297l10.043-26.097h2.447l-10.079,26.097H150.779z"/>
	<path d="M172.809,274.799h-5.579l-0.468,3.06c0.288-0.036,0.648-0.072,1.115-0.072c1.188,0,2.377,0.217,3.313,0.792
		c1.115,0.612,2.016,1.872,2.016,3.636c0,2.771-2.268,4.823-5.615,4.823c-1.548,0-3.023-0.432-3.744-0.863l0.504-1.8
		c0.612,0.359,1.836,0.792,3.204,0.792c1.62,0,3.167-1.044,3.167-2.736c0-1.691-1.151-2.879-4.066-2.879
		c-0.828,0-1.512,0.107-2.053,0.144l0.936-6.875h7.271V274.799z"/>
</g>
</svg>
