<?xml version="1.0" encoding="utf-8"?>
<!-- Generator: Adobe Illustrator 16.0.0, SVG Export Plug-In . SVG Version: 6.00 Build 0)  -->
<!DOCTYPE svg PUBLIC "-//W3C//DTD SVG 1.1//EN" "http://www.w3.org/Graphics/SVG/1.1/DTD/svg11.dtd">
<svg version="1.1" id="Layer_1" xmlns="http://www.w3.org/2000/svg" xmlns:xlink="http://www.w3.org/1999/xlink" x="0px" y="0px"
	 width="300px" height="300px" viewBox="0 0 300 300" enable-background="new 0 0 300 300" xml:space="preserve">
<circle fill="#FFFFFF" stroke="#000000" stroke-miterlimit="10" cx="67.031" cy="52.188" r="41.624"/>
<circle fill="#FFFFFF" stroke="#000000" stroke-miterlimit="10" cx="192.029" cy="52.188" r="41.624"/>
<circle fill="#FFFFFF" stroke="#000000" stroke-miterlimit="10" cx="129.03" cy="242.188" r="41.624"/>
<line fill="none" stroke="#000000" stroke-miterlimit="10" x1="87.406" y1="88.491" x2="129.03" y2="132"/>
<line fill="none" stroke="#000000" stroke-miterlimit="10" x1="171.029" y1="88.491" x2="129.406" y2="132"/>
<line fill="none" stroke="#000000" stroke-miterlimit="10" x1="129.5" y1="132" x2="129.5" y2="201"/>
<g>
	<line fill="none" stroke="#000000" stroke-miterlimit="10" x1="95.995" y1="106.736" x2="108.655" y2="110.702"/>
	<line fill="none" stroke="#000000" stroke-miterlimit="10" x1="108.655" y1="110.702" x2="108.218" y2="100.137"/>
</g>
<g>
	<line fill="none" stroke="#000000" stroke-miterlimit="10" x1="162.654" y1="106.736" x2="149.995" y2="110.702"/>
	<line fill="none" stroke="#000000" stroke-miterlimit="10" x1="149.995" y1="110.702" x2="150.431" y2="100.137"/>
</g>
<text transform="matrix(1 0 0 1 54.8481 63.6045)" font-family="'MyriadPro-Regular'" font-size="30.2129">a</text>
<text transform="matrix(1 0 0 1 179.7217 63.6045)" font-family="'MyriadPro-Regular'" font-size="30.2129">b</text>
<text transform="matrix(1 0 0 1 119.3154 257.0059)" font-family="'MyriadPro-Regular'" font-size="30.2129">c</text>
<text transform="matrix(1 0 0 1 187.3652 118.9189)" font-family="'MyriadPro-Regular'" font-size="12">√a + √b = c</text>
<g enable-background="new    ">
	<path d="M191.455,140.746l-0.084-0.731h-0.036c-0.323,0.456-0.947,0.863-1.774,0.863c-1.176,0-1.775-0.827-1.775-1.667
		c0-1.403,1.247-2.171,3.49-2.159v-0.119c0-0.48-0.133-1.344-1.319-1.344c-0.54,0-1.104,0.168-1.511,0.432l-0.24-0.695
		c0.479-0.312,1.175-0.516,1.906-0.516c1.775,0,2.207,1.211,2.207,2.374v2.171c0,0.504,0.023,0.996,0.096,1.392H191.455z
		 M191.299,137.784c-1.151-0.024-2.459,0.18-2.459,1.307c0,0.684,0.457,1.008,0.996,1.008c0.756,0,1.235-0.479,1.403-0.972
		c0.036-0.107,0.06-0.228,0.06-0.336V137.784z"/>
	<path d="M196.173,136.704v-0.72h6.188v0.72H196.173z M196.173,139.055v-0.72h6.188v0.72H196.173z"/>
	<path d="M208.555,132.423c-0.875,1.175-1.511,2.734-1.511,4.905c0,2.135,0.659,3.67,1.511,4.869h-0.827
		c-0.756-0.995-1.571-2.53-1.571-4.869c0.012-2.363,0.815-3.898,1.571-4.905H208.555z"/>
	<path d="M213.811,140.53c-0.276,0.144-0.888,0.336-1.668,0.336c-1.75,0-2.891-1.188-2.891-2.963c0-1.787,1.225-3.082,3.119-3.082
		c0.623,0,1.176,0.156,1.463,0.3l-0.24,0.815c-0.252-0.144-0.646-0.275-1.223-0.275c-1.332,0-2.051,0.983-2.051,2.194
		c0,1.344,0.863,2.171,2.015,2.171c0.6,0,0.995-0.156,1.296-0.288L213.811,140.53z"/>
	<path d="M220.039,137.112v0.779h-2.963v-0.779H220.039z"/>
	<path d="M229.674,141.886h-0.768L227,136.752l-0.9,0.384l-0.228-0.563l1.655-0.695l1.475,4.149c0.096,0.252,0.18,0.54,0.229,0.768
		h0.023c0.036-0.204,0.096-0.516,0.156-0.779l2.23-9.188h0.792L229.674,141.886z"/>
	<path d="M233.061,140.746c0.023-0.396,0.047-0.983,0.047-1.499v-7.017h1.044v3.646h0.024c0.371-0.647,1.043-1.067,1.979-1.067
		c1.439,0,2.459,1.199,2.447,2.962c0,2.075-1.309,3.106-2.604,3.106c-0.84,0-1.511-0.323-1.942-1.091h-0.036l-0.048,0.959H233.061z
		 M234.151,138.419c0,0.133,0.024,0.265,0.048,0.384c0.204,0.732,0.815,1.235,1.583,1.235c1.104,0,1.763-0.899,1.763-2.23
		c0-1.163-0.6-2.159-1.727-2.159c-0.72,0-1.391,0.492-1.607,1.296c-0.023,0.12-0.06,0.264-0.06,0.432V138.419z"/>
	<path d="M239.264,142.197c0.852-1.188,1.512-2.746,1.512-4.905c0-2.146-0.647-3.682-1.512-4.869h0.816
		c0.768,0.983,1.57,2.519,1.57,4.881c0,2.351-0.803,3.874-1.57,4.894H239.264z"/>
	<path d="M242.576,134.989l0.756-0.695c0.995-0.912,1.511-1.476,1.511-2.087c0-0.456-0.288-0.828-0.911-0.828
		c-0.42,0-0.779,0.204-1.008,0.372l-0.252-0.552c0.324-0.264,0.863-0.504,1.463-0.504c1.128,0,1.596,0.72,1.596,1.355
		c0,0.911-0.684,1.571-1.596,2.363l-0.371,0.335v0.024h2.051v0.659h-3.238V134.989z"/>
</g>
<g enable-background="new    ">
	<path d="M188.193,161.051c0.023-0.396,0.047-0.983,0.047-1.499v-7.017h1.044v3.646h0.024c0.371-0.647,1.043-1.067,1.979-1.067
		c1.439,0,2.459,1.199,2.447,2.962c0,2.075-1.309,3.106-2.604,3.106c-0.84,0-1.511-0.323-1.942-1.091h-0.036l-0.048,0.959H188.193z
		 M189.284,158.724c0,0.133,0.024,0.265,0.048,0.384c0.204,0.732,0.815,1.235,1.583,1.235c1.104,0,1.763-0.899,1.763-2.23
		c0-1.163-0.6-2.159-1.727-2.159c-0.72,0-1.391,0.492-1.607,1.296c-0.023,0.12-0.06,0.264-0.06,0.432V158.724z"/>
	<path d="M197.217,157.009v-0.72h6.188v0.72H197.217z M197.217,159.359v-0.72h6.188v0.72H197.217z"/>
	<path d="M209.599,152.728c-0.876,1.175-1.511,2.734-1.511,4.905c0,2.135,0.66,3.67,1.511,4.869h-0.827
		c-0.756-0.995-1.571-2.53-1.571-4.869c0.013-2.363,0.815-3.898,1.571-4.905H209.599z"/>
	<path d="M214.854,160.835c-0.275,0.144-0.887,0.336-1.666,0.336c-1.752,0-2.891-1.188-2.891-2.963c0-1.787,1.223-3.082,3.118-3.082
		c0.624,0,1.175,0.156,1.463,0.3l-0.239,0.815c-0.252-0.144-0.648-0.275-1.224-0.275c-1.331,0-2.052,0.983-2.052,2.194
		c0,1.344,0.864,2.171,2.016,2.171c0.6,0,0.996-0.156,1.295-0.288L214.854,160.835z"/>
	<path d="M221.083,157.417v0.779h-2.962v-0.779H221.083z"/>
	<path d="M230.718,162.19h-0.768l-1.907-5.134l-0.898,0.384l-0.229-0.563l1.655-0.695l1.476,4.149
		c0.096,0.252,0.18,0.54,0.228,0.768h0.024c0.035-0.204,0.096-0.516,0.155-0.779l2.231-9.188h0.791L230.718,162.19z"/>
	<path d="M237.366,161.051l-0.084-0.731h-0.036c-0.324,0.456-0.947,0.863-1.775,0.863c-1.175,0-1.774-0.827-1.774-1.667
		c0-1.403,1.247-2.171,3.489-2.159v-0.119c0-0.48-0.131-1.344-1.318-1.344c-0.54,0-1.104,0.168-1.512,0.432l-0.24-0.695
		c0.48-0.312,1.176-0.516,1.908-0.516c1.774,0,2.206,1.211,2.206,2.374v2.171c0,0.504,0.024,0.996,0.097,1.392H237.366z
		 M237.21,158.089c-1.151-0.024-2.458,0.18-2.458,1.307c0,0.684,0.455,1.008,0.995,1.008c0.755,0,1.235-0.479,1.403-0.972
		c0.035-0.107,0.06-0.228,0.06-0.336V158.089z"/>
	<path d="M239.3,162.502c0.852-1.188,1.511-2.746,1.511-4.905c0-2.146-0.646-3.682-1.511-4.869h0.815
		c0.768,0.983,1.571,2.519,1.571,4.881c0,2.351-0.804,3.874-1.571,4.894H239.3z"/>
	<path d="M242.612,155.294l0.755-0.695c0.996-0.912,1.512-1.476,1.512-2.087c0-0.456-0.287-0.828-0.912-0.828
		c-0.419,0-0.779,0.204-1.007,0.372l-0.252-0.552c0.323-0.264,0.864-0.504,1.464-0.504c1.127,0,1.595,0.72,1.595,1.355
		c0,0.911-0.684,1.571-1.595,2.363l-0.373,0.335v0.024h2.052v0.659h-3.238V155.294z"/>
</g>
</svg>
