<?xml version="1.0" encoding="utf-8"?>
<!-- Generator: Adobe Illustrator 16.0.0, SVG Export Plug-In . SVG Version: 6.00 Build 0)  -->
<!DOCTYPE svg PUBLIC "-//W3C//DTD SVG 1.1//EN" "http://www.w3.org/Graphics/SVG/1.1/DTD/svg11.dtd">
<svg version="1.1" id="Layer_1" xmlns="http://www.w3.org/2000/svg" xmlns:xlink="http://www.w3.org/1999/xlink" x="0px" y="0px"
	 width="300px" height="300px" viewBox="0 0 300 300" enable-background="new 0 0 300 300" xml:space="preserve">
<line fill="none" stroke="#000000" stroke-width="0.4936" stroke-miterlimit="10" x1="26.105" y1="24.697" x2="76.775" y2="73.167"/>
<line fill="none" stroke="#000000" stroke-width="0.4936" stroke-miterlimit="10" x1="127.408" y1="24.697" x2="76.739" y2="73.167"/>
<line fill="none" stroke="#000000" stroke-miterlimit="10" x1="76.5" y1="73" x2="76.5" y2="142"/>
<text transform="matrix(0.9545 0 0 1 17.4175 23.6719)" font-family="'MyriadPro-Regular'" font-size="18.1878">4</text>
<text transform="matrix(0.9545 0 0 1 122.9565 23.6719)" font-family="'MyriadPro-Regular'" font-size="18.1878">1</text>
<text transform="matrix(0.9545 0 0 1 67.834 157.8213)" font-family="'MyriadPro-Regular'" font-size="18.1878">17</text>
<line fill="none" stroke="#000000" stroke-width="0.4936" stroke-miterlimit="10" x1="180.105" y1="25.697" x2="230.775" y2="74.167"/>
<line fill="none" stroke="#000000" stroke-width="0.4936" stroke-miterlimit="10" x1="281.408" y1="25.697" x2="230.738" y2="74.167"/>
<line fill="none" stroke="#000000" stroke-miterlimit="10" x1="230.5" y1="74" x2="230.5" y2="143"/>
<text transform="matrix(0.9545 0 0 1 171.417 24.6719)" font-family="'MyriadPro-Regular'" font-size="18.1878">3</text>
<text transform="matrix(0.9545 0 0 1 276.9561 24.6719)" font-family="'MyriadPro-Regular'" font-size="18.1878">1</text>
<text transform="matrix(0.9545 0 0 1 221.834 158.8213)" font-family="'MyriadPro-Regular'" font-size="18.1878">10</text>
<line fill="none" stroke="#000000" stroke-width="0.4936" stroke-miterlimit="10" x1="106.105" y1="129.697" x2="156.775" y2="178.167"/>
<line fill="none" stroke="#000000" stroke-width="0.4936" stroke-miterlimit="10" x1="207.408" y1="129.697" x2="156.738" y2="178.167"/>
<line fill="none" stroke="#000000" stroke-miterlimit="10" x1="156.5" y1="178" x2="156.5" y2="247"/>
<g enable-background="new    ">
	<path d="M95.934,122.834v-5.984h-0.035l-1.25,0.637l-0.191-0.946l1.632-0.8h1.06v7.094H95.934z"/>
	<path d="M98.294,128.399l4.845-13.187h1.181l-4.862,13.187H98.294z"/>
	<path d="M104.474,126.999l1.094-1.073c1.441-1.364,2.188-2.219,2.188-3.146c0-0.691-0.417-1.273-1.32-1.273
		c-0.607,0-1.128,0.328-1.458,0.564l-0.365-0.818c0.469-0.418,1.25-0.764,2.119-0.764c1.632,0,2.31,1.073,2.31,2.056
		c0,1.364-0.99,2.364-2.31,3.583l-0.539,0.509v0.036h2.97v1h-4.688V126.999z"/>
</g>
<g enable-background="new    ">
	<path d="M201.473,123.834v-5.984h-0.035l-1.25,0.637l-0.191-0.946l1.633-0.8h1.059v7.094H201.473z"/>
	<path d="M203.832,129.399l4.846-13.187h1.181l-4.862,13.187H203.832z"/>
	<path d="M210.013,127.999l1.094-1.073c1.441-1.364,2.188-2.219,2.188-3.146c0-0.691-0.417-1.273-1.32-1.273
		c-0.607,0-1.129,0.328-1.459,0.564l-0.364-0.818c0.469-0.418,1.251-0.764,2.118-0.764c1.633,0,2.311,1.073,2.311,2.056
		c0,1.364-0.99,2.364-2.311,3.583l-0.538,0.509v0.036h2.97v1h-4.688V127.999z"/>
</g>
<g enable-background="new    ">
	<path d="M150.803,257.983v-5.984h-0.035l-1.25,0.637l-0.191-0.946l1.632-0.8h1.06v7.094H150.803z"/>
	<path d="M153.163,263.549l4.845-13.187h1.182l-4.863,13.187H153.163z"/>
	<path d="M159.344,262.148l1.094-1.073c1.441-1.364,2.188-2.219,2.188-3.146c0-0.691-0.416-1.273-1.32-1.273
		c-0.607,0-1.128,0.327-1.458,0.563l-0.364-0.818c0.469-0.418,1.25-0.764,2.118-0.764c1.632,0,2.31,1.073,2.31,2.056
		c0,1.364-0.99,2.364-2.31,3.583l-0.538,0.51v0.035h2.969v1.001h-4.688V262.148z"/>
</g>
</svg>
