<?xml version="1.0" encoding="utf-8"?>
<!-- Generator: Adobe Illustrator 16.0.0, SVG Export Plug-In . SVG Version: 6.00 Build 0)  -->
<!DOCTYPE svg PUBLIC "-//W3C//DTD SVG 1.1//EN" "http://www.w3.org/Graphics/SVG/1.1/DTD/svg11.dtd">
<svg version="1.1" id="Layer_1" xmlns="http://www.w3.org/2000/svg" xmlns:xlink="http://www.w3.org/1999/xlink" x="0px" y="0px"
	 width="150px" height="150px" viewBox="0 0 150 150" enable-background="new 0 0 150 150" xml:space="preserve">
<g>
	<g enable-background="new    ">
		<path d="M23.819,76.515v-1.31l1.673-1.624c4.025-3.831,5.843-5.868,5.868-8.244c0-1.6-0.776-3.079-3.128-3.079
			c-1.431,0-2.619,0.728-3.346,1.334l-0.679-1.504c1.091-0.921,2.643-1.6,4.461-1.6c3.395,0,4.825,2.327,4.825,4.582
			c0,2.909-2.109,5.262-5.431,8.462l-1.261,1.164v0.049h7.08v1.77H23.819z"/>
		<path d="M46.73,68.465c0,5.358-1.988,8.316-5.479,8.316c-3.08,0-5.165-2.885-5.213-8.098c0-5.286,2.279-8.195,5.479-8.195
			C44.839,60.488,46.73,63.446,46.73,68.465z M38.171,68.707c0,4.098,1.261,6.426,3.201,6.426c2.182,0,3.225-2.546,3.225-6.571
			c0-3.879-0.994-6.425-3.2-6.425C39.529,62.137,38.171,64.416,38.171,68.707z"/>
		<path d="M95.457,74.065c0.605,0.389,2.012,0.994,3.491,0.994c2.739,0,3.589-1.745,3.563-3.055
			c-0.023-2.206-2.012-3.152-4.072-3.152h-1.188v-1.6h1.188c1.551,0,3.516-0.801,3.516-2.667c0-1.261-0.801-2.377-2.765-2.377
			c-1.261,0-2.474,0.558-3.151,1.043L95.48,61.7c0.824-0.606,2.426-1.212,4.123-1.212c3.104,0,4.51,1.843,4.51,3.758
			c0,1.624-0.971,3.007-2.91,3.71v0.048c1.939,0.389,3.516,1.843,3.516,4.05c0,2.521-1.964,4.728-5.746,4.728
			c-1.77,0-3.322-0.558-4.098-1.066L95.457,74.065z"/>
	</g>
	<g enable-background="new    ">
		<path d="M23.819,99.137v-1.31l1.673-1.624c4.025-3.831,5.843-5.868,5.868-8.244c0-1.6-0.776-3.079-3.128-3.079
			c-1.431,0-2.619,0.728-3.346,1.334l-0.679-1.504c1.091-0.921,2.643-1.6,4.461-1.6c3.395,0,4.825,2.327,4.825,4.582
			c0,2.909-2.109,5.262-5.431,8.462l-1.261,1.164v0.049h7.08v1.77H23.819z"/>
		<path d="M42.851,99.137v-4.292h-7.322v-1.406l7.031-10.062h2.304v9.795h2.206v1.673h-2.206v4.292H42.851z M42.851,93.172v-5.261
			c0-0.825,0.024-1.649,0.073-2.474h-0.073c-0.485,0.922-0.873,1.601-1.309,2.328l-3.855,5.358v0.048H42.851z"/>
		<path d="M95.457,96.688c0.605,0.389,2.012,0.994,3.491,0.994c2.739,0,3.589-1.745,3.563-3.055
			c-0.023-2.206-2.012-3.152-4.072-3.152h-1.188v-1.6h1.188c1.551,0,3.516-0.801,3.516-2.667c0-1.261-0.801-2.377-2.765-2.377
			c-1.261,0-2.474,0.558-3.151,1.043l-0.559-1.552c0.824-0.606,2.426-1.212,4.123-1.212c3.104,0,4.51,1.843,4.51,3.758
			c0,1.624-0.971,3.007-2.91,3.71v0.048c1.939,0.389,3.516,1.843,3.516,4.05c0,2.521-1.964,4.728-5.746,4.728
			c-1.77,0-3.322-0.558-4.098-1.066L95.457,96.688z"/>
	</g>
	<polyline fill="none" stroke="#000000" stroke-width="0.6734" stroke-miterlimit="10" points="60.794,73.696 70.511,61.633 
		81.566,73.696 	"/>
	<polyline fill="none" stroke="#000000" stroke-width="0.6073" stroke-miterlimit="10" points="60.004,83.861 71.182,95.643 
		82.059,84.768 	"/>
	
		<line fill="none" stroke="#000000" stroke-width="0.6073" stroke-miterlimit="10" x1="22.728" y1="80.592" x2="110.295" y2="80.592"/>
</g>
</svg>
