<?xml version="1.0" encoding="utf-8"?>
<!-- Generator: Adobe Illustrator 16.0.0, SVG Export Plug-In . SVG Version: 6.00 Build 0)  -->
<!DOCTYPE svg PUBLIC "-//W3C//DTD SVG 1.1//EN" "http://www.w3.org/Graphics/SVG/1.1/DTD/svg11.dtd">
<svg version="1.1" id="Layer_1" xmlns="http://www.w3.org/2000/svg" xmlns:xlink="http://www.w3.org/1999/xlink" x="0px" y="0px"
	 width="300px" height="300px" viewBox="0 0 300 300" enable-background="new 0 0 300 300" xml:space="preserve">
<line fill="none" stroke="#000000" stroke-miterlimit="10" x1="148" y1="8.5" x2="148" y2="282.5"/>
<line fill="none" stroke="#000000" stroke-miterlimit="10" x1="12.5" y1="146" x2="283.5" y2="146"/>
<polyline fill="none" stroke="#000000" stroke-miterlimit="10" points="62.03,134.682 71.482,146.124 58.547,154.582 "/>
<polyline fill="none" stroke="#000000" stroke-miterlimit="10" points="140.139,66.522 148.597,53.089 156.061,64.035 "/>
<polyline fill="none" stroke="#000000" stroke-miterlimit="10" points="220.238,133.687 231.184,145.627 219.741,154.084 "/>
<polyline fill="none" stroke="#000000" stroke-miterlimit="10" points="137.154,229.209 148.1,215.775 159.045,227.219 "/>
<rect x="116" y="123" fill="#FFFFFF" stroke="#000000" stroke-miterlimit="10" width="63" height="45"/>
<text transform="matrix(1 0 0 1 141.6318 157.0996)" font-family="'MyriadPro-Regular'" font-size="36">?</text>
<g enable-background="new    ">
	<path d="M7.175,129.564v-11.842H7.103l-2.591,1.26l-0.396-1.872l3.383-1.584h2.196v14.038H7.175z"/>
	<path d="M12.071,140.579l10.043-26.097h2.448l-10.079,26.097H12.071z"/>
	<path d="M25.462,126.037c0.828-0.54,2.376-1.115,4.14-1.115c3.096,0,4.391,1.655,4.391,3.383c0,1.44-1.043,2.664-2.771,3.24v0.071
		c1.98,0.288,3.348,1.656,3.348,3.492c0,2.231-2.016,4.211-5.688,4.211c-1.728,0-3.312-0.468-4.104-1.008l0.648-1.8
		c0.576,0.396,1.98,0.937,3.348,0.937c2.196,0,3.168-1.296,3.132-2.412c0-1.8-1.908-2.52-3.815-2.52h-0.972v-1.656h1.008
		c1.332,0,3.24-0.611,3.276-2.304c0-0.863-0.648-1.764-2.268-1.764c-1.295,0-2.483,0.54-3.06,0.937L25.462,126.037z"/>
</g>
<g enable-background="new    ">
	<path d="M150.521,21.87l2.268-2.124c2.988-2.7,4.535-4.392,4.535-6.228c0-1.367-0.863-2.52-2.734-2.52
		c-1.26,0-2.34,0.648-3.024,1.116l-0.756-1.62c0.972-0.828,2.592-1.512,4.392-1.512c3.384,0,4.787,2.124,4.787,4.067
		c0,2.7-2.051,4.68-4.787,7.091l-1.115,1.008v0.072h6.154v1.979h-9.719V21.87z"/>
	<path d="M161.25,34.216l10.043-26.097h2.447l-10.079,26.097H161.25z"/>
	<path d="M174.641,19.674c0.828-0.54,2.376-1.115,4.14-1.115c3.096,0,4.392,1.655,4.392,3.383c0,1.44-1.044,2.664-2.771,3.24v0.071
		c1.979,0.288,3.348,1.656,3.348,3.492c0,2.231-2.016,4.211-5.688,4.211c-1.729,0-3.313-0.468-4.104-1.008l0.647-1.8
		c0.576,0.396,1.979,0.937,3.348,0.937c2.196,0,3.168-1.296,3.132-2.412c0-1.8-1.908-2.52-3.815-2.52h-0.972v-1.656h1.008
		c1.332,0,3.239-0.611,3.275-2.304c0-0.863-0.648-1.764-2.268-1.764c-1.296,0-2.484,0.54-3.061,0.937L174.641,19.674z"/>
</g>
<g enable-background="new    ">
	<path d="M270.856,133.066v-11.842h-0.072l-2.591,1.26l-0.396-1.872l3.383-1.584h2.196v14.038H270.856z"/>
	<path d="M275.752,144.081l10.043-26.097h2.448l-10.079,26.097H275.752z"/>
	<path d="M295.515,142.642v-3.708h-6.803v-1.439l6.371-8.963h2.844v8.639h2.016v1.764h-2.016v3.708H295.515z M295.515,132.923
		c0-0.792,0.072-1.548,0.108-2.268h-0.072c-0.432,0.828-0.792,1.476-1.224,2.124l-3.132,4.319l0.036,0.071h4.283V132.923z"/>
</g>
<text transform="matrix(1 0 0 1 151.582 284.4326)" font-family="'MyriadPro-Regular'" font-size="36">1</text>
</svg>
