<?xml version="1.0" encoding="utf-8"?>
<!-- Generator: Adobe Illustrator 16.0.0, SVG Export Plug-In . SVG Version: 6.00 Build 0)  -->
<!DOCTYPE svg PUBLIC "-//W3C//DTD SVG 1.1//EN" "http://www.w3.org/Graphics/SVG/1.1/DTD/svg11.dtd">
<svg version="1.1" id="Layer_1" xmlns="http://www.w3.org/2000/svg" xmlns:xlink="http://www.w3.org/1999/xlink" x="0px" y="0px"
	 width="300px" height="300px" viewBox="0 0 300 300" enable-background="new 0 0 300 300" xml:space="preserve">
<rect x="19.196" y="27.654" fill="#FFFFFF" stroke="#000000" stroke-miterlimit="10" width="52.736" height="46.269"/>
<rect x="124.171" y="29.396" fill="#FFFFFF" stroke="#000000" stroke-miterlimit="10" width="52.737" height="46.269"/>
<rect x="96.31" y="197.555" fill="#FFFFFF" stroke="#000000" stroke-width="1.4794" stroke-miterlimit="10" width="115.424" height="46.269"/>
<rect x="229.146" y="31.137" fill="#FFFFFF" stroke="#000000" stroke-miterlimit="10" width="52.735" height="46.269"/>
<line fill="none" stroke="#000000" stroke-width="1.4794" stroke-miterlimit="10" x1="42.082" y1="73.923" x2="96.31" y2="197.555"/>
<line fill="none" stroke="#000000" stroke-width="1.4794" stroke-miterlimit="10" x1="149.047" y1="75.416" x2="150.54" y2="197.307"/>
<line fill="none" stroke="#000000" stroke-width="1.4794" stroke-miterlimit="10" x1="257.505" y1="77.903" x2="211.734" y2="197.555"/>
<text transform="matrix(1 0 0 1 37.1069 59.9922)" font-family="'MyriadPro-Regular'" font-size="36">a</text>
<text transform="matrix(1 0 0 1 142.5791 61.4854)" font-family="'MyriadPro-Regular'" font-size="36">b</text>
<text transform="matrix(1 0 0 1 246.5596 62.4795)" font-family="'MyriadPro-Regular'" font-size="36">c</text>
<text transform="matrix(1 0 0 1 144.5693 232.1309)" font-family="'MyriadPro-Regular'" font-size="36">d</text>
<g>
	<g enable-background="new    ">
		<path d="M16.321,203.773l-0.084-0.731h-0.036c-0.324,0.456-0.947,0.863-1.775,0.863c-1.175,0-1.775-0.827-1.775-1.667
			c0-1.403,1.247-2.171,3.49-2.159v-0.119c0-0.48-0.132-1.344-1.319-1.344c-0.54,0-1.104,0.168-1.511,0.432l-0.24-0.695
			c0.48-0.312,1.175-0.516,1.907-0.516c1.775,0,2.207,1.211,2.207,2.374v2.171c0,0.504,0.024,0.996,0.096,1.392H16.321z
			 M16.165,200.812c-1.151-0.024-2.458,0.18-2.458,1.307c0,0.684,0.456,1.008,0.996,1.008c0.755,0,1.235-0.479,1.403-0.972
			c0.036-0.107,0.06-0.228,0.06-0.336V200.812z"/>
		<path d="M18.16,198.017l0.755-0.695c0.996-0.912,1.511-1.476,1.511-2.087c0-0.456-0.288-0.828-0.912-0.828
			c-0.419,0-0.779,0.204-1.007,0.372l-0.252-0.552c0.324-0.264,0.864-0.504,1.463-0.504c1.127,0,1.595,0.72,1.595,1.355
			c0,0.911-0.684,1.571-1.595,2.363l-0.372,0.335v0.024h2.051v0.659H18.16V198.017z"/>
		<path d="M28.249,197.393v2.818h2.71v0.72h-2.71v2.843h-0.768v-2.843h-2.711v-0.72h2.711v-2.818H28.249z"/>
		<path d="M34.814,203.773c0.024-0.396,0.048-0.983,0.048-1.499v-7.017h1.043v3.646h0.024c0.372-0.647,1.043-1.067,1.979-1.067
			c1.439,0,2.458,1.199,2.447,2.962c0,2.075-1.308,3.106-2.603,3.106c-0.84,0-1.511-0.323-1.943-1.091h-0.036l-0.048,0.959H34.814z
			 M35.906,201.446c0,0.133,0.024,0.265,0.048,0.384c0.204,0.732,0.816,1.235,1.583,1.235c1.103,0,1.763-0.899,1.763-2.23
			c0-1.163-0.6-2.159-1.727-2.159c-0.72,0-1.391,0.492-1.607,1.296c-0.024,0.12-0.06,0.264-0.06,0.432V201.446z"/>
		<path d="M40.959,198.017l0.755-0.695c0.996-0.912,1.511-1.476,1.511-2.087c0-0.456-0.288-0.828-0.912-0.828
			c-0.419,0-0.779,0.204-1.007,0.372l-0.252-0.552c0.324-0.264,0.864-0.504,1.463-0.504c1.127,0,1.595,0.72,1.595,1.355
			c0,0.911-0.684,1.571-1.595,2.363l-0.372,0.335v0.024h2.051v0.659h-3.238V198.017z"/>
		<path d="M51.048,197.393v2.818h2.71v0.72h-2.71v2.843h-0.768v-2.843h-2.71v-0.72h2.71v-2.818H51.048z"/>
		<path d="M61.799,203.558c-0.276,0.144-0.887,0.336-1.667,0.336c-1.751,0-2.891-1.188-2.891-2.963c0-1.787,1.224-3.082,3.119-3.082
			c0.624,0,1.175,0.156,1.463,0.3l-0.24,0.815c-0.252-0.144-0.647-0.275-1.223-0.275c-1.332,0-2.051,0.983-2.051,2.194
			c0,1.344,0.864,2.171,2.015,2.171c0.6,0,0.996-0.156,1.295-0.288L61.799,203.558z"/>
		<path d="M62.306,198.017l0.755-0.695c0.996-0.912,1.511-1.476,1.511-2.087c0-0.456-0.288-0.828-0.912-0.828
			c-0.419,0-0.779,0.204-1.007,0.372l-0.252-0.552c0.324-0.264,0.864-0.504,1.463-0.504c1.127,0,1.595,0.72,1.595,1.355
			c0,0.911-0.684,1.571-1.595,2.363l-0.372,0.335v0.024h2.051v0.659h-3.238V198.017z"/>
		<path d="M68.918,199.731v-0.72h6.188v0.72H68.918z M68.918,202.082v-0.72h6.188v0.72H68.918z"/>
		<path d="M84.022,195.258v7.017c0,0.516,0.012,1.104,0.048,1.499h-0.947l-0.048-1.008h-0.024c-0.324,0.648-1.032,1.14-1.979,1.14
			c-1.403,0-2.483-1.188-2.483-2.95c-0.012-1.931,1.188-3.118,2.603-3.118c0.888,0,1.487,0.42,1.751,0.888h0.024v-3.467H84.022z
			 M82.967,200.331c0-0.132-0.012-0.312-0.048-0.443c-0.156-0.672-0.731-1.224-1.523-1.224c-1.091,0-1.739,0.96-1.739,2.243
			c0,1.175,0.576,2.146,1.715,2.146c0.708,0,1.355-0.468,1.547-1.259c0.036-0.145,0.048-0.288,0.048-0.456V200.331z"/>
	</g>
	<g enable-background="new    ">
		<path d="M13.833,219.196l-0.084-0.731h-0.036c-0.324,0.456-0.947,0.863-1.775,0.863c-1.175,0-1.775-0.827-1.775-1.667
			c0-1.403,1.247-2.171,3.49-2.159v-0.119c0-0.48-0.132-1.344-1.319-1.344c-0.54,0-1.104,0.168-1.511,0.432l-0.24-0.695
			c0.48-0.312,1.175-0.516,1.907-0.516c1.775,0,2.207,1.211,2.207,2.374v2.171c0,0.504,0.024,0.996,0.096,1.392H13.833z
			 M13.677,216.234c-1.151-0.024-2.458,0.18-2.458,1.307c0,0.684,0.456,1.008,0.996,1.008c0.755,0,1.235-0.479,1.403-0.972
			c0.036-0.107,0.06-0.228,0.06-0.336V216.234z"/>
		<path d="M21.095,215.154v-0.72h6.188v0.72H21.095z M21.095,217.505v-0.72h6.188v0.72H21.095z"/>
		<path d="M34.497,220.336h-0.768l-1.907-5.134l-0.899,0.384l-0.228-0.563l1.655-0.695l1.475,4.149
			c0.096,0.252,0.18,0.54,0.228,0.768h0.024c0.036-0.204,0.096-0.516,0.156-0.779l2.231-9.188h0.792L34.497,220.336z"/>
		<path d="M40.221,210.873c-0.875,1.175-1.511,2.734-1.511,4.905c0,2.135,0.66,3.67,1.511,4.869h-0.827
			c-0.756-0.995-1.571-2.53-1.571-4.869c0.012-2.363,0.815-3.898,1.571-4.905H40.221z"/>
		<path d="M46.352,210.681v7.017c0,0.516,0.012,1.104,0.048,1.499h-0.947l-0.048-1.008H45.38c-0.324,0.648-1.032,1.14-1.979,1.14
			c-1.403,0-2.483-1.188-2.483-2.95c-0.012-1.931,1.188-3.118,2.603-3.118c0.888,0,1.487,0.42,1.751,0.888h0.024v-3.467H46.352z
			 M45.296,215.754c0-0.132-0.012-0.312-0.048-0.443c-0.156-0.672-0.731-1.224-1.523-1.224c-1.091,0-1.739,0.96-1.739,2.243
			c0,1.175,0.576,2.146,1.715,2.146c0.708,0,1.355-0.468,1.547-1.259c0.036-0.145,0.048-0.288,0.048-0.456V215.754z"/>
		<path d="M53.097,215.563v0.779h-2.962v-0.779H53.097z"/>
		<path d="M56.83,219.196c0.024-0.396,0.048-0.983,0.048-1.499v-7.017h1.043v3.646h0.024c0.372-0.647,1.043-1.067,1.979-1.067
			c1.439,0,2.458,1.199,2.447,2.962c0,2.075-1.308,3.106-2.603,3.106c-0.84,0-1.511-0.323-1.943-1.091H57.79l-0.048,0.959H56.83z
			 M57.921,216.869c0,0.133,0.024,0.265,0.048,0.384c0.204,0.732,0.815,1.235,1.583,1.235c1.104,0,1.763-0.899,1.763-2.23
			c0-1.163-0.6-2.159-1.727-2.159c-0.72,0-1.391,0.492-1.607,1.296c-0.024,0.12-0.06,0.264-0.06,0.432V216.869z"/>
		<path d="M62.975,213.439l0.755-0.695c0.996-0.912,1.511-1.476,1.511-2.087c0-0.456-0.288-0.828-0.912-0.828
			c-0.419,0-0.779,0.204-1.007,0.372l-0.252-0.552c0.324-0.264,0.864-0.504,1.463-0.504c1.127,0,1.595,0.72,1.595,1.355
			c0,0.911-0.684,1.571-1.595,2.363l-0.372,0.335v0.024h2.051v0.659h-3.238V213.439z"/>
		<path d="M72.429,215.563v0.779h-2.962v-0.779H72.429z"/>
		<path d="M80.347,218.98c-0.276,0.144-0.888,0.336-1.667,0.336c-1.751,0-2.891-1.188-2.891-2.963c0-1.787,1.224-3.082,3.119-3.082
			c0.624,0,1.175,0.156,1.463,0.3l-0.24,0.815c-0.252-0.144-0.647-0.275-1.223-0.275c-1.332,0-2.051,0.983-2.051,2.194
			c0,1.344,0.864,2.171,2.015,2.171c0.6,0,0.996-0.156,1.295-0.288L80.347,218.98z"/>
		<path d="M80.854,213.439l0.755-0.695c0.996-0.912,1.511-1.476,1.511-2.087c0-0.456-0.288-0.828-0.912-0.828
			c-0.419,0-0.779,0.204-1.007,0.372l-0.252-0.552c0.324-0.264,0.864-0.504,1.463-0.504c1.127,0,1.595,0.72,1.595,1.355
			c0,0.911-0.684,1.571-1.595,2.363l-0.372,0.335v0.024h2.051v0.659h-3.238V213.439z"/>
		<path d="M84.682,220.647c0.852-1.188,1.511-2.746,1.511-4.905c0-2.146-0.647-3.682-1.511-4.869h0.816
			c0.768,0.983,1.571,2.519,1.571,4.881c0,2.351-0.803,3.874-1.571,4.894H84.682z"/>
	</g>
	<g enable-background="new    ">
		<path d="M12.083,234.624c0.024-0.396,0.048-0.983,0.048-1.499v-7.017h1.043v3.646h0.024c0.372-0.647,1.043-1.067,1.979-1.067
			c1.439,0,2.458,1.199,2.447,2.962c0,2.075-1.308,3.106-2.603,3.106c-0.84,0-1.511-0.323-1.943-1.091h-0.036l-0.048,0.959H12.083z
			 M13.175,232.297c0,0.133,0.024,0.265,0.048,0.384c0.204,0.732,0.815,1.235,1.583,1.235c1.104,0,1.763-0.899,1.763-2.23
			c0-1.163-0.6-2.159-1.727-2.159c-0.72,0-1.391,0.492-1.607,1.296c-0.024,0.12-0.06,0.264-0.06,0.432V232.297z"/>
		<path d="M23.651,230.582v-0.72h6.188v0.72H23.651z M23.651,232.933v-0.72h6.188v0.72H23.651z"/>
		<path d="M37.053,235.764h-0.768l-1.907-5.134l-0.899,0.384l-0.228-0.563l1.655-0.695l1.475,4.149
			c0.096,0.252,0.18,0.54,0.228,0.768h0.024c0.036-0.204,0.096-0.516,0.156-0.779l2.231-9.188h0.792L37.053,235.764z"/>
		<path d="M42.777,226.301c-0.875,1.175-1.511,2.734-1.511,4.905c0,2.135,0.66,3.67,1.511,4.869H41.95
			c-0.756-0.995-1.571-2.53-1.571-4.869c0.012-2.363,0.815-3.898,1.571-4.905H42.777z"/>
		<path d="M48.908,226.108v7.017c0,0.516,0.012,1.104,0.048,1.499h-0.947l-0.048-1.008h-0.024c-0.324,0.648-1.032,1.14-1.979,1.14
			c-1.403,0-2.483-1.188-2.483-2.95c-0.012-1.931,1.188-3.118,2.603-3.118c0.888,0,1.487,0.42,1.751,0.888h0.024v-3.467H48.908z
			 M47.853,231.182c0-0.132-0.012-0.312-0.048-0.443c-0.156-0.672-0.731-1.224-1.523-1.224c-1.091,0-1.739,0.96-1.739,2.243
			c0,1.175,0.576,2.146,1.715,2.146c0.708,0,1.355-0.468,1.547-1.259c0.036-0.145,0.048-0.288,0.048-0.456V231.182z"/>
		<path d="M55.653,230.99v0.779h-2.962v-0.779H55.653z"/>
		<path d="M62.648,234.624l-0.084-0.731h-0.036c-0.324,0.456-0.947,0.863-1.775,0.863c-1.175,0-1.775-0.827-1.775-1.667
			c0-1.403,1.247-2.171,3.49-2.159v-0.119c0-0.48-0.132-1.344-1.319-1.344c-0.54,0-1.104,0.168-1.511,0.432l-0.24-0.695
			c0.48-0.312,1.175-0.516,1.907-0.516c1.775,0,2.207,1.211,2.207,2.374v2.171c0,0.504,0.024,0.996,0.096,1.392H62.648z
			 M62.492,231.662c-1.151-0.024-2.458,0.18-2.458,1.307c0,0.684,0.456,1.008,0.996,1.008c0.755,0,1.235-0.479,1.403-0.972
			c0.036-0.107,0.06-0.228,0.06-0.336V231.662z"/>
		<path d="M64.487,228.867l0.755-0.695c0.996-0.912,1.511-1.476,1.511-2.087c0-0.456-0.288-0.828-0.912-0.828
			c-0.419,0-0.779,0.204-1.007,0.372l-0.252-0.552c0.324-0.264,0.864-0.504,1.463-0.504c1.127,0,1.595,0.72,1.595,1.355
			c0,0.911-0.684,1.571-1.595,2.363l-0.372,0.335v0.024h2.051v0.659h-3.238V228.867z"/>
		<path d="M73.941,230.99v0.779h-2.962v-0.779H73.941z"/>
		<path d="M81.859,234.408c-0.276,0.144-0.888,0.336-1.667,0.336c-1.751,0-2.891-1.188-2.891-2.963c0-1.787,1.224-3.082,3.119-3.082
			c0.624,0,1.175,0.156,1.463,0.3l-0.24,0.815c-0.252-0.144-0.647-0.275-1.223-0.275c-1.332,0-2.051,0.983-2.051,2.194
			c0,1.344,0.864,2.171,2.015,2.171c0.6,0,0.996-0.156,1.295-0.288L81.859,234.408z"/>
		<path d="M82.366,228.867l0.755-0.695c0.996-0.912,1.511-1.476,1.511-2.087c0-0.456-0.288-0.828-0.912-0.828
			c-0.419,0-0.779,0.204-1.007,0.372l-0.252-0.552c0.324-0.264,0.864-0.504,1.463-0.504c1.127,0,1.595,0.72,1.595,1.355
			c0,0.911-0.684,1.571-1.595,2.363l-0.372,0.335v0.024h2.051v0.659h-3.238V228.867z"/>
		<path d="M86.194,236.075c0.852-1.188,1.511-2.746,1.511-4.905c0-2.146-0.647-3.682-1.511-4.869h0.816
			c0.768,0.983,1.571,2.519,1.571,4.881c0,2.351-0.803,3.874-1.571,4.894H86.194z"/>
	</g>
	<g enable-background="new    ">
		<path d="M16.269,251.324c-0.276,0.144-0.887,0.336-1.667,0.336c-1.751,0-2.891-1.188-2.891-2.963c0-1.787,1.224-3.082,3.119-3.082
			c0.624,0,1.175,0.156,1.463,0.3l-0.24,0.815c-0.252-0.144-0.647-0.275-1.223-0.275c-1.332,0-2.051,0.983-2.051,2.194
			c0,1.344,0.864,2.171,2.015,2.171c0.6,0,0.996-0.156,1.295-0.288L16.269,251.324z"/>
		<path d="M22.199,247.498v-0.72h6.189v0.72H22.199z M22.199,249.849v-0.72h6.189v0.72H22.199z"/>
		<path d="M35.601,252.68h-0.768l-1.907-5.134l-0.899,0.384l-0.228-0.563l1.655-0.695l1.475,4.149
			c0.096,0.252,0.18,0.54,0.228,0.768h0.024c0.036-0.204,0.096-0.516,0.156-0.779l2.231-9.188h0.792L35.601,252.68z"/>
		<path d="M41.325,243.217c-0.875,1.175-1.511,2.734-1.511,4.905c0,2.135,0.66,3.67,1.511,4.869h-0.827
			c-0.756-0.995-1.571-2.53-1.571-4.869c0.012-2.363,0.815-3.898,1.571-4.905H41.325z"/>
		<path d="M47.456,243.024v7.017c0,0.516,0.012,1.104,0.048,1.499h-0.947l-0.048-1.008h-0.024c-0.324,0.648-1.032,1.14-1.979,1.14
			c-1.403,0-2.483-1.188-2.483-2.95c-0.012-1.931,1.188-3.118,2.603-3.118c0.888,0,1.487,0.42,1.751,0.888h0.024v-3.467H47.456z
			 M46.401,248.098c0-0.132-0.012-0.312-0.048-0.443c-0.156-0.672-0.731-1.224-1.523-1.224c-1.091,0-1.739,0.96-1.739,2.243
			c0,1.175,0.576,2.146,1.715,2.146c0.708,0,1.355-0.468,1.547-1.259c0.036-0.145,0.048-0.288,0.048-0.456V248.098z"/>
		<path d="M54.201,247.906v0.779h-2.962v-0.779H54.201z"/>
		<path d="M61.197,251.54l-0.084-0.731h-0.036c-0.324,0.456-0.947,0.863-1.775,0.863c-1.175,0-1.775-0.827-1.775-1.667
			c0-1.403,1.247-2.171,3.49-2.159v-0.119c0-0.48-0.132-1.344-1.319-1.344c-0.54,0-1.103,0.168-1.511,0.432l-0.24-0.695
			c0.48-0.312,1.176-0.516,1.907-0.516c1.775,0,2.207,1.211,2.207,2.374v2.171c0,0.504,0.024,0.996,0.096,1.392H61.197z
			 M61.041,248.578c-1.151-0.024-2.459,0.18-2.459,1.307c0,0.684,0.456,1.008,0.996,1.008c0.755,0,1.235-0.479,1.403-0.972
			c0.036-0.107,0.06-0.228,0.06-0.336V248.578z"/>
		<path d="M63.035,245.783l0.755-0.695c0.996-0.912,1.511-1.476,1.511-2.087c0-0.456-0.288-0.828-0.912-0.828
			c-0.419,0-0.779,0.204-1.007,0.372l-0.252-0.552c0.324-0.264,0.864-0.504,1.463-0.504c1.127,0,1.595,0.72,1.595,1.355
			c0,0.911-0.684,1.571-1.595,2.363l-0.372,0.335v0.024h2.051v0.659h-3.238V245.783z"/>
		<path d="M72.489,247.906v0.779h-2.962v-0.779H72.489z"/>
		<path d="M76.222,251.54c0.024-0.396,0.048-0.983,0.048-1.499v-7.017h1.043v3.646h0.024c0.372-0.647,1.043-1.067,1.979-1.067
			c1.439,0,2.458,1.199,2.447,2.962c0,2.075-1.308,3.106-2.603,3.106c-0.84,0-1.511-0.323-1.943-1.091h-0.036l-0.048,0.959H76.222z
			 M77.313,249.213c0,0.133,0.024,0.265,0.048,0.384c0.204,0.732,0.815,1.235,1.583,1.235c1.104,0,1.763-0.899,1.763-2.23
			c0-1.163-0.6-2.159-1.727-2.159c-0.72,0-1.391,0.492-1.607,1.296c-0.024,0.12-0.06,0.264-0.06,0.432V249.213z"/>
		<path d="M82.366,245.783l0.755-0.695c0.996-0.912,1.511-1.476,1.511-2.087c0-0.456-0.288-0.828-0.912-0.828
			c-0.419,0-0.779,0.204-1.007,0.372l-0.252-0.552c0.324-0.264,0.864-0.504,1.463-0.504c1.127,0,1.595,0.72,1.595,1.355
			c0,0.911-0.684,1.571-1.595,2.363l-0.372,0.335v0.024h2.051v0.659h-3.238V245.783z"/>
		<path d="M86.194,252.991c0.852-1.188,1.511-2.746,1.511-4.905c0-2.146-0.647-3.682-1.511-4.869h0.816
			c0.768,0.983,1.571,2.519,1.571,4.881c0,2.351-0.803,3.874-1.571,4.894H86.194z"/>
	</g>
	<line fill="none" stroke="#000000" stroke-miterlimit="10" x1="36.107" y1="208.602" x2="86.355" y2="208.602"/>
	<line fill="none" stroke="#000000" stroke-miterlimit="10" x1="39.013" y1="224.64" x2="89.261" y2="224.64"/>
	<line fill="none" stroke="#000000" stroke-miterlimit="10" x1="37.851" y1="241.259" x2="88.099" y2="241.259"/>
</g>
</svg>
