<?xml version="1.0" encoding="utf-8"?>
<!-- Generator: Adobe Illustrator 16.0.0, SVG Export Plug-In . SVG Version: 6.00 Build 0)  -->
<!DOCTYPE svg PUBLIC "-//W3C//DTD SVG 1.1//EN" "http://www.w3.org/Graphics/SVG/1.1/DTD/svg11.dtd">
<svg version="1.1" id="Layer_1" xmlns="http://www.w3.org/2000/svg" xmlns:xlink="http://www.w3.org/1999/xlink" x="0px" y="0px"
	 width="300px" height="300px" viewBox="0 0 300 300" enable-background="new 0 0 300 300" xml:space="preserve">
<g>
	<polyline fill="none" stroke="#000000" stroke-width="1.2007" stroke-miterlimit="10" points="98.814,13.487 114.436,23.247 
		98.814,32.035 	"/>
	<polyline fill="none" stroke="#000000" stroke-miterlimit="10" points="69,23.5 185,23.5 69,82.5 185,82.5 	"/>
	<polyline fill="none" stroke="#000000" stroke-width="1.3321" stroke-miterlimit="10" points="143.133,73.168 123.906,82.927 
		143.133,91.716 	"/>
	<polyline fill="none" stroke="#000000" stroke-miterlimit="10" points="138.393,37.764 131.351,51.5 146,51.5 	"/>
</g>
<text transform="matrix(1.2725 0 0 1 56.249 23.5)" font-family="'MyriadPro-Regular'" font-size="17.0922">4</text>
<text transform="matrix(1.2725 0 0 1 185 22.7607)" font-family="'MyriadPro-Regular'" font-size="17.0922">12</text>
<text transform="matrix(1.2725 0 0 1 187.5 82.4424)" font-family="'MyriadPro-Regular'" font-size="17.0922">4</text>
<text transform="matrix(1.2725 0 0 1 41.249 82.5)" font-family="'MyriadPro-Regular'" font-size="17.0922">16</text>
<g>
	<polyline fill="none" stroke="#000000" stroke-width="1.2007" stroke-miterlimit="10" points="98.814,110.487 114.436,120.247 
		98.814,129.035 	"/>
	<polyline fill="none" stroke="#000000" stroke-miterlimit="10" points="69,120.5 185,120.5 69,179.5 185,179.5 	"/>
	<polyline fill="none" stroke="#000000" stroke-width="1.3321" stroke-miterlimit="10" points="143.133,170.168 123.906,179.928 
		143.133,188.716 	"/>
	<polyline fill="none" stroke="#000000" stroke-miterlimit="10" points="138.393,134.764 131.351,148.5 146,148.5 	"/>
</g>
<text transform="matrix(1.2725 0 0 1 44.249 120.5)" font-family="'MyriadPro-Regular'" font-size="17.0922">28</text>
<text transform="matrix(1.2725 0 0 1 185 119.7607)" font-family="'MyriadPro-Regular'" font-size="17.0922">8</text>
<text transform="matrix(1.2725 0 0 1 187.5 179.4424)" font-family="'MyriadPro-Regular'" font-size="17.0922">6</text>
<text transform="matrix(1.2725 0 0 1 41.249 179.5)" font-family="'MyriadPro-Regular'" font-size="17.0922">36</text>
<g>
	<polyline fill="none" stroke="#000000" stroke-width="1.2007" stroke-miterlimit="10" points="98.814,207.486 114.436,217.246 
		98.814,226.035 	"/>
	<polyline fill="none" stroke="#000000" stroke-miterlimit="10" points="69,217.5 185,217.5 69,276.5 185,276.5 	"/>
	<polyline fill="none" stroke="#000000" stroke-width="1.3321" stroke-miterlimit="10" points="143.133,267.168 123.906,276.928 
		143.133,285.716 	"/>
	<polyline fill="none" stroke="#000000" stroke-miterlimit="10" points="138.393,231.764 131.351,245.5 146,245.5 	"/>
</g>
<text transform="matrix(1.2725 0 0 1 44.249 217.5)" font-family="'MyriadPro-Regular'" font-size="17.0922">49</text>
<text transform="matrix(1.2725 0 0 1 185 216.7607)" font-family="'MyriadPro-Regular'" font-size="17.0922">95</text>
<text transform="matrix(1.2725 0 0 1 187.5 276.4424)" font-family="'MyriadPro-Regular'" font-size="17.0922">12</text>
<text transform="matrix(1.2725 0 0 1 34.249 276.5)" font-family="'MyriadPro-Regular'" font-size="17.0922">144</text>
</svg>
