<?xml version="1.0" encoding="utf-8"?>
<!-- Generator: Adobe Illustrator 16.0.0, SVG Export Plug-In . SVG Version: 6.00 Build 0)  -->
<!DOCTYPE svg PUBLIC "-//W3C//DTD SVG 1.1//EN" "http://www.w3.org/Graphics/SVG/1.1/DTD/svg11.dtd">
<svg version="1.1" id="Layer_1" xmlns="http://www.w3.org/2000/svg" xmlns:xlink="http://www.w3.org/1999/xlink" x="0px" y="0px"
	 width="300px" height="300px" viewBox="0 0 300 300" enable-background="new 0 0 300 300" xml:space="preserve">
<path fill="none" stroke="#000000" stroke-width="0.964" stroke-miterlimit="10" d="M51.407,27.679c0,0,47.567,127.328,0,239.339"/>
<path fill="none" stroke="#000000" stroke-width="0.964" stroke-miterlimit="10" d="M239.52,27.679c0,0-47.567,127.328,0,239.339"/>
<line fill="none" stroke="#000000" stroke-width="0.964" stroke-miterlimit="10" x1="72.548" y1="163.128" x2="223.43" y2="93.255"/>
<line fill="none" stroke="#000000" stroke-width="0.964" stroke-miterlimit="10" x1="143.775" y1="119.309" x2="159.55" y2="122.838"/>
<line fill="none" stroke="#000000" stroke-width="0.964" stroke-miterlimit="10" x1="159.55" y1="122.838" x2="151.662" y2="139.313"/>
<text transform="matrix(1.014 0 0 1 33.6636 28.3252)" font-family="'MyriadPro-Regular'" font-size="34.4648">a</text>
<text transform="matrix(1.014 0 0 1 31.7222 281.248)" font-family="'MyriadPro-Regular'" font-size="34.4648">b</text>
<text transform="matrix(1.014 0 0 1 137.9844 114.5586)" font-family="'MyriadPro-Regular'" font-size="34.4648">e</text>
<text transform="matrix(1.014 0 0 1 243.2715 30.2402)" font-family="'MyriadPro-Regular'" font-size="34.4648">d</text>
<text transform="matrix(1.014 0 0 1 243.2617 272.1982)" font-family="'MyriadPro-Regular'" font-size="34.4648">c</text>
<text transform="matrix(1 0 0 1 85.8657 25.667)" font-family="'MyriadPro-Regular'" font-size="18">c  = e x d</text>
<text transform="matrix(1 0 0 1 85.8657 44.0601)" font-family="'MyriadPro-Regular'" font-size="18">a  = e x b</text>
<text transform="matrix(1 0 0 1 85.8657 63.9805)" font-family="'MyriadPro-Regular'" font-size="18">b  = a รท e</text>
<text transform="matrix(1 0 0 1 85.8657 82.3887)" font-family="'MyriadPro-Regular'" font-size="18">d  = c รท e</text>
<text transform="matrix(1 0 0 1 85.8657 187.3643)" font-family="'MyriadPro-Regular'" font-size="18">e  = a รท b</text>
</svg>
