<?xml version="1.0" encoding="utf-8"?>
<!-- Generator: Adobe Illustrator 16.0.0, SVG Export Plug-In . SVG Version: 6.00 Build 0)  -->
<!DOCTYPE svg PUBLIC "-//W3C//DTD SVG 1.1//EN" "http://www.w3.org/Graphics/SVG/1.1/DTD/svg11.dtd">
<svg version="1.1" id="Layer_1" xmlns="http://www.w3.org/2000/svg" xmlns:xlink="http://www.w3.org/1999/xlink" x="0px" y="0px"
	 width="300px" height="300px" viewBox="0 0 300 300" enable-background="new 0 0 300 300" xml:space="preserve">
<path fill="none" stroke="#000000" stroke-width="0.4163" stroke-miterlimit="10" d="M35.55,18.701c0,0,18.914,59.702,0,112.222"/>
<path fill="none" stroke="#000000" stroke-width="0.4163" stroke-miterlimit="10" d="M110.349,18.701c0,0-18.915,59.702,0,112.222"
	/>
<line fill="none" stroke="#000000" stroke-width="0.4163" stroke-miterlimit="10" x1="43.956" y1="82.211" x2="103.951" y2="49.449"/>
<line fill="none" stroke="#000000" stroke-width="0.4163" stroke-miterlimit="10" x1="72.278" y1="61.665" x2="78.55" y2="63.319"/>
<line fill="none" stroke="#000000" stroke-width="0.4163" stroke-miterlimit="10" x1="78.55" y1="63.319" x2="75.414" y2="71.044"/>
<text transform="matrix(0.8599 0 0 1 28.4941 19.0034)" font-family="'MyriadPro-Regular'" font-size="16.16">121</text>
<text transform="matrix(0.8599 0 0 1 27.7227 137.5947)" font-family="'MyriadPro-Regular'" font-size="16.16">11</text>
<text transform="matrix(0.8599 0 0 1 69.9756 59.4365)" font-family="'MyriadPro-Regular'" font-size="16.16">11</text>
<text transform="matrix(0.8599 0 0 1 111.8408 19.9014)" font-family="'MyriadPro-Regular'" font-size="16.16">6</text>
<text transform="matrix(0.8599 0 0 1 111.8369 133.3516)" font-family="'MyriadPro-Regular'" font-size="16.16">66</text>
<path fill="none" stroke="#000000" stroke-width="0.4163" stroke-miterlimit="10" d="M187.55,19.701c0,0,18.914,59.702,0,112.222"/>
<path fill="none" stroke="#000000" stroke-width="0.4163" stroke-miterlimit="10" d="M262.35,19.701c0,0-18.915,59.702,0,112.222"/>
<line fill="none" stroke="#000000" stroke-width="0.4163" stroke-miterlimit="10" x1="195.956" y1="83.211" x2="255.951" y2="50.449"/>
<line fill="none" stroke="#000000" stroke-width="0.4163" stroke-miterlimit="10" x1="224.277" y1="62.665" x2="230.551" y2="64.319"/>
<line fill="none" stroke="#000000" stroke-width="0.4163" stroke-miterlimit="10" x1="230.551" y1="64.319" x2="227.414" y2="72.044"/>
<text transform="matrix(0.8599 0 0 1 180.4941 20.0034)" font-family="'MyriadPro-Regular'" font-size="16.16">4</text>
<text transform="matrix(0.8599 0 0 1 179.7227 138.5947)" font-family="'MyriadPro-Regular'" font-size="16.16">2</text>
<text transform="matrix(0.8599 0 0 1 221.9756 60.4365)" font-family="'MyriadPro-Regular'" font-size="16.16">2</text>
<text transform="matrix(0.8599 0 0 1 263.8408 20.9014)" font-family="'MyriadPro-Regular'" font-size="16.16">4</text>
<text transform="matrix(0.8599 0 0 1 263.8369 134.3516)" font-family="'MyriadPro-Regular'" font-size="16.16">8</text>
<path fill="none" stroke="#000000" stroke-width="0.4163" stroke-miterlimit="10" d="M100.55,164.701c0,0,18.914,59.701,0,112.222"
	/>
<path fill="none" stroke="#000000" stroke-width="0.4163" stroke-miterlimit="10" d="M175.35,164.701c0,0-18.915,59.701,0,112.222"
	/>
<line fill="none" stroke="#000000" stroke-width="0.4163" stroke-miterlimit="10" x1="108.956" y1="228.211" x2="168.951" y2="195.449"/>
<line fill="none" stroke="#000000" stroke-width="0.4163" stroke-miterlimit="10" x1="137.277" y1="207.664" x2="143.551" y2="209.319"/>
<line fill="none" stroke="#000000" stroke-width="0.4163" stroke-miterlimit="10" x1="143.551" y1="209.319" x2="140.414" y2="217.045"/>
<text transform="matrix(0.8599 0 0 1 93.4941 165.0039)" font-family="'MyriadPro-Regular'" font-size="16.16">100</text>
<text transform="matrix(0.8599 0 0 1 92.7227 283.5947)" font-family="'MyriadPro-Regular'" font-size="16.16">20</text>
<text transform="matrix(0.8599 0 0 1 134.9756 205.4365)" font-family="'MyriadPro-Regular'" font-size="16.16">5</text>
<text transform="matrix(0.8599 0 0 1 176.8408 165.9014)" font-family="'MyriadPro-Regular'" font-size="16.16">4</text>
<text transform="matrix(0.8599 0 0 1 176.8369 279.3516)" font-family="'MyriadPro-Regular'" font-size="16.16">20</text>
</svg>
