<?xml version="1.0" encoding="utf-8"?>
<!-- Generator: Adobe Illustrator 16.0.0, SVG Export Plug-In . SVG Version: 6.00 Build 0)  -->
<!DOCTYPE svg PUBLIC "-//W3C//DTD SVG 1.1//EN" "http://www.w3.org/Graphics/SVG/1.1/DTD/svg11.dtd">
<svg version="1.1" id="Layer_1" xmlns="http://www.w3.org/2000/svg" xmlns:xlink="http://www.w3.org/1999/xlink" x="0px" y="0px"
	 width="300px" height="300px" viewBox="0 0 300 300" enable-background="new 0 0 300 300" xml:space="preserve">
<circle fill="#FFFFFF" stroke="#000000" stroke-miterlimit="10" cx="67.031" cy="52.188" r="41.624"/>
<circle fill="#FFFFFF" stroke="#000000" stroke-miterlimit="10" cx="192.029" cy="52.188" r="41.624"/>
<circle fill="#FFFFFF" stroke="#000000" stroke-miterlimit="10" cx="129.03" cy="242.188" r="41.624"/>
<line fill="none" stroke="#000000" stroke-miterlimit="10" x1="87.406" y1="88.491" x2="129.03" y2="132"/>
<line fill="none" stroke="#000000" stroke-miterlimit="10" x1="171.029" y1="88.491" x2="129.406" y2="132"/>
<line fill="none" stroke="#000000" stroke-miterlimit="10" x1="129.5" y1="132" x2="129.5" y2="201"/>
<g>
	<line fill="none" stroke="#000000" stroke-miterlimit="10" x1="95.995" y1="106.736" x2="108.655" y2="110.702"/>
	<line fill="none" stroke="#000000" stroke-miterlimit="10" x1="108.655" y1="110.702" x2="108.218" y2="100.137"/>
</g>
<g>
	<line fill="none" stroke="#000000" stroke-miterlimit="10" x1="162.654" y1="106.736" x2="149.995" y2="110.702"/>
	<line fill="none" stroke="#000000" stroke-miterlimit="10" x1="149.995" y1="110.702" x2="150.431" y2="100.137"/>
</g>
<g enable-background="new    ">
	<path d="M44.274,55.568v-9.94h-0.061l-2.175,1.058l-0.333-1.571l2.84-1.329h1.843v11.783H44.274z"/>
	<path d="M48.383,64.813l8.429-21.904h2.055l-8.459,21.904H48.383z"/>
	<path d="M60.528,62.154c0.332,0.03,0.786,0,1.269-0.03c0.937-0.121,1.843-0.453,2.538-1.027c0.786-0.635,1.33-1.571,1.541-2.779
		h-0.03c-0.635,0.725-1.541,1.148-2.719,1.148c-2.145,0-3.656-1.511-3.656-3.626c0-2.235,1.752-4.169,4.26-4.169
		c2.719,0,4.229,2.084,4.229,4.984c0,2.508-0.876,4.32-2.084,5.438c-0.997,0.937-2.417,1.45-3.958,1.602
		c-0.514,0.061-1.058,0.061-1.39,0.03V62.154z M61.495,55.749c0,1.27,0.815,2.267,2.145,2.267c0.997,0,1.752-0.483,2.145-1.088
		c0.091-0.151,0.121-0.362,0.121-0.604c0-1.722-0.665-3.142-2.266-3.142C62.401,53.182,61.495,54.299,61.495,55.749z"/>
</g>
<g enable-background="new    ">
	<path d="M168.846,55.568v-9.94h-0.061l-2.175,1.058l-0.333-1.571l2.841-1.329h1.843v11.783H168.846z"/>
	<path d="M172.955,64.813l8.429-21.904h2.055l-8.46,21.904H172.955z"/>
	<path d="M189.541,63.604v-3.112h-5.71v-1.208l5.348-7.523h2.387v7.252h1.692v1.479h-1.692v3.112H189.541z M189.541,55.447
		c0-0.665,0.061-1.299,0.091-1.903h-0.061c-0.362,0.694-0.665,1.238-1.027,1.782l-2.628,3.626l0.029,0.061h3.596V55.447z"/>
</g>
<text transform="matrix(1 0 0 1 113.1821 257.0059)" font-family="'MyriadPro-Regular'" font-size="30.2129">?</text>
</svg>
