<?xml version="1.0" encoding="utf-8"?>
<!-- Generator: Adobe Illustrator 16.0.0, SVG Export Plug-In . SVG Version: 6.00 Build 0)  -->
<!DOCTYPE svg PUBLIC "-//W3C//DTD SVG 1.1//EN" "http://www.w3.org/Graphics/SVG/1.1/DTD/svg11.dtd">
<svg version="1.1" id="Layer_1" xmlns="http://www.w3.org/2000/svg" xmlns:xlink="http://www.w3.org/1999/xlink" x="0px" y="0px"
	 width="300px" height="300px" viewBox="0 0 300 300" enable-background="new 0 0 300 300" xml:space="preserve">
<path fill="none" stroke="#000000" stroke-width="0.964" stroke-miterlimit="10" d="M47.407,32.679c0,0,47.566,127.328,0,239.338"/>
<path fill="none" stroke="#000000" stroke-width="0.964" stroke-miterlimit="10" d="M235.52,32.679c0,0-47.566,127.328,0,239.338"/>
<line fill="none" stroke="#000000" stroke-width="0.964" stroke-miterlimit="10" x1="68.548" y1="168.128" x2="219.43" y2="98.255"/>
<line fill="none" stroke="#000000" stroke-width="0.964" stroke-miterlimit="10" x1="139.775" y1="124.309" x2="155.55" y2="127.838"/>
<line fill="none" stroke="#000000" stroke-width="0.964" stroke-miterlimit="10" x1="155.55" y1="127.838" x2="147.662" y2="144.313"/>
<text transform="matrix(1.014 0 0 1 20.6995 33.3252)" font-family="'MyriadPro-Regular'" font-size="34.4648">5</text>
<text transform="matrix(1.014 0 0 1 26.718 286.248)" font-family="'MyriadPro-Regular'" font-size="34.4648">5</text>
<text transform="matrix(1.014 0 0 1 233.3069 35.2402)" font-family="'MyriadPro-Regular'" font-size="34.4648">4</text>
<text transform="matrix(1.014 0 0 1 232.2971 288.1982)" font-family="'MyriadPro-Regular'" font-size="34.4648">4</text>
<text transform="matrix(1.014 0 0 1 128.6848 119.4868)" font-family="'MyriadPro-Regular'" font-size="34.4648">?</text>
</svg>
