<?xml version="1.0" encoding="utf-8"?>
<!-- Generator: Adobe Illustrator 16.0.0, SVG Export Plug-In . SVG Version: 6.00 Build 0)  -->
<!DOCTYPE svg PUBLIC "-//W3C//DTD SVG 1.1//EN" "http://www.w3.org/Graphics/SVG/1.1/DTD/svg11.dtd">
<svg version="1.1" id="Layer_1" xmlns="http://www.w3.org/2000/svg" xmlns:xlink="http://www.w3.org/1999/xlink" x="0px" y="0px"
	 width="300px" height="300px" viewBox="0 0 300 300" enable-background="new 0 0 300 300" xml:space="preserve">
<g>
	<g enable-background="new    ">
		<path d="M34.52,54.259c0.9,0.576,2.988,1.476,5.184,1.476c4.067,0,5.327-2.591,5.292-4.535c-0.036-3.275-2.988-4.68-6.047-4.68
			h-1.764v-2.375h1.764c2.304,0,5.219-1.188,5.219-3.96c0-1.872-1.188-3.527-4.104-3.527c-1.872,0-3.671,0.828-4.679,1.548
			l-0.828-2.304c1.224-0.9,3.6-1.8,6.119-1.8c4.607,0,6.695,2.735,6.695,5.579c0,2.412-1.44,4.464-4.319,5.508v0.071
			c2.879,0.576,5.219,2.736,5.219,6.012c0,3.743-2.916,7.019-8.531,7.019c-2.628,0-4.932-0.827-6.083-1.583L34.52,54.259z"/>
		<path d="M134.271,36.729c-0.648-0.036-1.476,0-2.375,0.144c-4.968,0.828-7.595,4.464-8.135,8.315h0.108
			c1.116-1.477,3.06-2.7,5.651-2.7c4.14,0,7.055,2.988,7.055,7.56c0,4.283-2.916,8.242-7.775,8.242
			c-5.003,0-8.279-3.887-8.279-9.971c0-4.607,1.656-8.242,3.96-10.546c1.943-1.908,4.535-3.096,7.487-3.456
			c0.936-0.144,1.728-0.18,2.304-0.18V36.729z M133.371,50.228c0-3.348-1.908-5.363-4.823-5.363c-1.908,0-3.672,1.188-4.536,2.88
			c-0.216,0.359-0.36,0.827-0.36,1.403c0.072,3.852,1.836,6.695,5.147,6.695C131.535,55.843,133.371,53.575,133.371,50.228z"/>
		<path d="M177.363,45.764v-2.159h18.573v2.159H177.363z M177.363,52.819v-2.16h18.573v2.16H177.363z"/>
		<path d="M236.4,37.449h-0.072l-4.068,2.195l-0.611-2.411l5.111-2.736h2.699v23.397H236.4V37.449z"/>
		<path d="M247.705,51.955c0-2.951,1.764-5.039,4.643-6.263l-0.035-0.108c-2.592-1.224-3.708-3.239-3.708-5.255
			c0-3.708,3.132-6.228,7.235-6.228c4.535,0,6.803,2.844,6.803,5.759c0,1.98-0.973,4.104-3.852,5.472v0.108
			c2.916,1.151,4.715,3.203,4.715,6.047c0,4.067-3.491,6.803-7.955,6.803C250.656,58.29,247.705,55.375,247.705,51.955z
			 M260.303,51.812c0-2.844-1.979-4.212-5.147-5.111c-2.735,0.792-4.212,2.592-4.212,4.823c-0.107,2.376,1.692,4.463,4.68,4.463
			C258.467,55.986,260.303,54.223,260.303,51.812z M251.592,40.112c0,2.34,1.764,3.6,4.463,4.32
			c2.017-0.685,3.564-2.124,3.564-4.248c0-1.872-1.116-3.815-3.96-3.815C253.031,36.369,251.592,38.097,251.592,40.112z"/>
	</g>
	<g enable-background="new    ">
		<path d="M42.112,159.052H42.04l-4.067,2.195l-0.612-2.411l5.111-2.736h2.7v23.397h-3.06V159.052z"/>
		<path d="M69.254,167.547c0,7.955-2.952,12.346-8.135,12.346c-4.571,0-7.667-4.283-7.739-12.022c0-7.847,3.383-12.166,8.135-12.166
			C66.446,155.704,69.254,160.096,69.254,167.547z M56.547,167.906c0,6.084,1.872,9.539,4.751,9.539c3.24,0,4.788-3.779,4.788-9.755
			c0-5.759-1.476-9.539-4.751-9.539C58.563,158.151,56.547,161.535,56.547,167.906z"/>
		<path d="M140.856,179.497v-1.943l2.484-2.412c5.975-5.688,8.675-8.711,8.711-12.238c0-2.376-1.152-4.571-4.644-4.571
			c-2.124,0-3.887,1.079-4.967,1.979l-1.008-2.231c1.62-1.368,3.923-2.376,6.623-2.376c5.04,0,7.164,3.455,7.164,6.803
			c0,4.32-3.132,7.812-8.063,12.563l-1.872,1.729v0.071h10.511v2.628H140.856z"/>
		<path d="M197.303,167.366v-2.159h18.573v2.159H197.303z M197.303,174.422v-2.16h18.573v2.16H197.303z"/>
		<path d="M263.431,158.764h-8.927l-0.9,6.012c0.541-0.072,1.045-0.145,1.908-0.145c1.8,0,3.6,0.396,5.039,1.26
			c1.836,1.044,3.348,3.06,3.348,6.012c0,4.571-3.635,7.99-8.711,7.99c-2.555,0-4.715-0.72-5.831-1.439l0.792-2.411
			c0.972,0.575,2.879,1.295,5.004,1.295c2.987,0,5.543-1.943,5.543-5.075c-0.036-3.023-2.052-5.183-6.731-5.183
			c-1.331,0-2.376,0.144-3.239,0.252l1.512-11.231h11.194V158.764z"/>
	</g>
	<polyline fill="none" stroke="#000000" stroke-miterlimit="10" points="64.98,55.02 79.408,37.109 95.826,55.02 	"/>
	<g enable-background="new    ">
		<path d="M48.229,95.868h-8.927l-0.9,6.012c0.54-0.072,1.044-0.145,1.908-0.145c1.8,0,3.6,0.396,5.04,1.26
			c1.835,1.044,3.348,3.06,3.348,6.012c0,4.571-3.636,7.99-8.711,7.99c-2.556,0-4.716-0.72-5.832-1.439l0.792-2.411
			c0.972,0.575,2.88,1.295,5.003,1.295c2.988,0,5.543-1.943,5.543-5.075c-0.036-3.023-2.052-5.183-6.731-5.183
			c-1.332,0-2.375,0.144-3.239,0.252l1.512-11.231h11.194V95.868z"/>
		<path d="M135.381,95.868h-8.927l-0.9,6.012c0.54-0.072,1.044-0.145,1.908-0.145c1.8,0,3.6,0.396,5.04,1.26
			c1.835,1.044,3.348,3.06,3.348,6.012c0,4.571-3.636,7.99-8.711,7.99c-2.556,0-4.716-0.72-5.832-1.439l0.792-2.411
			c0.972,0.575,2.88,1.295,5.003,1.295c2.988,0,5.543-1.943,5.543-5.075c-0.036-3.023-2.052-5.183-6.731-5.183
			c-1.332,0-2.375,0.144-3.239,0.252l1.512-11.231h11.194V95.868z"/>
		<path d="M177.861,104.471v-2.159h18.573v2.159H177.861z M177.861,111.526v-2.16h18.573v2.16H177.861z"/>
		<path d="M230.022,116.602v-1.943l2.483-2.412c5.976-5.688,8.676-8.711,8.711-12.238c0-2.376-1.151-4.571-4.643-4.571
			c-2.124,0-3.888,1.079-4.968,1.979l-1.008-2.231c1.62-1.368,3.923-2.376,6.623-2.376c5.04,0,7.163,3.455,7.163,6.803
			c0,4.32-3.131,7.812-8.063,12.563l-1.872,1.729v0.071h10.511v2.628H230.022z"/>
		<path d="M262.457,95.868h-8.928l-0.899,6.012c0.54-0.072,1.044-0.145,1.907-0.145c1.801,0,3.6,0.396,5.04,1.26
			c1.835,1.044,3.348,3.06,3.348,6.012c0,4.571-3.636,7.99-8.711,7.99c-2.556,0-4.716-0.72-5.831-1.439l0.791-2.411
			c0.973,0.575,2.88,1.295,5.004,1.295c2.988,0,5.543-1.943,5.543-5.075c-0.035-3.023-2.051-5.183-6.73-5.183
			c-1.332,0-2.376,0.144-3.24,0.252l1.512-11.231h11.195V95.868z"/>
	</g>
	<polyline fill="none" stroke="#000000" stroke-miterlimit="10" points="65.478,113.727 79.906,95.815 96.324,113.727 	"/>
	<polyline fill="none" stroke="#000000" stroke-miterlimit="10" points="84.965,160.329 103.373,179.73 121.284,161.82 	"/>
	<g enable-background="new    ">
		<path d="M38.131,219.748h-0.072l-4.067,2.195l-0.612-2.411l5.111-2.736h2.7v23.397h-3.06V219.748z"/>
		<path d="M49.723,240.193v-1.943l2.484-2.412c5.975-5.688,8.675-8.711,8.711-12.238c0-2.375-1.152-4.57-4.644-4.57
			c-2.124,0-3.887,1.078-4.967,1.979l-1.008-2.23c1.62-1.368,3.923-2.377,6.623-2.377c5.04,0,7.163,3.455,7.163,6.804
			c0,4.319-3.131,7.812-8.063,12.563l-1.872,1.729v0.07h10.511v2.629H49.723V240.193z"/>
		<path d="M143.751,219.748h-0.072l-4.067,2.195L139,219.532l5.111-2.736h2.7v23.397h-3.06V219.748L143.751,219.748z"/>
		<path d="M168.697,219.027c-0.647-0.035-1.475,0-2.375,0.145c-4.969,0.828-7.596,4.464-8.135,8.314h0.106
			c1.116-1.477,3.06-2.699,5.651-2.699c4.14,0,7.056,2.988,7.056,7.561c0,4.282-2.916,8.241-7.774,8.241
			c-5.004,0-8.279-3.887-8.279-9.971c0-4.606,1.656-8.242,3.959-10.546c1.943-1.908,4.535-3.096,7.488-3.456
			c0.936-0.144,1.727-0.181,2.303-0.181V219.027z M167.798,232.525c0-3.348-1.907-5.362-4.823-5.362
			c-1.908,0-3.672,1.188-4.535,2.88c-0.217,0.359-0.359,0.827-0.359,1.402c0.07,3.853,1.836,6.695,5.146,6.695
			C165.962,238.143,167.798,235.874,167.798,232.525z"/>
		<path d="M196.525,228.063v-2.158H215.1v2.158H196.525z M196.525,235.118v-2.16H215.1v2.16H196.525z"/>
		<path d="M248.076,217.518c0.828-0.541,2.375-1.117,4.139-1.117c3.096,0,4.393,1.656,4.393,3.385c0,1.439-1.045,2.663-2.771,3.238
			v0.072c1.979,0.288,3.347,1.655,3.347,3.491c0,2.231-2.017,4.212-5.687,4.212c-1.729,0-3.313-0.468-4.104-1.008l0.646-1.8
			c0.576,0.396,1.98,0.936,3.348,0.936c2.197,0,3.168-1.296,3.133-2.411c0-1.801-1.908-2.521-3.815-2.521h-0.972v-1.655h1.009
			c1.329,0,3.237-0.611,3.274-2.304c0-0.864-0.647-1.765-2.268-1.765c-1.297,0-2.484,0.541-3.061,0.937L248.076,217.518z"/>
		<path d="M258.012,241.633l10.043-26.097h2.447l-10.078,26.097H258.012z"/>
		<path d="M277.775,240.193v-3.709h-6.803v-1.438l6.37-8.963h2.845v8.64h2.016v1.764h-2.016v3.707H277.775L277.775,240.193z
			 M277.775,230.475c0-0.791,0.072-1.548,0.106-2.268h-0.071c-0.433,0.828-0.791,1.477-1.224,2.124l-3.133,4.319l0.037,0.07h4.282
			v-4.246H277.775z"/>
	</g>
	<polyline fill="none" stroke="#000000" stroke-miterlimit="10" points="80.984,221.025 99.393,240.427 117.304,222.518 	"/>
</g>
</svg>
