<?xml version="1.0" encoding="utf-8"?>
<!-- Generator: Adobe Illustrator 16.0.0, SVG Export Plug-In . SVG Version: 6.00 Build 0)  -->
<!DOCTYPE svg PUBLIC "-//W3C//DTD SVG 1.1//EN" "http://www.w3.org/Graphics/SVG/1.1/DTD/svg11.dtd">
<svg version="1.1" id="Layer_1" xmlns="http://www.w3.org/2000/svg" xmlns:xlink="http://www.w3.org/1999/xlink" x="0px" y="0px"
	 width="150px" height="150px" viewBox="0 0 150 150" enable-background="new 0 0 150 150" xml:space="preserve">
<g>
	<g enable-background="new    ">
		<path d="M8.596,65.65H8.548l-2.74,1.479l-0.412-1.624l3.443-1.843h1.819v15.76H8.596V65.65z"/>
		<path d="M16.402,79.422v-1.31l1.673-1.624c4.025-3.831,5.843-5.868,5.868-8.244c0-1.6-0.776-3.079-3.128-3.079
			c-1.431,0-2.619,0.728-3.346,1.334l-0.679-1.504c1.091-0.921,2.643-1.6,4.461-1.6c3.395,0,4.825,2.327,4.825,4.582
			c0,2.909-2.109,5.262-5.431,8.462l-1.261,1.164v0.049h7.08v1.77H16.402z"/>
		<path d="M67.143,74.791l-0.049-0.631c-0.146-1.309,0.291-2.739,1.503-4.194c1.091-1.285,1.697-2.23,1.697-3.321
			c0-1.237-0.776-2.062-2.304-2.086c-0.873,0-1.842,0.291-2.449,0.752l-0.582-1.527c0.8-0.582,2.183-0.97,3.467-0.97
			c2.789,0,4.049,1.722,4.049,3.563c0,1.649-0.921,2.837-2.085,4.22c-1.066,1.261-1.455,2.327-1.382,3.563l0.024,0.631H67.143z
			 M66.609,78.186c0-0.897,0.606-1.527,1.455-1.527c0.849,0,1.431,0.63,1.431,1.527c0,0.849-0.558,1.503-1.455,1.503
			C67.191,79.688,66.609,79.034,66.609,78.186z"/>
		<path d="M89.955,71.251v-1.455h12.512v1.455H89.955z M89.955,76.003v-1.454h12.512v1.454H89.955z"/>
		<path d="M128.939,65.165c-0.437-0.024-0.994,0-1.6,0.097c-3.347,0.558-5.117,3.007-5.48,5.602h0.072
			c0.752-0.994,2.062-1.818,3.807-1.818c2.789,0,4.753,2.012,4.753,5.091c0,2.886-1.964,5.553-5.237,5.553
			c-3.37,0-5.576-2.618-5.576-6.716c0-3.104,1.115-5.553,2.667-7.104c1.31-1.285,3.055-2.085,5.043-2.327
			c0.63-0.098,1.164-0.122,1.552-0.122V65.165z M128.334,74.258c0-2.255-1.285-3.613-3.25-3.613c-1.285,0-2.473,0.801-3.055,1.939
			c-0.146,0.243-0.242,0.559-0.242,0.946c0.049,2.594,1.236,4.51,3.467,4.51C127.097,78.04,128.334,76.513,128.334,74.258z"/>
		<path d="M142.855,71.372c0,5.358-1.988,8.316-5.479,8.316c-3.079,0-5.165-2.885-5.213-8.098c0-5.286,2.278-8.195,5.479-8.195
			C140.965,63.396,142.855,66.354,142.855,71.372z M134.297,71.614c0,4.098,1.261,6.426,3.2,6.426c2.183,0,3.225-2.546,3.225-6.571
			c0-3.879-0.994-6.425-3.2-6.425C135.654,65.044,134.297,67.323,134.297,71.614z"/>
	</g>
	<polyline fill="none" stroke="#000000" stroke-width="0.6734" stroke-miterlimit="10" points="33.987,77.484 43.704,65.423 
		54.761,77.484 	"/>
</g>
</svg>
