<?xml version="1.0" encoding="utf-8"?>
<!-- Generator: Adobe Illustrator 16.0.0, SVG Export Plug-In . SVG Version: 6.00 Build 0)  -->
<!DOCTYPE svg PUBLIC "-//W3C//DTD SVG 1.1//EN" "http://www.w3.org/Graphics/SVG/1.1/DTD/svg11.dtd">
<svg version="1.1" id="Layer_1" xmlns="http://www.w3.org/2000/svg" xmlns:xlink="http://www.w3.org/1999/xlink" x="0px" y="0px"
	 width="300px" height="300px" viewBox="0 0 300 300" enable-background="new 0 0 300 300" xml:space="preserve">
<rect x="23.177" y="19.172" fill="none" stroke="#000000" stroke-width="1.043" stroke-miterlimit="10" width="254.728" height="252.238"/>
<polyline fill="none" stroke="#000000" stroke-width="0.981" stroke-miterlimit="10" points="40.047,252.504 77.017,39.071 
	157.557,252.007 211.689,38.574 "/>
<text transform="matrix(0.8846 0 0 1 42.248 262.9521)" font-family="'MyriadPro-Regular'" font-size="36">a</text>
<text transform="matrix(0.8846 0 0 1 53.251 49.0225)" font-family="'MyriadPro-Regular'" font-size="36">b</text>
<text transform="matrix(0.8846 0 0 1 163.2764 259.4707)" font-family="'MyriadPro-Regular'" font-size="36">c</text>
<text transform="matrix(0.8846 0 0 1 187.9238 50.5146)" font-family="'MyriadPro-Regular'" font-size="36">d</text>
<g enable-background="new    ">
	<path d="M191.445,188.823l-0.084-0.731h-0.036c-0.323,0.456-0.947,0.863-1.774,0.863c-1.176,0-1.775-0.827-1.775-1.667
		c0-1.403,1.247-2.171,3.49-2.159v-0.119c0-0.48-0.133-1.344-1.319-1.344c-0.54,0-1.104,0.168-1.511,0.432l-0.24-0.695
		c0.479-0.312,1.175-0.516,1.906-0.516c1.775,0,2.207,1.211,2.207,2.374v2.171c0,0.504,0.023,0.996,0.096,1.392H191.445z
		 M191.289,185.861c-1.151-0.024-2.459,0.18-2.459,1.307c0,0.684,0.457,1.008,0.996,1.008c0.756,0,1.235-0.479,1.403-0.972
		c0.036-0.107,0.06-0.228,0.06-0.336V185.861z"/>
	<path d="M193.283,183.066l0.756-0.695c0.996-0.912,1.512-1.476,1.512-2.087c0-0.456-0.288-0.828-0.912-0.828
		c-0.42,0-0.779,0.204-1.008,0.372l-0.252-0.552c0.324-0.264,0.864-0.504,1.464-0.504c1.128,0,1.595,0.72,1.595,1.355
		c0,0.911-0.684,1.571-1.595,2.363l-0.372,0.335v0.024h2.051v0.659h-3.238V183.066z"/>
	<path d="M203.373,182.442v2.818h2.711v0.72h-2.711v2.843h-0.768v-2.843h-2.711v-0.72h2.711v-2.818H203.373z"/>
	<path d="M209.938,188.823c0.024-0.396,0.048-0.983,0.048-1.499v-7.017h1.043v3.646h0.024c0.372-0.647,1.044-1.067,1.979-1.067
		c1.438,0,2.458,1.199,2.446,2.962c0,2.075-1.308,3.106-2.603,3.106c-0.84,0-1.512-0.323-1.943-1.091h-0.035l-0.049,0.959H209.938z
		 M211.029,186.496c0,0.133,0.024,0.265,0.049,0.384c0.203,0.732,0.815,1.235,1.583,1.235c1.103,0,1.763-0.899,1.763-2.23
		c0-1.163-0.6-2.159-1.727-2.159c-0.721,0-1.392,0.492-1.607,1.296c-0.023,0.12-0.061,0.264-0.061,0.432V186.496z"/>
	<path d="M216.083,183.066l0.755-0.695c0.996-0.912,1.512-1.476,1.512-2.087c0-0.456-0.287-0.828-0.912-0.828
		c-0.419,0-0.779,0.204-1.007,0.372l-0.252-0.552c0.323-0.264,0.864-0.504,1.464-0.504c1.127,0,1.595,0.72,1.595,1.355
		c0,0.911-0.684,1.571-1.595,2.363l-0.373,0.335v0.024h2.052v0.659h-3.238V183.066z"/>
	<path d="M225.537,185.189v0.779h-2.963v-0.779H225.537z"/>
	<path d="M234.331,180.308v7.017c0,0.516,0.013,1.104,0.048,1.499h-0.947l-0.048-1.008h-0.024c-0.324,0.648-1.031,1.14-1.979,1.14
		c-1.403,0-2.482-1.188-2.482-2.95c-0.012-1.931,1.188-3.118,2.602-3.118c0.889,0,1.488,0.42,1.752,0.888h0.023v-3.467H234.331z
		 M233.275,185.381c0-0.132-0.012-0.312-0.048-0.443c-0.155-0.672-0.731-1.224-1.522-1.224c-1.092,0-1.74,0.96-1.74,2.243
		c0,1.175,0.576,2.146,1.716,2.146c0.708,0,1.354-0.468,1.547-1.259c0.036-0.145,0.048-0.288,0.048-0.456V185.381z"/>
	<path d="M238.233,184.781v-0.72h6.188v0.72H238.233z M238.233,187.132v-0.72h6.188v0.72H238.233z"/>
	<path d="M255.007,188.607c-0.276,0.144-0.888,0.336-1.667,0.336c-1.751,0-2.891-1.188-2.891-2.963c0-1.787,1.224-3.082,3.119-3.082
		c0.623,0,1.175,0.156,1.463,0.3l-0.24,0.815c-0.252-0.144-0.647-0.275-1.223-0.275c-1.332,0-2.052,0.983-2.052,2.194
		c0,1.344,0.864,2.171,2.015,2.171c0.6,0,0.996-0.156,1.296-0.288L255.007,188.607z"/>
</g>
<g enable-background="new    ">
	<path d="M191.445,205.738l-0.084-0.731h-0.036c-0.323,0.456-0.947,0.863-1.774,0.863c-1.176,0-1.775-0.827-1.775-1.667
		c0-1.403,1.247-2.171,3.49-2.159v-0.119c0-0.48-0.133-1.344-1.319-1.344c-0.54,0-1.104,0.168-1.511,0.432l-0.24-0.695
		c0.479-0.312,1.175-0.516,1.906-0.516c1.775,0,2.207,1.211,2.207,2.374v2.171c0,0.504,0.023,0.996,0.096,1.392H191.445z
		 M191.289,202.776c-1.151-0.024-2.459,0.18-2.459,1.307c0,0.684,0.457,1.008,0.996,1.008c0.756,0,1.235-0.479,1.403-0.972
		c0.036-0.107,0.06-0.228,0.06-0.336V202.776z"/>
	<path d="M193.283,199.981l0.756-0.695c0.996-0.912,1.512-1.476,1.512-2.087c0-0.456-0.288-0.828-0.912-0.828
		c-0.42,0-0.779,0.204-1.008,0.372l-0.252-0.552c0.324-0.264,0.864-0.504,1.464-0.504c1.128,0,1.595,0.72,1.595,1.355
		c0,0.911-0.684,1.571-1.595,2.363l-0.372,0.335v0.024h2.051v0.659h-3.238V199.981z"/>
	<path d="M203.373,199.357v2.818h2.711v0.72h-2.711v2.843h-0.768v-2.843h-2.711v-0.72h2.711v-2.818H203.373z"/>
	<path d="M209.938,205.738c0.024-0.396,0.048-0.983,0.048-1.499v-7.017h1.043v3.646h0.024c0.372-0.647,1.044-1.067,1.979-1.067
		c1.438,0,2.458,1.199,2.446,2.962c0,2.075-1.308,3.106-2.603,3.106c-0.84,0-1.512-0.323-1.943-1.091h-0.035l-0.049,0.959H209.938z
		 M211.029,203.411c0,0.133,0.024,0.265,0.049,0.384c0.203,0.732,0.815,1.235,1.583,1.235c1.103,0,1.763-0.899,1.763-2.23
		c0-1.163-0.6-2.159-1.727-2.159c-0.721,0-1.392,0.492-1.607,1.296c-0.023,0.12-0.061,0.264-0.061,0.432V203.411z"/>
	<path d="M216.083,199.981l0.755-0.695c0.996-0.912,1.512-1.476,1.512-2.087c0-0.456-0.287-0.828-0.912-0.828
		c-0.419,0-0.779,0.204-1.007,0.372l-0.252-0.552c0.323-0.264,0.864-0.504,1.464-0.504c1.127,0,1.595,0.72,1.595,1.355
		c0,0.911-0.684,1.571-1.595,2.363l-0.373,0.335v0.024h2.052v0.659h-3.238V199.981z"/>
	<path d="M225.537,202.104v0.779h-2.963v-0.779H225.537z"/>
	<path d="M233.455,205.522c-0.275,0.144-0.887,0.336-1.666,0.336c-1.752,0-2.891-1.188-2.891-2.963c0-1.787,1.223-3.082,3.118-3.082
		c0.624,0,1.175,0.156,1.463,0.3l-0.239,0.815c-0.252-0.144-0.648-0.275-1.224-0.275c-1.331,0-2.052,0.983-2.052,2.194
		c0,1.344,0.864,2.171,2.016,2.171c0.6,0,0.996-0.156,1.295-0.288L233.455,205.522z"/>
	<path d="M236.842,201.696v-0.72h6.189v0.72H236.842z M236.842,204.047v-0.72h6.189v0.72H236.842z"/>
	<path d="M254.49,197.223v7.017c0,0.516,0.013,1.104,0.049,1.499h-0.947l-0.049-1.008h-0.023c-0.324,0.648-1.031,1.14-1.979,1.14
		c-1.404,0-2.483-1.188-2.483-2.95c-0.012-1.931,1.188-3.118,2.603-3.118c0.888,0,1.487,0.42,1.752,0.888h0.023v-3.467H254.49z
		 M253.436,202.296c0-0.132-0.012-0.312-0.049-0.443c-0.155-0.672-0.73-1.224-1.522-1.224c-1.091,0-1.739,0.96-1.739,2.243
		c0,1.175,0.576,2.146,1.715,2.146c0.708,0,1.355-0.468,1.547-1.259c0.037-0.145,0.049-0.288,0.049-0.456V202.296z"/>
</g>
<g enable-background="new    ">
	<path d="M191.556,157.625h-0.768l-1.907-5.134l-0.898,0.384l-0.229-0.563l1.655-0.695l1.476,4.149
		c0.096,0.252,0.18,0.54,0.228,0.768h0.024c0.035-0.204,0.096-0.516,0.155-0.779l2.231-9.188h0.791L191.556,157.625z"/>
	<path d="M197.28,148.162c-0.876,1.175-1.511,2.734-1.511,4.905c0,2.135,0.66,3.67,1.511,4.869h-0.827
		c-0.756-0.995-1.571-2.53-1.571-4.869c0.013-2.363,0.815-3.898,1.571-4.905H197.28z"/>
	<path d="M202.535,156.27c-0.275,0.144-0.888,0.336-1.667,0.336c-1.751,0-2.891-1.188-2.891-2.963c0-1.787,1.224-3.082,3.118-3.082
		c0.624,0,1.176,0.156,1.463,0.3l-0.239,0.815c-0.252-0.144-0.647-0.275-1.224-0.275c-1.331,0-2.051,0.983-2.051,2.194
		c0,1.344,0.863,2.171,2.016,2.171c0.6,0,0.995-0.156,1.295-0.288L202.535,156.27z"/>
	<path d="M209.4,150.104v2.818h2.71v0.72h-2.71v2.843h-0.768v-2.843h-2.711v-0.72h2.711v-2.818H209.4z"/>
	<path d="M221.026,147.97v7.017c0,0.516,0.013,1.104,0.048,1.499h-0.947l-0.048-1.008h-0.024c-0.324,0.648-1.031,1.14-1.979,1.14
		c-1.403,0-2.482-1.188-2.482-2.95c-0.012-1.931,1.188-3.118,2.602-3.118c0.889,0,1.488,0.42,1.752,0.888h0.023v-3.467H221.026z
		 M219.971,153.043c0-0.132-0.012-0.312-0.048-0.443c-0.155-0.672-0.731-1.224-1.522-1.224c-1.092,0-1.74,0.96-1.74,2.243
		c0,1.175,0.576,2.146,1.716,2.146c0.708,0,1.354-0.468,1.547-1.259c0.036-0.145,0.048-0.288,0.048-0.456V153.043z"/>
	<path d="M227.771,152.852v0.779h-2.962v-0.779H227.771z"/>
	<path d="M231.505,156.485c0.024-0.396,0.048-0.983,0.048-1.499v-7.017h1.043v3.646h0.024c0.372-0.647,1.044-1.067,1.979-1.067
		c1.438,0,2.458,1.199,2.446,2.962c0,2.075-1.308,3.106-2.603,3.106c-0.84,0-1.512-0.323-1.943-1.091h-0.035l-0.049,0.959H231.505z
		 M232.596,154.158c0,0.133,0.024,0.265,0.049,0.384c0.203,0.732,0.815,1.235,1.583,1.235c1.103,0,1.763-0.899,1.763-2.23
		c0-1.163-0.6-2.159-1.727-2.159c-0.721,0-1.392,0.492-1.607,1.296c-0.023,0.12-0.061,0.264-0.061,0.432V154.158z"/>
	<path d="M237.648,150.729l0.756-0.695c0.996-0.912,1.512-1.476,1.512-2.087c0-0.456-0.288-0.828-0.912-0.828
		c-0.42,0-0.779,0.204-1.008,0.372l-0.252-0.552c0.324-0.264,0.864-0.504,1.464-0.504c1.128,0,1.595,0.72,1.595,1.355
		c0,0.911-0.684,1.571-1.595,2.363l-0.372,0.335v0.024h2.051v0.659h-3.238V150.729z"/>
	<path d="M241.477,157.937c0.852-1.188,1.512-2.746,1.512-4.905c0-2.146-0.648-3.682-1.512-4.869h0.815
		c0.768,0.983,1.571,2.519,1.571,4.881c0,2.351-0.804,3.874-1.571,4.894H241.477z"/>
	<path d="M247.669,152.443v-0.72h6.188v0.72H247.669z M247.669,154.794v-0.72h6.188v0.72H247.669z"/>
	<path d="M260.975,156.485l-0.084-0.731h-0.036c-0.323,0.456-0.947,0.863-1.774,0.863c-1.176,0-1.775-0.827-1.775-1.667
		c0-1.403,1.247-2.171,3.49-2.159v-0.119c0-0.48-0.133-1.344-1.319-1.344c-0.54,0-1.104,0.168-1.511,0.432l-0.24-0.695
		c0.479-0.312,1.175-0.516,1.906-0.516c1.775,0,2.207,1.211,2.207,2.374v2.171c0,0.504,0.023,0.996,0.096,1.392H260.975z
		 M260.818,153.523c-1.151-0.024-2.459,0.18-2.459,1.307c0,0.684,0.457,1.008,0.996,1.008c0.756,0,1.235-0.479,1.403-0.972
		c0.036-0.107,0.06-0.228,0.06-0.336V153.523z"/>
</g>
<g enable-background="new    ">
	<path d="M190.562,172.551h-0.768l-1.907-5.134l-0.898,0.384l-0.229-0.563l1.655-0.695l1.476,4.149
		c0.096,0.252,0.18,0.54,0.228,0.768h0.024c0.035-0.204,0.096-0.516,0.155-0.779l2.231-9.188h0.791L190.562,172.551z"/>
	<path d="M196.286,163.088c-0.876,1.175-1.511,2.734-1.511,4.905c0,2.135,0.66,3.67,1.511,4.869h-0.827
		c-0.756-0.995-1.571-2.53-1.571-4.869c0.013-2.363,0.815-3.898,1.571-4.905H196.286z"/>
	<path d="M201.541,171.195c-0.275,0.144-0.888,0.336-1.667,0.336c-1.751,0-2.891-1.188-2.891-2.963c0-1.787,1.224-3.082,3.118-3.082
		c0.624,0,1.176,0.156,1.463,0.3l-0.239,0.815c-0.252-0.144-0.647-0.275-1.224-0.275c-1.331,0-2.051,0.983-2.051,2.194
		c0,1.344,0.863,2.171,2.016,2.171c0.6,0,0.995-0.156,1.295-0.288L201.541,171.195z"/>
	<path d="M208.406,165.03v2.818h2.71v0.72h-2.71v2.843h-0.768v-2.843h-2.711v-0.72h2.711v-2.818H208.406z"/>
	<path d="M220.032,162.896v7.017c0,0.516,0.013,1.104,0.048,1.499h-0.947l-0.048-1.008h-0.024c-0.324,0.648-1.031,1.14-1.979,1.14
		c-1.403,0-2.482-1.188-2.482-2.95c-0.012-1.931,1.188-3.118,2.602-3.118c0.889,0,1.488,0.42,1.752,0.888h0.023v-3.467H220.032z
		 M218.977,167.969c0-0.132-0.012-0.312-0.048-0.443c-0.155-0.672-0.731-1.224-1.522-1.224c-1.092,0-1.74,0.96-1.74,2.243
		c0,1.175,0.576,2.146,1.716,2.146c0.708,0,1.354-0.468,1.547-1.259c0.036-0.145,0.048-0.288,0.048-0.456V167.969z"/>
	<path d="M226.777,167.777v0.779h-2.962v-0.779H226.777z"/>
	<path d="M233.773,171.411l-0.084-0.731h-0.037c-0.323,0.456-0.947,0.863-1.774,0.863c-1.175,0-1.774-0.827-1.774-1.667
		c0-1.403,1.246-2.171,3.489-2.159v-0.119c0-0.48-0.132-1.344-1.319-1.344c-0.539,0-1.104,0.168-1.511,0.432l-0.24-0.695
		c0.479-0.312,1.176-0.516,1.907-0.516c1.775,0,2.207,1.211,2.207,2.374v2.171c0,0.504,0.023,0.996,0.096,1.392H233.773z
		 M233.617,168.449c-1.151-0.024-2.459,0.18-2.459,1.307c0,0.684,0.456,1.008,0.996,1.008c0.755,0,1.234-0.479,1.402-0.972
		c0.036-0.107,0.061-0.228,0.061-0.336V168.449z"/>
	<path d="M235.611,165.654l0.756-0.695c0.995-0.912,1.511-1.476,1.511-2.087c0-0.456-0.288-0.828-0.911-0.828
		c-0.42,0-0.779,0.204-1.008,0.372l-0.252-0.552c0.324-0.264,0.863-0.504,1.463-0.504c1.128,0,1.596,0.72,1.596,1.355
		c0,0.911-0.684,1.571-1.596,2.363l-0.371,0.335v0.024h2.051v0.659h-3.238V165.654z"/>
	<path d="M239.439,172.862c0.852-1.188,1.511-2.746,1.511-4.905c0-2.146-0.647-3.682-1.511-4.869h0.815
		c0.768,0.983,1.571,2.519,1.571,4.881c0,2.351-0.804,3.874-1.571,4.894H239.439z"/>
	<path d="M245.631,167.369v-0.72h6.188v0.72H245.631z M245.631,169.72V169h6.188v0.72H245.631z"/>
	<path d="M255.674,171.411c0.024-0.396,0.049-0.983,0.049-1.499v-7.017h1.043v3.646h0.023c0.373-0.647,1.044-1.067,1.979-1.067
		c1.438,0,2.458,1.199,2.446,2.962c0,2.075-1.307,3.106-2.602,3.106c-0.84,0-1.512-0.323-1.943-1.091h-0.036l-0.048,0.959H255.674z
		 M256.766,169.084c0,0.133,0.023,0.265,0.048,0.384c0.204,0.732,0.815,1.235,1.583,1.235c1.104,0,1.764-0.899,1.764-2.23
		c0-1.163-0.6-2.159-1.728-2.159c-0.72,0-1.392,0.492-1.606,1.296c-0.024,0.12-0.061,0.264-0.061,0.432V169.084z"/>
</g>
<polyline fill="none" stroke="#000000" stroke-miterlimit="10" points="45.564,148.55 62.192,127.654 68.948,147.321 "/>
<line fill="none" stroke="#000000" stroke-miterlimit="10" x1="194.314" y1="146.566" x2="245.631" y2="146.566"/>
<line fill="none" stroke="#000000" stroke-miterlimit="10" x1="193.663" y1="161.36" x2="244.979" y2="161.36"/>
</svg>
