<?xml version="1.0" encoding="utf-8"?>
<!-- Generator: Adobe Illustrator 16.0.0, SVG Export Plug-In . SVG Version: 6.00 Build 0)  -->
<!DOCTYPE svg PUBLIC "-//W3C//DTD SVG 1.1//EN" "http://www.w3.org/Graphics/SVG/1.1/DTD/svg11.dtd">
<svg version="1.1" id="Layer_1" xmlns="http://www.w3.org/2000/svg" xmlns:xlink="http://www.w3.org/1999/xlink" x="0px" y="0px"
	 width="300px" height="300px" viewBox="0 0 300 300" enable-background="new 0 0 300 300" xml:space="preserve">
<rect x="23.177" y="16.172" fill="none" stroke="#000000" stroke-width="0.4784" stroke-miterlimit="10" width="109.95" height="122.925"/>
<polyline fill="none" stroke="#000000" stroke-width="0.5064" stroke-miterlimit="10" points="30.459,129.883 50.671,25.87 
	94.706,129.641 124.303,25.627 "/>
<text transform="matrix(0.9925 0 0 1 34.251 134.4873)" font-family="'MyriadPro-Regular'" font-size="17.5442">4</text>
<text transform="matrix(0.9925 0 0 1 52.9233 31.4458)" font-family="'MyriadPro-Regular'" font-size="17.5442">1</text>
<text transform="matrix(0.9925 0 0 1 97.833 133.2783)" font-family="'MyriadPro-Regular'" font-size="17.5442">13</text>
<text transform="matrix(0.9925 0 0 1 113.8984 31.4453)" font-family="'MyriadPro-Regular'" font-size="17.5442">4</text>
<polyline fill="none" stroke="#000000" stroke-width="0.4586" stroke-miterlimit="10" points="35.847,71.709 42.719,65.647 
	45.725,72.437 "/>
<rect x="159.992" y="17.664" fill="none" stroke="#000000" stroke-width="0.4784" stroke-miterlimit="10" width="109.951" height="122.925"/>
<polyline fill="none" stroke="#000000" stroke-width="0.5064" stroke-miterlimit="10" points="167.275,131.375 187.487,27.362 
	231.521,131.133 261.119,27.119 "/>
<text transform="matrix(0.9925 0 0 1 171.0664 135.9795)" font-family="'MyriadPro-Regular'" font-size="17.5442">5</text>
<text transform="matrix(0.9925 0 0 1 189.7393 32.938)" font-family="'MyriadPro-Regular'" font-size="17.5442">3</text>
<text transform="matrix(0.9925 0 0 1 234.6484 134.7705)" font-family="'MyriadPro-Regular'" font-size="17.5442">15</text>
<text transform="matrix(0.9925 0 0 1 240.7148 32.9375)" font-family="'MyriadPro-Regular'" font-size="17.5442">19</text>
<polyline fill="none" stroke="#000000" stroke-width="0.4586" stroke-miterlimit="10" points="172.662,73.201 179.535,67.14 
	182.541,73.929 "/>
<rect x="98.301" y="162.439" fill="none" stroke="#000000" stroke-width="0.4784" stroke-miterlimit="10" width="109.951" height="122.926"/>
<polyline fill="none" stroke="#000000" stroke-width="0.5064" stroke-miterlimit="10" points="105.584,276.151 125.796,172.138 
	169.83,275.909 199.428,171.895 "/>
<text transform="matrix(0.9925 0 0 1 109.3755 280.7559)" font-family="'MyriadPro-Regular'" font-size="17.5442">0</text>
<text transform="matrix(0.9925 0 0 1 128.0479 177.7139)" font-family="'MyriadPro-Regular'" font-size="17.5442">5</text>
<text transform="matrix(0.9925 0 0 1 172.957 279.5469)" font-family="'MyriadPro-Regular'" font-size="17.5442">5</text>
<text transform="matrix(0.9925 0 0 1 180.0234 177.7129)" font-family="'MyriadPro-Regular'" font-size="17.5442">20</text>
<polyline fill="none" stroke="#000000" stroke-width="0.4586" stroke-miterlimit="10" points="110.971,217.977 117.844,211.916 
	120.85,218.705 "/>
</svg>
