<?xml version="1.0" encoding="utf-8"?>
<!-- Generator: Adobe Illustrator 16.0.0, SVG Export Plug-In . SVG Version: 6.00 Build 0)  -->
<!DOCTYPE svg PUBLIC "-//W3C//DTD SVG 1.1//EN" "http://www.w3.org/Graphics/SVG/1.1/DTD/svg11.dtd">
<svg version="1.1" id="Layer_1" xmlns="http://www.w3.org/2000/svg" xmlns:xlink="http://www.w3.org/1999/xlink" x="0px" y="0px"
	 width="300px" height="300px" viewBox="0 0 300 300" enable-background="new 0 0 300 300" xml:space="preserve">
<line fill="none" stroke="#000000" stroke-miterlimit="10" x1="74" y1="7.5" x2="74" y2="130.5"/>
<line fill="none" stroke="#000000" stroke-miterlimit="10" x1="7.5" y1="69" x2="141.5" y2="69"/>
<polyline fill="none" stroke="#000000" stroke-width="0.4701" stroke-miterlimit="10" points="32.213,63.94 36.864,69.079 
	30.499,72.877 "/>
<polyline fill="none" stroke="#000000" stroke-width="0.4701" stroke-miterlimit="10" points="70.65,33.331 74.812,27.298 
	78.484,32.214 "/>
<polyline fill="none" stroke="#000000" stroke-width="0.4701" stroke-miterlimit="10" points="110.066,63.493 115.452,68.856 
	109.822,72.654 "/>
<polyline fill="none" stroke="#000000" stroke-width="0.4701" stroke-miterlimit="10" points="69.181,106.392 74.567,100.359 
	79.953,105.498 "/>
<rect x="59" y="59" fill="#FFFFFF" stroke="#000000" stroke-miterlimit="10" width="31" height="20"/>
<text transform="matrix(1.0958 0 0 1 71.3857 74.0078)" font-family="'MyriadPro-Regular'" font-size="16.1672">5</text>
<text transform="matrix(1.0958 0 0 1 3.3242 65.9434)" font-family="'MyriadPro-Regular'" font-size="16.1672">3</text>
<text transform="matrix(1.0958 0 0 1 75.5469 18.1758)" font-family="'MyriadPro-Regular'" font-size="16.1672">6</text>
<text transform="matrix(1.0958 0 0 1 133.0801 67.5156)" font-family="'MyriadPro-Regular'" font-size="16.1672">2</text>
<text transform="matrix(1.0958 0 0 1 76.2813 131.1934)" font-family="'MyriadPro-Regular'" font-size="16.1672">4</text>
<line fill="none" stroke="#000000" stroke-miterlimit="10" x1="222" y1="10.5" x2="222" y2="133.5"/>
<line fill="none" stroke="#000000" stroke-miterlimit="10" x1="155.5" y1="72" x2="289.5" y2="72"/>
<polyline fill="none" stroke="#000000" stroke-width="0.4701" stroke-miterlimit="10" points="180.213,66.94 184.863,72.079 
	178.498,75.877 "/>
<polyline fill="none" stroke="#000000" stroke-width="0.4701" stroke-miterlimit="10" points="218.65,36.331 222.813,30.298 
	226.484,35.214 "/>
<polyline fill="none" stroke="#000000" stroke-width="0.4701" stroke-miterlimit="10" points="258.066,66.493 263.452,71.856 
	257.822,75.654 "/>
<polyline fill="none" stroke="#000000" stroke-width="0.4701" stroke-miterlimit="10" points="217.182,109.392 222.566,103.359 
	227.953,108.498 "/>
<rect x="207" y="62" fill="#FFFFFF" stroke="#000000" stroke-miterlimit="10" width="31" height="20"/>
<text transform="matrix(1.0958 0 0 1 219.3857 77.0078)" font-family="'MyriadPro-Regular'" font-size="16.1672">3</text>
<text transform="matrix(1.0958 0 0 1 151.3242 68.9434)" font-family="'MyriadPro-Regular'" font-size="16.1672">1</text>
<text transform="matrix(1.0958 0 0 1 223.5469 21.1758)" font-family="'MyriadPro-Regular'" font-size="16.1672">2</text>
<text transform="matrix(1.0958 0 0 1 281.0801 70.5156)" font-family="'MyriadPro-Regular'" font-size="16.1672">1</text>
<text transform="matrix(1.0958 0 0 1 224.2813 134.1934)" font-family="'MyriadPro-Regular'" font-size="16.1672">3</text>
<line fill="none" stroke="#000000" stroke-miterlimit="10" x1="147" y1="143.5" x2="147" y2="266.5"/>
<line fill="none" stroke="#000000" stroke-miterlimit="10" x1="80.5" y1="205" x2="214.5" y2="205"/>
<polyline fill="none" stroke="#000000" stroke-width="0.4701" stroke-miterlimit="10" points="105.213,199.939 109.864,205.079 
	103.498,208.877 "/>
<polyline fill="none" stroke="#000000" stroke-width="0.4701" stroke-miterlimit="10" points="143.65,169.33 147.813,163.299 
	151.484,168.214 "/>
<polyline fill="none" stroke="#000000" stroke-width="0.4701" stroke-miterlimit="10" points="183.066,199.493 188.452,204.855 
	182.822,208.654 "/>
<polyline fill="none" stroke="#000000" stroke-width="0.4701" stroke-miterlimit="10" points="142.181,242.393 147.566,236.359 
	152.953,241.498 "/>
<rect x="132" y="195" fill="#FFFFFF" stroke="#000000" stroke-miterlimit="10" width="31" height="20"/>
<text transform="matrix(1.0958 0 0 1 144.3857 210.0078)" font-family="'MyriadPro-Regular'" font-size="16.1672">5</text>
<text transform="matrix(1.0958 0 0 1 76.3242 201.9434)" font-family="'MyriadPro-Regular'" font-size="16.1672">1</text>
<text transform="matrix(1.0958 0 0 1 148.5469 154.1758)" font-family="'MyriadPro-Regular'" font-size="16.1672">1</text>
<text transform="matrix(1.0958 0 0 1 206.0801 203.5156)" font-family="'MyriadPro-Regular'" font-size="16.1672">0</text>
<text transform="matrix(1.0958 0 0 1 149.2813 267.1934)" font-family="'MyriadPro-Regular'" font-size="16.1672">5</text>
</svg>
