<?xml version="1.0" encoding="utf-8"?>
<!-- Generator: Adobe Illustrator 16.0.0, SVG Export Plug-In . SVG Version: 6.00 Build 0)  -->
<!DOCTYPE svg PUBLIC "-//W3C//DTD SVG 1.1//EN" "http://www.w3.org/Graphics/SVG/1.1/DTD/svg11.dtd">
<svg version="1.1" id="Layer_1" xmlns="http://www.w3.org/2000/svg" xmlns:xlink="http://www.w3.org/1999/xlink" x="0px" y="0px"
	 width="300px" height="300px" viewBox="0 0 300 300" enable-background="new 0 0 300 300" xml:space="preserve">
<rect x="23.177" y="18.172" fill="none" stroke="#000000" stroke-width="1.043" stroke-miterlimit="10" width="254.728" height="252.238"/>
<polyline fill="none" stroke="#000000" stroke-width="1.104" stroke-miterlimit="10" points="40.047,251.504 86.875,38.071 
	188.893,251.007 257.461,37.574 "/>
<g enable-background="new    ">
	<path d="M53.151,245.006v-11.807H53.07l-2.905,1.225l-0.444-1.872l3.792-1.584h2.461v14.038H53.151z"/>
	<path d="M58.635,262.393l11.256-26.098h2.743l-11.296,26.098H58.635z"/>
	<path d="M72.995,264.912l2.542-2.124c3.349-2.7,5.083-4.392,5.083-6.228c0-1.367-0.968-2.52-3.066-2.52
		c-1.412,0-2.623,0.648-3.389,1.115l-0.847-1.619c1.089-0.828,2.904-1.512,4.922-1.512c3.792,0,5.366,2.123,5.366,4.067
		c0,2.7-2.3,4.679-5.366,7.091l-1.251,1.008v0.072h6.899v1.98H72.995V264.912z"/>
</g>
<g enable-background="new    ">
	<path d="M101.615,29.069h-0.081l-4.559,2.196l-0.686-2.412l5.729-2.735h3.026v23.397h-3.429V29.069z"/>
	<path d="M117.104,33.569V21.762h-0.081l-2.905,1.224l-0.444-1.872l3.792-1.584h2.461v14.039H117.104z"/>
	<path d="M122.588,50.955l11.256-26.097h2.743l-11.296,26.097H122.588z"/>
	<path d="M136.948,53.474l2.542-2.124c3.349-2.7,5.083-4.392,5.083-6.228c0-1.368-0.968-2.52-3.066-2.52
		c-1.412,0-2.622,0.648-3.389,1.116l-0.848-1.62c1.089-0.828,2.905-1.512,4.922-1.512c3.792,0,5.366,2.124,5.366,4.067
		c0,2.7-2.3,4.679-5.366,7.091l-1.251,1.008v0.072h6.899v1.98h-10.893V53.474z"/>
</g>
<g enable-background="new    ">
	<path d="M205.658,238.025h-0.081l-4.559,2.195l-0.687-2.412l5.729-2.734h3.026v23.396h-3.43V238.025z"/>
	<path d="M217.959,229.459c0.928-0.541,2.663-1.152,4.64-1.152c3.47,0,4.923,1.656,4.923,3.42c0,1.439-1.171,2.627-3.107,3.239
		v0.071c2.219,0.252,3.752,1.656,3.752,3.456c0,2.231-2.259,4.212-6.374,4.212c-1.937,0-3.712-0.432-4.599-0.973l0.726-1.799
		c0.646,0.359,2.219,0.936,3.752,0.936c2.461,0,3.55-1.296,3.51-2.412c0-1.836-2.138-2.556-4.276-2.556h-1.09v-1.655h1.131
		c1.492,0,3.631-0.612,3.671-2.268c0-0.9-0.727-1.801-2.542-1.801c-1.452,0-2.783,0.576-3.43,0.973L217.959,229.459z"/>
	<path d="M229.092,259.91l11.256-26.096h2.744l-11.297,26.096H229.092z"/>
	<path d="M251.238,263.762v-3.707h-7.625v-1.439l7.141-8.963h3.188v8.639h2.26v1.764h-2.26v3.707H251.238z M251.238,254.043
		c0-0.791,0.08-1.547,0.121-2.268h-0.08c-0.484,0.828-0.889,1.477-1.372,2.124l-3.511,4.319l0.041,0.072h4.801V254.043z"/>
</g>
<text transform="matrix(1.1205 0 0 1 233.3574 49.5146)" font-family="'MyriadPro-Regular'" font-size="36">?</text>
<polyline fill="none" stroke="#000000" stroke-miterlimit="10" points="52.53,132.132 68.45,119.694 75.416,133.625 "/>
</svg>
