<?xml version="1.0" encoding="utf-8"?>
<!-- Generator: Adobe Illustrator 16.0.0, SVG Export Plug-In . SVG Version: 6.00 Build 0)  -->
<!DOCTYPE svg PUBLIC "-//W3C//DTD SVG 1.1//EN" "http://www.w3.org/Graphics/SVG/1.1/DTD/svg11.dtd">
<svg version="1.1" id="Layer_1" xmlns="http://www.w3.org/2000/svg" xmlns:xlink="http://www.w3.org/1999/xlink" x="0px" y="0px"
	 width="300px" height="300px" viewBox="0 0 300 300" enable-background="new 0 0 300 300" xml:space="preserve">
<line fill="none" stroke="#000000" stroke-miterlimit="10" x1="48.437" y1="29.041" x2="153.514" y2="124.979"/>
<line fill="none" stroke="#000000" stroke-miterlimit="10" x1="258.514" y1="29.041" x2="153.438" y2="124.979"/>
<line fill="none" stroke="#000000" stroke-miterlimit="10" x1="153.5" y1="125" x2="153.5" y2="275"/>
<text transform="matrix(1 0 0 1 30.9741 27.0098)" font-family="'MyriadPro-Regular'" font-size="36">a</text>
<text transform="matrix(1 0 0 1 248.2715 27.0098)" font-family="'MyriadPro-Regular'" font-size="36">b</text>
<text transform="matrix(1 0 0 1 145.3726 295.5371)" font-family="'MyriadPro-Regular'" font-size="36">c</text>
<g enable-background="new    ">
	<path d="M116.211,31.468c-0.414,0.216-1.333,0.504-2.503,0.504c-2.629,0-4.339-1.782-4.339-4.447c0-2.683,1.836-4.627,4.682-4.627
		c0.936,0,1.764,0.234,2.197,0.45l-0.36,1.225c-0.378-0.217-0.972-0.415-1.836-0.415c-1.999,0-3.079,1.477-3.079,3.296
		c0,2.017,1.296,3.259,3.025,3.259c0.9,0,1.495-0.234,1.945-0.433L116.211,31.468z"/>
	<path d="M121.285,25.725v-1.081h9.291v1.081H121.285z M121.285,29.253v-1.08h9.291v1.08H121.285z"/>
	<path d="M141.248,31.792l-0.126-1.099h-0.054c-0.486,0.685-1.422,1.297-2.665,1.297c-1.765,0-2.665-1.242-2.665-2.503
		c0-2.106,1.873-3.259,5.239-3.241v-0.18c0-0.721-0.198-2.017-1.98-2.017c-0.81,0-1.656,0.252-2.269,0.648l-0.36-1.045
		c0.72-0.468,1.765-0.774,2.863-0.774c2.665,0,3.313,1.819,3.313,3.565v3.259c0,0.757,0.036,1.495,0.144,2.089H141.248z
		 M141.014,27.345c-1.729-0.036-3.691,0.27-3.691,1.963c0,1.026,0.684,1.512,1.494,1.512c1.134,0,1.854-0.72,2.107-1.458
		c0.054-0.162,0.09-0.342,0.09-0.504V27.345z"/>
	<path d="M144,23.149l1.135-1.044c1.494-1.369,2.269-2.215,2.269-3.134c0-0.684-0.432-1.242-1.369-1.242
		c-0.63,0-1.17,0.307-1.512,0.559l-0.378-0.828c0.486-0.396,1.296-0.757,2.196-0.757c1.692,0,2.395,1.081,2.395,2.035
		c0,1.368-1.026,2.358-2.395,3.547l-0.558,0.504v0.036h3.079v0.99H144V23.149z"/>
	<path d="M159.141,22.213v4.231h4.068v1.08h-4.068v4.268h-1.152v-4.268h-4.07v-1.08h4.07v-4.231H159.141z"/>
	<path d="M168.984,31.792c0.035-0.594,0.072-1.477,0.072-2.251V19.008h1.566v5.474h0.035c0.559-0.972,1.566-1.603,2.971-1.603
		c2.161,0,3.691,1.801,3.674,4.448c0,3.114-1.963,4.663-3.907,4.663c-1.261,0-2.269-0.486-2.917-1.639h-0.055l-0.071,1.44H168.984z
		 M170.623,28.299c0,0.198,0.035,0.396,0.072,0.576c0.305,1.099,1.224,1.854,2.376,1.854c1.657,0,2.647-1.351,2.647-3.349
		c0-1.747-0.9-3.241-2.594-3.241c-1.08,0-2.088,0.738-2.412,1.944c-0.036,0.181-0.09,0.396-0.09,0.648V28.299z"/>
	<path d="M178.199,23.149l1.135-1.044c1.494-1.369,2.269-2.215,2.269-3.134c0-0.684-0.433-1.242-1.368-1.242
		c-0.631,0-1.17,0.307-1.513,0.559l-0.378-0.828c0.486-0.396,1.297-0.757,2.196-0.757c1.692,0,2.396,1.081,2.396,2.035
		c0,1.368-1.027,2.358-2.396,3.547l-0.558,0.504v0.036h3.078v0.99h-4.861V23.149z"/>
</g>
<g enable-background="new    ">
	<path d="M114.825,50.543l-0.126-1.099h-0.054c-0.486,0.685-1.423,1.297-2.665,1.297c-1.765,0-2.665-1.242-2.665-2.503
		c0-2.106,1.873-3.259,5.239-3.241v-0.18c0-0.721-0.198-2.017-1.98-2.017c-0.81,0-1.657,0.252-2.269,0.648l-0.36-1.045
		c0.72-0.468,1.765-0.774,2.863-0.774c2.665,0,3.313,1.819,3.313,3.565v3.259c0,0.757,0.036,1.495,0.144,2.089H114.825z
		 M114.591,46.096c-1.729-0.036-3.691,0.27-3.691,1.963c0,1.026,0.684,1.512,1.494,1.512c1.134,0,1.854-0.72,2.107-1.458
		c0.054-0.162,0.09-0.342,0.09-0.504V46.096z"/>
	<path d="M121.897,44.476v-1.081h9.291v1.081H121.897z M121.897,48.004v-1.08h9.291v1.08H121.897z"/>
	<path d="M142.004,52.254h-1.152l-2.863-7.707l-1.35,0.576l-0.342-0.846l2.485-1.045l2.214,6.23c0.144,0.378,0.27,0.81,0.342,1.152
		h0.036c0.054-0.307,0.144-0.774,0.234-1.171l3.349-13.792h1.188L142.004,52.254z"/>
	<path d="M150.59,38.047c-1.314,1.765-2.269,4.105-2.269,7.364c0,3.205,0.99,5.51,2.269,7.311h-1.242
		c-1.134-1.494-2.359-3.799-2.359-7.311c0.018-3.547,1.225-5.852,2.359-7.364H150.59z"/>
	<path d="M158.475,50.219c-0.414,0.216-1.332,0.504-2.503,0.504c-2.629,0-4.339-1.782-4.339-4.447c0-2.683,1.836-4.627,4.682-4.627
		c0.936,0,1.764,0.234,2.195,0.45l-0.359,1.225c-0.378-0.217-0.973-0.415-1.836-0.415c-1.999,0-3.08,1.477-3.08,3.296
		c0,2.017,1.297,3.259,3.025,3.259c0.9,0,1.494-0.234,1.945-0.433L158.475,50.219z"/>
	<path d="M167.815,45.087v1.171h-4.447v-1.171H167.815z"/>
	<path d="M173.412,50.543c0.036-0.594,0.072-1.477,0.072-2.251V37.759h1.566v5.474h0.036c0.558-0.972,1.566-1.603,2.971-1.603
		c2.161,0,3.69,1.801,3.673,4.448c0,3.114-1.963,4.663-3.906,4.663c-1.262,0-2.27-0.486-2.918-1.639h-0.054l-0.071,1.44H173.412z
		 M175.051,47.05c0,0.198,0.036,0.396,0.072,0.576c0.306,1.099,1.225,1.854,2.377,1.854c1.656,0,2.646-1.351,2.646-3.349
		c0-1.747-0.9-3.241-2.593-3.241c-1.081,0-2.089,0.738-2.413,1.944c-0.035,0.181-0.09,0.396-0.09,0.648V47.05z"/>
	<path d="M182.627,41.9l1.135-1.044c1.494-1.369,2.27-2.215,2.27-3.134c0-0.684-0.433-1.242-1.369-1.242
		c-0.63,0-1.17,0.307-1.512,0.559l-0.379-0.828c0.486-0.396,1.297-0.757,2.197-0.757c1.691,0,2.395,1.081,2.395,2.035
		c0,1.368-1.026,2.358-2.395,3.547l-0.559,0.504v0.036h3.079v0.99h-4.862V41.9z"/>
	<path d="M192.186,52.722c1.278-1.782,2.269-4.123,2.269-7.364c0-3.223-0.972-5.527-2.269-7.311h1.225
		c1.152,1.477,2.358,3.781,2.358,7.328c0,3.529-1.206,5.816-2.358,7.347H192.186z"/>
</g>
<g enable-background="new    ">
	<path d="M109.927,73.011c0.036-0.594,0.072-1.477,0.072-2.251V60.227h1.566V65.7h0.036c0.558-0.972,1.566-1.603,2.971-1.603
		c2.161,0,3.691,1.801,3.673,4.448c0,3.114-1.963,4.663-3.907,4.663c-1.26,0-2.269-0.486-2.917-1.639h-0.054l-0.072,1.44H109.927z
		 M111.566,69.518c0,0.198,0.036,0.396,0.072,0.576c0.306,1.099,1.224,1.854,2.376,1.854c1.657,0,2.647-1.351,2.647-3.349
		c0-1.747-0.9-3.241-2.593-3.241c-1.081,0-2.089,0.738-2.413,1.944c-0.036,0.181-0.09,0.396-0.09,0.648V69.518z"/>
	<path d="M123.463,66.943v-1.081h9.291v1.081H123.463z M123.463,70.472v-1.08h9.291v1.08H123.463z"/>
	<path d="M143.57,74.722h-1.152l-2.863-7.707l-1.35,0.576l-0.342-0.846l2.485-1.045l2.214,6.23c0.144,0.378,0.27,0.81,0.342,1.152
		h0.036c0.054-0.307,0.144-0.774,0.234-1.171l3.349-13.792h1.188L143.57,74.722z"/>
	<path d="M152.156,60.515c-1.314,1.765-2.269,4.105-2.269,7.364c0,3.205,0.99,5.51,2.269,7.311h-1.242
		c-1.135-1.494-2.359-3.799-2.359-7.311c0.018-3.547,1.224-5.852,2.359-7.364H152.156z"/>
	<path d="M160.041,72.687c-0.414,0.216-1.333,0.504-2.504,0.504c-2.629,0-4.339-1.782-4.339-4.447c0-2.683,1.837-4.627,4.682-4.627
		c0.937,0,1.765,0.234,2.196,0.45l-0.359,1.225c-0.379-0.217-0.973-0.415-1.837-0.415c-1.999,0-3.079,1.477-3.079,3.296
		c0,2.017,1.297,3.259,3.025,3.259c0.9,0,1.494-0.234,1.944-0.433L160.041,72.687z"/>
	<path d="M169.381,67.555v1.171h-4.447v-1.171H169.381z"/>
	<path d="M179.875,73.011l-0.125-1.099h-0.055c-0.486,0.685-1.422,1.297-2.664,1.297c-1.766,0-2.665-1.242-2.665-2.503
		c0-2.106,1.872-3.259,5.239-3.241v-0.18c0-0.721-0.197-2.017-1.98-2.017c-0.811,0-1.656,0.252-2.269,0.648l-0.36-1.045
		c0.721-0.468,1.765-0.774,2.863-0.774c2.664,0,3.313,1.819,3.313,3.565v3.259c0,0.757,0.036,1.495,0.145,2.089H179.875z
		 M179.642,68.563c-1.729-0.036-3.69,0.27-3.69,1.963c0,1.026,0.684,1.512,1.494,1.512c1.134,0,1.854-0.72,2.106-1.458
		c0.054-0.162,0.09-0.342,0.09-0.504V68.563z"/>
	<path d="M182.627,64.368l1.135-1.044c1.494-1.369,2.27-2.215,2.27-3.134c0-0.684-0.433-1.242-1.369-1.242
		c-0.63,0-1.17,0.307-1.512,0.559l-0.379-0.828c0.486-0.396,1.297-0.757,2.197-0.757c1.691,0,2.395,1.081,2.395,2.035
		c0,1.368-1.026,2.358-2.395,3.547l-0.559,0.504v0.036h3.079v0.99h-4.862V64.368z"/>
	<path d="M192.186,75.189c1.278-1.782,2.269-4.123,2.269-7.364c0-3.223-0.972-5.527-2.269-7.311h1.225
		c1.152,1.477,2.358,3.781,2.358,7.328c0,3.529-1.206,5.816-2.358,7.347H192.186z"/>
</g>
</svg>
