<?xml version="1.0" encoding="utf-8"?>
<!-- Generator: Adobe Illustrator 16.0.0, SVG Export Plug-In . SVG Version: 6.00 Build 0)  -->
<!DOCTYPE svg PUBLIC "-//W3C//DTD SVG 1.1//EN" "http://www.w3.org/Graphics/SVG/1.1/DTD/svg11.dtd">
<svg version="1.1" id="Layer_1" xmlns="http://www.w3.org/2000/svg" xmlns:xlink="http://www.w3.org/1999/xlink" x="0px" y="0px"
	 width="300px" height="300px" viewBox="0 0 300 300" enable-background="new 0 0 300 300" xml:space="preserve">
<polyline fill="none" stroke="#000000" stroke-miterlimit="10" points="20,29.5 70.1,29.5 123,29.5 "/>
<path fill="none" stroke="#000000" stroke-miterlimit="10" d="M71.5,30v80.428c0,0,24.77,33.658,51.555,0.044"/>
<path fill="none" stroke="#000000" stroke-width="0.4108" stroke-miterlimit="10" d="M71.126,110.428c0,0-28.809,31.112-51.555,0"/>
<text transform="matrix(1 0 0 1 6.937 28.2266)" font-family="'MyriadPro-Regular'" font-size="19.7183">20</text>
<text transform="matrix(1 0 0 1 59.9844 28.2266)" font-family="'MyriadPro-Regular'" font-size="19.7183">13</text>
<text transform="matrix(1 0 0 1 116.3394 28.2266)" font-family="'MyriadPro-Regular'" font-size="19.7183">0</text>
<text transform="matrix(1 0 0 1 14.5137 108.1348)" font-family="'MyriadPro-Regular'" font-size="19.7183">7</text>
<text transform="matrix(1 0 0 1 112.5654 108.6206)" font-family="'MyriadPro-Regular'" font-size="19.7183">13</text>
<polyline fill="none" stroke="#000000" stroke-miterlimit="10" points="172,30.5 222.1,30.5 275,30.5 "/>
<path fill="none" stroke="#000000" stroke-miterlimit="10" d="M223.5,31v80.428c0,0,24.77,33.658,51.555,0.044"/>
<path fill="none" stroke="#000000" stroke-width="0.4108" stroke-miterlimit="10" d="M223.127,111.428c0,0-28.81,31.112-51.556,0"/>
<text transform="matrix(1 0 0 1 158.9375 29.2266)" font-family="'MyriadPro-Regular'" font-size="19.7183">10</text>
<text transform="matrix(1 0 0 1 217.042 29.2266)" font-family="'MyriadPro-Regular'" font-size="19.7183">4</text>
<text transform="matrix(1 0 0 1 268.3398 29.2266)" font-family="'MyriadPro-Regular'" font-size="19.7183">2</text>
<text transform="matrix(1 0 0 1 166.5137 109.1348)" font-family="'MyriadPro-Regular'" font-size="19.7183">6</text>
<text transform="matrix(1 0 0 1 269.623 109.6206)" font-family="'MyriadPro-Regular'" font-size="19.7183">6</text>
<polyline fill="none" stroke="#000000" stroke-miterlimit="10" points="94,172.5 144.1,172.5 197,172.5 "/>
<path fill="none" stroke="#000000" stroke-miterlimit="10" d="M145.5,173v80.428c0,0,24.77,33.658,51.555,0.044"/>
<path fill="none" stroke="#000000" stroke-width="0.4108" stroke-miterlimit="10" d="M145.127,253.428c0,0-28.81,31.112-51.556,0"/>
<text transform="matrix(1 0 0 1 80.937 171.2266)" font-family="'MyriadPro-Regular'" font-size="19.7183">19</text>
<text transform="matrix(1 0 0 1 133.9844 171.2266)" font-family="'MyriadPro-Regular'" font-size="19.7183">14</text>
<text transform="matrix(1 0 0 1 190.3398 171.2266)" font-family="'MyriadPro-Regular'" font-size="19.7183">5</text>
<text transform="matrix(1 0 0 1 88.5137 251.1348)" font-family="'MyriadPro-Regular'" font-size="19.7183">5</text>
<text transform="matrix(1 0 0 1 186.5654 251.6211)" font-family="'MyriadPro-Regular'" font-size="19.7183">19</text>
</svg>
