<?xml version="1.0" encoding="utf-8"?>
<!-- Generator: Adobe Illustrator 16.0.0, SVG Export Plug-In . SVG Version: 6.00 Build 0)  -->
<!DOCTYPE svg PUBLIC "-//W3C//DTD SVG 1.1//EN" "http://www.w3.org/Graphics/SVG/1.1/DTD/svg11.dtd">
<svg version="1.1" id="Layer_1" xmlns="http://www.w3.org/2000/svg" xmlns:xlink="http://www.w3.org/1999/xlink" x="0px" y="0px"
	 width="300px" height="300px" viewBox="0 0 300 300" enable-background="new 0 0 300 300" xml:space="preserve">
<line fill="none" stroke="#000000" stroke-miterlimit="10" x1="148" y1="8.5" x2="148" y2="282.5"/>
<line fill="none" stroke="#000000" stroke-miterlimit="10" x1="12.5" y1="146" x2="283.5" y2="146"/>
<polyline fill="none" stroke="#000000" stroke-miterlimit="10" points="62.03,134.682 71.482,146.124 58.547,154.582 "/>
<polyline fill="none" stroke="#000000" stroke-miterlimit="10" points="140.139,66.522 148.597,53.089 156.06,64.035 "/>
<polyline fill="none" stroke="#000000" stroke-miterlimit="10" points="220.239,133.687 231.184,145.627 219.741,154.084 "/>
<polyline fill="none" stroke="#000000" stroke-miterlimit="10" points="137.154,229.209 148.1,215.776 159.045,227.219 "/>
<rect x="116" y="123" fill="#FFFFFF" stroke="#000000" stroke-miterlimit="10" width="63" height="45"/>
<text transform="matrix(1 0 0 1 141.6318 151.0996)" font-family="'MyriadPro-Regular'" font-size="36">6</text>
<text transform="matrix(1 0 0 1 3.3232 143.1392)" font-family="'MyriadPro-Regular'" font-size="36">3</text>
<text transform="matrix(1 0 0 1 150.0898 25.7759)" font-family="'MyriadPro-Regular'" font-size="36">4</text>
<text transform="matrix(1 0 0 1 267.0049 142.6416)" font-family="'MyriadPro-Regular'" font-size="36">2</text>
<text transform="matrix(1 0 0 1 151.582 284.4326)" font-family="'MyriadPro-Regular'" font-size="36">?</text>
</svg>
