<?xml version="1.0" encoding="utf-8"?>
<!-- Generator: Adobe Illustrator 16.0.0, SVG Export Plug-In . SVG Version: 6.00 Build 0)  -->
<!DOCTYPE svg PUBLIC "-//W3C//DTD SVG 1.1//EN" "http://www.w3.org/Graphics/SVG/1.1/DTD/svg11.dtd">
<svg version="1.1" id="Layer_1" xmlns="http://www.w3.org/2000/svg" xmlns:xlink="http://www.w3.org/1999/xlink" x="0px" y="0px"
	 width="300px" height="300px" viewBox="0 0 300 300" enable-background="new 0 0 300 300" xml:space="preserve">
<line fill="none" stroke="#000000" stroke-miterlimit="10" x1="41.437" y1="28.041" x2="146.513" y2="123.979"/>
<line fill="none" stroke="#000000" stroke-miterlimit="10" x1="251.514" y1="28.041" x2="146.437" y2="123.979"/>
<line fill="none" stroke="#000000" stroke-width="0.9849" stroke-miterlimit="10" x1="146.5" y1="124" x2="146.5" y2="269.5"/>
<g enable-background="new    ">
	<path d="M15.69,36.435V24.593h-0.072l-2.591,1.26l-0.396-1.872l3.383-1.584h2.196v14.038H15.69z"/>
	<path d="M20.586,47.449l10.043-26.097h2.448L22.998,47.449H20.586z"/>
	<path d="M40.349,46.01v-3.708h-6.803v-1.439l6.371-8.963h2.844v8.639h2.016v1.764h-2.016v3.708H40.349z M40.349,36.291
		c0-0.792,0.072-1.548,0.108-2.268h-0.072c-0.432,0.828-0.792,1.476-1.224,2.124l-3.132,4.319l0.036,0.071h4.283V36.291z"/>
</g>
<text transform="matrix(1 0 0 1 252.2051 44.0098)" font-family="'MyriadPro-Regular'" font-size="36">?</text>
<g enable-background="new    ">
	<path d="M133.819,284.962V273.12h-0.072l-2.591,1.26l-0.396-1.872l3.383-1.584h2.196v14.038H133.819z"/>
	<path d="M138.715,295.977l10.043-26.097h2.447l-10.079,26.097H138.715z"/>
	<path d="M161.501,283.811c0,1.188-0.647,2.447-2.269,3.168v0.071c1.621,0.612,2.809,1.8,2.809,3.527c0,2.484-2.124,4.14-5.111,4.14
		c-3.24,0-4.968-1.836-4.968-3.815c0-1.728,1.044-2.88,2.735-3.6v-0.071c-1.512-0.721-2.231-1.872-2.231-3.132
		c0-2.231,2.017-3.779,4.644-3.779C160.061,280.319,161.501,282.047,161.501,283.811z M159.594,290.758
		c0-1.548-1.152-2.268-2.844-2.736c-1.512,0.433-2.377,1.404-2.377,2.592c0,1.26,0.973,2.412,2.629,2.412
		C158.586,293.025,159.594,292.054,159.594,290.758z M154.734,283.99c0,1.26,0.971,1.944,2.52,2.34
		c1.115-0.324,1.979-1.116,1.979-2.268c0-1.008-0.646-2.088-2.195-2.088C155.525,281.975,154.734,282.91,154.734,283.99z"/>
</g>
</svg>
