<?xml version="1.0" encoding="utf-8"?>
<!-- Generator: Adobe Illustrator 16.0.0, SVG Export Plug-In . SVG Version: 6.00 Build 0)  -->
<!DOCTYPE svg PUBLIC "-//W3C//DTD SVG 1.1//EN" "http://www.w3.org/Graphics/SVG/1.1/DTD/svg11.dtd">
<svg version="1.1" id="Layer_1" xmlns="http://www.w3.org/2000/svg" xmlns:xlink="http://www.w3.org/1999/xlink" x="0px" y="0px"
	 width="300px" height="300px" viewBox="0 0 300 300" enable-background="new 0 0 300 300" xml:space="preserve">
<line fill="none" stroke="#000000" stroke-miterlimit="10" x1="26" y1="236.5" x2="279" y2="236.5"/>
<line fill="none" stroke="#000000" stroke-miterlimit="10" x1="150" y1="236.5" x2="26" y2="63.584"/>
<line fill="none" stroke="#000000" stroke-miterlimit="10" x1="150" y1="236.5" x2="279" y2="63.584"/>
<rect x="86.5" y="113.5" fill="none" stroke="#000000" stroke-miterlimit="10" width="129" height="33"/>
<text transform="matrix(1 0 0 1 11.5313 59.5225)" font-family="'MyriadPro-Regular'" font-size="24">a</text>
<text transform="matrix(1 0 0 1 138.207 136.1724)" font-family="'MyriadPro-Regular'" font-size="24">e</text>
<text transform="matrix(1 0 0 1 14.4873 234.6191)" font-family="'MyriadPro-Regular'" font-size="24">b</text>
<text transform="matrix(1 0 0 1 273.624 232.0811)" font-family="'MyriadPro-Regular'" font-size="24">c</text>
<text transform="matrix(1 0 0 1 270.2012 59.5225)" font-family="'MyriadPro-Regular'" font-size="24">d</text>
<text transform="matrix(1 0 0 1 69.5991 21.9644)" font-family="'MyriadPro-Regular'" font-size="18">e = (a x b) + (c x d) </text>
<text transform="matrix(1 0 0 1 69.5991 38.208)" font-family="'MyriadPro-Regular'" font-size="18">a = [e - (c x d)] รท b</text>
<text transform="matrix(1 0 0 1 69.5991 55.4668)" font-family="'MyriadPro-Regular'" font-size="18">b = [e - (c x d)] รท a</text>
<text transform="matrix(1 0 0 1 69.5991 73.7407)" font-family="'MyriadPro-Regular'" font-size="18">c = [e - (a x b)] รท d</text>
<text transform="matrix(1 0 0 1 69.5991 89.9844)" font-family="'MyriadPro-Regular'" font-size="18">d = [e - (a x b)] รท c</text>
</svg>
