<?xml version="1.0" encoding="utf-8"?>
<!-- Generator: Adobe Illustrator 16.0.0, SVG Export Plug-In . SVG Version: 6.00 Build 0)  -->
<!DOCTYPE svg PUBLIC "-//W3C//DTD SVG 1.1//EN" "http://www.w3.org/Graphics/SVG/1.1/DTD/svg11.dtd">
<svg version="1.1" id="Layer_1" xmlns="http://www.w3.org/2000/svg" xmlns:xlink="http://www.w3.org/1999/xlink" x="0px" y="0px"
	 width="300px" height="300px" viewBox="0 0 300 300" enable-background="new 0 0 300 300" xml:space="preserve">
<g>
	<g enable-background="new    ">
		<path d="M52.419,76.895l-0.252-2.195h-0.108c-0.972,1.367-2.844,2.591-5.327,2.591c-3.528,0-5.328-2.483-5.328-5.003
			c0-4.212,3.744-6.516,10.475-6.479v-0.359c0-1.44-0.396-4.032-3.959-4.032c-1.62,0-3.312,0.504-4.535,1.296l-0.72-2.087
			c1.44-0.937,3.528-1.548,5.724-1.548c5.327,0,6.623,3.635,6.623,7.127v6.515c0,1.512,0.072,2.988,0.288,4.176H52.419z
			 M51.951,68.004c-3.456-0.072-7.379,0.54-7.379,3.923c0,2.052,1.368,3.024,2.988,3.024c2.268,0,3.708-1.44,4.211-2.916
			c0.108-0.324,0.18-0.684,0.18-1.008V68.004z"/>
		<path d="M128.665,76.895c0.072-1.188,0.144-2.951,0.144-4.499V51.338h3.132V62.28h0.072c1.116-1.943,3.132-3.203,5.939-3.203
			c4.319,0,7.379,3.6,7.343,8.891c0,6.228-3.924,9.322-7.811,9.322c-2.52,0-4.536-0.972-5.832-3.275h-0.108l-0.144,2.88H128.665z
			 M131.94,69.911c0,0.396,0.072,0.792,0.144,1.152c0.612,2.195,2.448,3.707,4.751,3.707c3.312,0,5.291-2.699,5.291-6.695
			c0-3.491-1.8-6.479-5.183-6.479c-2.16,0-4.175,1.476-4.823,3.888c-0.072,0.359-0.18,0.791-0.18,1.296V69.911z"/>
		<path d="M186.263,64.764v-2.159h18.573v2.159H186.263z M186.263,71.819v-2.16h18.573v2.16H186.263z"/>
		<path d="M251.852,76.247c-0.828,0.432-2.664,1.008-5.004,1.008c-5.255,0-8.675-3.563-8.675-8.892c0-5.363,3.672-9.251,9.358-9.251
			c1.873,0,3.528,0.469,4.393,0.9l-0.721,2.447c-0.756-0.432-1.943-0.827-3.672-0.827c-3.995,0-6.154,2.951-6.154,6.587
			c0,4.031,2.592,6.515,6.047,6.515c1.8,0,2.988-0.468,3.888-0.863L251.852,76.247z"/>
	</g>
	<g enable-background="new    ">
		<path d="M59.291,130.94v21.058c0,1.548,0.036,3.312,0.144,4.499h-2.844l-0.144-3.023h-0.072c-0.972,1.943-3.096,3.419-5.939,3.419
			c-4.211,0-7.451-3.563-7.451-8.854c-0.036-5.795,3.563-9.358,7.811-9.358c2.664,0,4.463,1.26,5.255,2.663h0.072V130.94H59.291z
			 M56.123,146.166c0-0.396-0.036-0.936-0.144-1.331c-0.468-2.017-2.196-3.672-4.571-3.672c-3.276,0-5.22,2.88-5.22,6.731
			c0,3.527,1.728,6.442,5.147,6.442c2.124,0,4.067-1.403,4.644-3.779c0.108-0.432,0.144-0.863,0.144-1.367V146.166z"/>
		<path d="M134.997,148.362c0.072,4.283,2.808,6.047,5.975,6.047c2.268,0,3.636-0.396,4.823-0.899l0.54,2.268
			c-1.116,0.504-3.023,1.08-5.795,1.08c-5.363,0-8.567-3.528-8.567-8.783c0-5.256,3.096-9.395,8.171-9.395
			c5.688,0,7.199,5.003,7.199,8.207c0,0.647-0.072,1.151-0.108,1.476H134.997z M144.284,146.095
			c0.036-2.016-0.828-5.147-4.392-5.147c-3.204,0-4.607,2.951-4.859,5.147H144.284z"/>
		<path d="M188.239,144.366v-2.159h18.573v2.159H188.239z M188.239,151.422v-2.16h18.573v2.16H188.239z"/>
		<path d="M241.733,156.497v-15.01h-2.448v-2.412h2.448v-0.828c0-2.447,0.54-4.679,2.016-6.083c1.188-1.151,2.772-1.62,4.247-1.62
			c1.116,0,2.088,0.252,2.7,0.504l-0.433,2.448c-0.467-0.216-1.115-0.396-2.016-0.396c-2.699,0-3.383,2.376-3.383,5.04v0.936h4.211
			v2.412h-4.211v15.01H241.733z"/>
	</g>
	<polyline fill="none" stroke="#000000" stroke-miterlimit="10" points="72.98,74.02 87.408,56.109 103.826,74.02 	"/>
	<polyline fill="none" stroke="#000000" stroke-miterlimit="10" points="75.965,137.329 94.373,156.73 112.284,138.821 	"/>
	<text transform="matrix(1 0 0 1 70.4927 89.9395)" font-family="'MyriadPro-Regular'" font-size="14">a x b = c</text>
	<text transform="matrix(1 0 0 1 74.9702 174.0195)" font-family="'MyriadPro-Regular'" font-size="14">d รท e = f</text>
</g>
</svg>
