<?xml version="1.0" encoding="utf-8"?>
<!-- Generator: Adobe Illustrator 16.0.0, SVG Export Plug-In . SVG Version: 6.00 Build 0)  -->
<!DOCTYPE svg PUBLIC "-//W3C//DTD SVG 1.1//EN" "http://www.w3.org/Graphics/SVG/1.1/DTD/svg11.dtd">
<svg version="1.1" id="Layer_1" xmlns="http://www.w3.org/2000/svg" xmlns:xlink="http://www.w3.org/1999/xlink" x="0px" y="0px"
	 width="300px" height="300px" viewBox="0 0 300 300" enable-background="new 0 0 300 300" xml:space="preserve">
<line fill="none" stroke="#000000" stroke-miterlimit="10" x1="23" y1="113.5" x2="147" y2="113.5"/>
<line fill="none" stroke="#000000" stroke-width="0.4884" stroke-miterlimit="10" x1="83.976" y1="113.69" x2="23.408" y2="29.23"/>
<line fill="none" stroke="#000000" stroke-width="0.4884" stroke-miterlimit="10" x1="83.976" y1="113.69" x2="146.985" y2="29.23"/>
<rect x="52.5" y="53.5" fill="none" stroke="#000000" stroke-miterlimit="10" width="63" height="16"/>
<text transform="matrix(1 0 0 1 16.1587 27.2466)" font-family="'MyriadPro-Regular'" font-size="11.7227">2</text>
<text transform="matrix(1 0 0 1 75.1377 64.686)" font-family="'MyriadPro-Regular'" font-size="11.7227">56</text>
<text transform="matrix(1 0 0 1 18.1128 112.772)" font-family="'MyriadPro-Regular'" font-size="11.7227">4</text>
<text transform="matrix(1 0 0 1 143.978 111.5322)" font-family="'MyriadPro-Regular'" font-size="11.7227">8</text>
<text transform="matrix(1 0 0 1 142.9863 27.2466)" font-family="'MyriadPro-Regular'" font-size="11.7227">6</text>
<line fill="none" stroke="#000000" stroke-miterlimit="10" x1="24" y1="278.5" x2="148" y2="278.5"/>
<line fill="none" stroke="#000000" stroke-width="0.4884" stroke-miterlimit="10" x1="84.976" y1="278.69" x2="24.408" y2="194.23"/>
<line fill="none" stroke="#000000" stroke-width="0.4884" stroke-miterlimit="10" x1="84.976" y1="278.69" x2="147.985" y2="194.23"/>
<rect x="53.5" y="218.5" fill="none" stroke="#000000" stroke-miterlimit="10" width="63" height="16"/>
<text transform="matrix(1 0 0 1 17.1587 192.2461)" font-family="'MyriadPro-Regular'" font-size="11.7227">5</text>
<text transform="matrix(1 0 0 1 76.1377 229.6855)" font-family="'MyriadPro-Regular'" font-size="11.7227">83</text>
<text transform="matrix(1 0 0 1 19.1128 277.7715)" font-family="'MyriadPro-Regular'" font-size="11.7227">7</text>
<text transform="matrix(1 0 0 1 144.978 276.5322)" font-family="'MyriadPro-Regular'" font-size="11.7227">8</text>
<text transform="matrix(1 0 0 1 143.9863 192.2461)" font-family="'MyriadPro-Regular'" font-size="11.7227">6</text>
<line fill="none" stroke="#000000" stroke-miterlimit="10" x1="164" y1="206.5" x2="288" y2="206.5"/>
<line fill="none" stroke="#000000" stroke-width="0.4884" stroke-miterlimit="10" x1="224.976" y1="206.69" x2="164.408" y2="122.23"/>
<line fill="none" stroke="#000000" stroke-width="0.4884" stroke-miterlimit="10" x1="224.976" y1="206.69" x2="287.985" y2="122.23"/>
<rect x="193.5" y="146.5" fill="none" stroke="#000000" stroke-miterlimit="10" width="63" height="16"/>
<text transform="matrix(1 0 0 1 157.1582 120.2466)" font-family="'MyriadPro-Regular'" font-size="11.7227">3</text>
<text transform="matrix(1 0 0 1 213.1309 157.6855)" font-family="'MyriadPro-Regular'" font-size="11.7227">126</text>
<text transform="matrix(1 0 0 1 159.1133 205.7715)" font-family="'MyriadPro-Regular'" font-size="11.7227">6</text>
<text transform="matrix(1 0 0 1 281.9707 204.5322)" font-family="'MyriadPro-Regular'" font-size="11.7227">12</text>
<text transform="matrix(1 0 0 1 283.9863 120.2466)" font-family="'MyriadPro-Regular'" font-size="11.7227">9</text>
</svg>
