<?xml version="1.0" encoding="utf-8"?>
<!-- Generator: Adobe Illustrator 16.0.0, SVG Export Plug-In . SVG Version: 6.00 Build 0)  -->
<!DOCTYPE svg PUBLIC "-//W3C//DTD SVG 1.1//EN" "http://www.w3.org/Graphics/SVG/1.1/DTD/svg11.dtd">
<svg version="1.1" id="Layer_1" xmlns="http://www.w3.org/2000/svg" xmlns:xlink="http://www.w3.org/1999/xlink" x="0px" y="0px"
	 width="300px" height="300px" viewBox="0 0 300 300" enable-background="new 0 0 300 300" xml:space="preserve">
<circle fill="#FFFFFF" stroke="#000000" stroke-width="0.4711" stroke-miterlimit="10" cx="39.013" cy="35.171" r="19.607"/>
<circle fill="#FFFFFF" stroke="#000000" stroke-width="0.4711" stroke-miterlimit="10" cx="97.895" cy="35.171" r="19.607"/>
<circle fill="#FFFFFF" stroke="#000000" stroke-width="0.4711" stroke-miterlimit="10" cx="68.219" cy="124.671" r="19.607"/>
<line fill="none" stroke="#000000" stroke-width="0.4711" stroke-miterlimit="10" x1="48.612" y1="52.271" x2="68.219" y2="72.767"/>
<line fill="none" stroke="#000000" stroke-width="0.4711" stroke-miterlimit="10" x1="88.003" y1="52.271" x2="68.396" y2="72.767"/>
<line fill="none" stroke="#000000" stroke-miterlimit="10" x1="68.5" y1="73" x2="68.5" y2="105"/>
<g>
	
		<line fill="none" stroke="#000000" stroke-width="0.4711" stroke-miterlimit="10" x1="52.657" y1="60.866" x2="58.621" y2="62.734"/>
	
		<line fill="none" stroke="#000000" stroke-width="0.4711" stroke-miterlimit="10" x1="58.621" y1="62.734" x2="58.415" y2="57.757"/>
</g>
<g>
	
		<line fill="none" stroke="#000000" stroke-width="0.4711" stroke-miterlimit="10" x1="84.058" y1="60.866" x2="78.094" y2="62.734"/>
	<line fill="none" stroke="#000000" stroke-width="0.4711" stroke-miterlimit="10" x1="78.094" y1="62.734" x2="78.3" y2="57.757"/>
</g>
<text transform="matrix(1 0 0 1 33.2744 40.5479)" font-family="'MyriadPro-Regular'" font-size="14.2319">4</text>
<text transform="matrix(1 0 0 1 92.0972 40.5479)" font-family="'MyriadPro-Regular'" font-size="14.2319">9</text>
<text transform="matrix(1 0 0 1 63.6426 131.6514)" font-family="'MyriadPro-Regular'" font-size="14.2319">5</text>
<circle fill="#FFFFFF" stroke="#000000" stroke-width="0.4711" stroke-miterlimit="10" cx="190.014" cy="33.171" r="19.607"/>
<circle fill="#FFFFFF" stroke="#000000" stroke-width="0.4711" stroke-miterlimit="10" cx="248.895" cy="33.171" r="19.607"/>
<circle fill="#FFFFFF" stroke="#000000" stroke-width="0.4711" stroke-miterlimit="10" cx="219.219" cy="122.671" r="19.607"/>
<line fill="none" stroke="#000000" stroke-width="0.4711" stroke-miterlimit="10" x1="199.611" y1="50.271" x2="219.219" y2="70.767"/>
<line fill="none" stroke="#000000" stroke-width="0.4711" stroke-miterlimit="10" x1="239.003" y1="50.271" x2="219.396" y2="70.767"/>
<line fill="none" stroke="#000000" stroke-miterlimit="10" x1="219.5" y1="71" x2="219.5" y2="103"/>
<g>
	
		<line fill="none" stroke="#000000" stroke-width="0.4711" stroke-miterlimit="10" x1="203.657" y1="58.866" x2="209.621" y2="60.734"/>
	
		<line fill="none" stroke="#000000" stroke-width="0.4711" stroke-miterlimit="10" x1="209.621" y1="60.734" x2="209.415" y2="55.757"/>
</g>
<g>
	
		<line fill="none" stroke="#000000" stroke-width="0.4711" stroke-miterlimit="10" x1="235.059" y1="58.866" x2="229.094" y2="60.734"/>
	
		<line fill="none" stroke="#000000" stroke-width="0.4711" stroke-miterlimit="10" x1="229.094" y1="60.734" x2="229.3" y2="55.757"/>
</g>
<text transform="matrix(1 0 0 1 184.2744 38.5479)" font-family="'MyriadPro-Regular'" font-size="14.2319">9</text>
<text transform="matrix(1 0 0 1 243.0977 38.5479)" font-family="'MyriadPro-Regular'" font-size="14.2319">1</text>
<text transform="matrix(1 0 0 1 214.6426 129.6514)" font-family="'MyriadPro-Regular'" font-size="14.2319">4</text>
<circle fill="#FFFFFF" stroke="#000000" stroke-width="0.4711" stroke-miterlimit="10" cx="113.014" cy="164.171" r="19.607"/>
<circle fill="#FFFFFF" stroke="#000000" stroke-width="0.4711" stroke-miterlimit="10" cx="171.895" cy="164.171" r="19.607"/>
<circle fill="#FFFFFF" stroke="#000000" stroke-width="0.4711" stroke-miterlimit="10" cx="142.219" cy="253.671" r="19.606"/>
<line fill="none" stroke="#000000" stroke-width="0.4711" stroke-miterlimit="10" x1="122.611" y1="181.271" x2="142.219" y2="201.768"/>
<line fill="none" stroke="#000000" stroke-width="0.4711" stroke-miterlimit="10" x1="162.003" y1="181.271" x2="142.396" y2="201.768"/>
<line fill="none" stroke="#000000" stroke-miterlimit="10" x1="142.5" y1="202" x2="142.5" y2="234"/>
<g>
	
		<line fill="none" stroke="#000000" stroke-width="0.4711" stroke-miterlimit="10" x1="126.657" y1="189.865" x2="132.621" y2="191.734"/>
	
		<line fill="none" stroke="#000000" stroke-width="0.4711" stroke-miterlimit="10" x1="132.621" y1="191.734" x2="132.415" y2="186.758"/>
</g>
<g>
	
		<line fill="none" stroke="#000000" stroke-width="0.4711" stroke-miterlimit="10" x1="158.059" y1="189.865" x2="152.094" y2="191.734"/>
	
		<line fill="none" stroke="#000000" stroke-width="0.4711" stroke-miterlimit="10" x1="152.094" y1="191.734" x2="152.3" y2="186.758"/>
</g>
<g enable-background="new    ">
	<path d="M108.798,165.762v-4.684h-0.029l-1.025,0.498l-0.157-0.74l1.338-0.626h0.869v5.552H108.798z"/>
	<path d="M110.733,170.118l3.972-10.321h0.968l-3.986,10.321H110.733z"/>
	<path d="M118.546,169.549v-1.467h-2.691v-0.569l2.52-3.545h1.125v3.417h0.797v0.697H119.5v1.467H118.546z M118.546,165.705
		c0-0.313,0.028-0.612,0.042-0.897h-0.028c-0.171,0.328-0.313,0.584-0.484,0.841l-1.239,1.708l0.014,0.028h1.694V165.705z"/>
</g>
<g enable-background="new    ">
	<path d="M167.621,165.762v-4.684h-0.029l-1.024,0.498l-0.157-0.74l1.339-0.626h0.868v5.552H167.621z"/>
	<path d="M169.557,170.118l3.971-10.321h0.969l-3.986,10.321H169.557z"/>
	<path d="M175.975,169.549v-4.684h-0.029l-1.024,0.498l-0.157-0.74l1.339-0.626h0.868v5.552H175.975z"/>
	<path d="M181.725,164.68c-0.156,0-0.369,0-0.569,0.028c-1.139,0.157-1.779,0.883-1.922,1.737h0.015
		c0.271-0.313,0.74-0.584,1.338-0.584c1.025,0,1.736,0.712,1.736,1.78c0,1.096-0.825,1.979-1.964,1.979
		c-1.324,0-2.106-0.997-2.106-2.378c0-1.053,0.384-1.922,0.967-2.463c0.484-0.47,1.14-0.74,1.937-0.812
		c0.228-0.028,0.427-0.042,0.569-0.028V164.68z M181.355,167.698c0-0.697-0.414-1.153-1.082-1.153c-0.441,0-0.826,0.271-1.012,0.641
		c-0.043,0.086-0.07,0.171-0.07,0.299c0,0.769,0.398,1.409,1.152,1.409C180.941,168.894,181.355,168.382,181.355,167.698z"/>
</g>
<g enable-background="new    ">
	<path d="M138.041,251.683c0.328-0.214,0.94-0.441,1.637-0.441c1.225,0,1.737,0.654,1.737,1.338c0,0.569-0.413,1.054-1.096,1.281
		v0.028c0.783,0.114,1.324,0.655,1.324,1.381c0,0.883-0.797,1.666-2.25,1.666c-0.683,0-1.31-0.185-1.623-0.398l0.256-0.712
		c0.228,0.156,0.783,0.37,1.324,0.37c0.868,0,1.252-0.513,1.238-0.954c0-0.712-0.754-0.996-1.509-0.996h-0.384v-0.655h0.398
		c0.527,0,1.281-0.242,1.295-0.911c0-0.342-0.256-0.697-0.897-0.697c-0.512,0-0.982,0.214-1.21,0.37L138.041,251.683z"/>
	<path d="M141.969,261.221l3.972-10.321h0.968l-3.986,10.321H141.969z"/>
	<path d="M149.783,260.651v-1.467h-2.69v-0.569l2.52-3.545h1.125v3.417h0.797v0.697h-0.797v1.467H149.783z M149.783,256.808
		c0-0.313,0.028-0.612,0.043-0.897h-0.029c-0.171,0.328-0.313,0.584-0.484,0.841l-1.239,1.708l0.014,0.028h1.694V256.808z"/>
</g>
</svg>
