<?xml version="1.0" encoding="utf-8"?>
<!-- Generator: Adobe Illustrator 16.0.0, SVG Export Plug-In . SVG Version: 6.00 Build 0)  -->
<!DOCTYPE svg PUBLIC "-//W3C//DTD SVG 1.1//EN" "http://www.w3.org/Graphics/SVG/1.1/DTD/svg11.dtd">
<svg version="1.1" id="Layer_1" xmlns="http://www.w3.org/2000/svg" xmlns:xlink="http://www.w3.org/1999/xlink" x="0px" y="0px"
	 width="300px" height="300px" viewBox="0 0 300 300" enable-background="new 0 0 300 300" xml:space="preserve">
<polygon fill="none" stroke="#000000" stroke-width="0.5395" stroke-miterlimit="10" points="118.988,131.524 13.777,131.398 
	66.513,23.469 "/>
<text transform="matrix(1.3809 0 0 1 61.8574 22.1826)" font-family="'MyriadPro-Regular'" font-size="15.1018">2</text>
<text transform="matrix(1.3809 0 0 1 3 131.5249)" font-family="'MyriadPro-Regular'" font-size="15.1018">4</text>
<text transform="matrix(1.3809 0 0 1 120.4712 131.5249)" font-family="'MyriadPro-Regular'" font-size="15.1018">6</text>
<text transform="matrix(1.3809 0 0 1 61.8574 97.9937)" font-family="'MyriadPro-Regular'" font-size="15.1018">4</text>
<polygon fill="none" stroke="#000000" stroke-width="0.5395" stroke-miterlimit="10" points="269.988,132.524 164.777,132.398 
	217.513,24.469 "/>
<text transform="matrix(1.3809 0 0 1 212.8574 23.1826)" font-family="'MyriadPro-Regular'" font-size="15.1018">5</text>
<text transform="matrix(1.3809 0 0 1 154 132.5249)" font-family="'MyriadPro-Regular'" font-size="15.1018">7</text>
<text transform="matrix(1.3809 0 0 1 271.4707 132.5249)" font-family="'MyriadPro-Regular'" font-size="15.1018">12</text>
<text transform="matrix(1.3809 0 0 1 212.8574 98.9937)" font-family="'MyriadPro-Regular'" font-size="15.1018">7</text>
<polygon fill="none" stroke="#000000" stroke-width="0.5395" stroke-miterlimit="10" points="190.988,279.524 85.777,279.398 
	138.513,171.469 "/>
<text transform="matrix(1.3809 0 0 1 133.8574 170.1826)" font-family="'MyriadPro-Regular'" font-size="15.1018">5</text>
<text transform="matrix(1.3809 0 0 1 75 279.5254)" font-family="'MyriadPro-Regular'" font-size="15.1018">6</text>
<text transform="matrix(1.3809 0 0 1 192.4707 279.5254)" font-family="'MyriadPro-Regular'" font-size="15.1018">11</text>
<text transform="matrix(1.3809 0 0 1 133.8574 245.9941)" font-family="'MyriadPro-Regular'" font-size="15.1018">6</text>
</svg>
