<?xml version="1.0" encoding="utf-8"?>
<!-- Generator: Adobe Illustrator 16.0.0, SVG Export Plug-In . SVG Version: 6.00 Build 0)  -->
<!DOCTYPE svg PUBLIC "-//W3C//DTD SVG 1.1//EN" "http://www.w3.org/Graphics/SVG/1.1/DTD/svg11.dtd">
<svg version="1.1" id="Layer_1" xmlns="http://www.w3.org/2000/svg" xmlns:xlink="http://www.w3.org/1999/xlink" x="0px" y="0px"
	 width="150px" height="150px" viewBox="0 0 150 150" enable-background="new 0 0 150 150" xml:space="preserve">
<g>
	<g enable-background="new    ">
		<path d="M10.56,79.422V75.13H3.238v-1.406l7.031-10.062h2.303v9.795h2.207v1.673h-2.207v4.292H10.56z M10.56,73.457v-5.261
			c0-0.825,0.024-1.649,0.073-2.474H10.56c-0.485,0.922-0.873,1.601-1.309,2.328l-3.855,5.358v0.048H10.56z"/>
		<path d="M61.786,65.456h-6.013l-0.606,4.049c0.364-0.048,0.703-0.097,1.285-0.097c1.212,0,2.424,0.267,3.395,0.849
			c1.236,0.703,2.255,2.061,2.255,4.049c0,3.079-2.449,5.383-5.868,5.383c-1.722,0-3.176-0.484-3.928-0.97l0.533-1.625
			c0.655,0.389,1.939,0.873,3.37,0.873c2.013,0,3.734-1.309,3.734-3.418c-0.024-2.037-1.382-3.492-4.534-3.492
			c-0.897,0-1.601,0.098-2.183,0.17l1.019-7.564h7.541V65.456z"/>
		<path d="M90.004,65.65h-0.049l-2.74,1.479l-0.412-1.624l3.443-1.843h1.818v15.76h-2.061V65.65z"/>
		<path d="M108.284,71.372c0,5.358-1.988,8.316-5.479,8.316c-3.08,0-5.164-2.885-5.213-8.098c0-5.286,2.279-8.195,5.479-8.195
			C106.393,63.396,108.284,66.354,108.284,71.372z M99.725,71.614c0,4.098,1.262,6.426,3.201,6.426c2.182,0,3.225-2.546,3.225-6.571
			c0-3.879-0.994-6.425-3.2-6.425C101.083,65.044,99.725,67.323,99.725,71.614z"/>
		<path d="M115.265,71.251v-1.455h12.511v1.455H115.265z M115.265,76.003v-1.454h12.511v1.454H115.265z"/>
		<path d="M142.442,74.791l-0.049-0.631c-0.146-1.309,0.291-2.739,1.503-4.194c1.092-1.285,1.697-2.23,1.697-3.321
			c0-1.237-0.775-2.062-2.303-2.086c-0.873,0-1.843,0.291-2.449,0.752l-0.582-1.527c0.801-0.582,2.183-0.97,3.467-0.97
			c2.789,0,4.05,1.722,4.05,3.563c0,1.649-0.921,2.837-2.085,4.22c-1.066,1.261-1.455,2.327-1.383,3.563l0.025,0.631H142.442z
			 M141.908,78.186c0-0.897,0.606-1.527,1.455-1.527s1.431,0.63,1.431,1.527c0,0.849-0.558,1.503-1.454,1.503
			C142.49,79.688,141.908,79.034,141.908,78.186z"/>
	</g>
	<polyline fill="none" stroke="#000000" stroke-width="0.6734" stroke-miterlimit="10" points="24.987,77.484 34.704,65.423 
		45.761,77.484 	"/>
	<polyline fill="none" stroke="#000000" stroke-width="0.6073" stroke-miterlimit="10" points="63.973,67.64 75.151,79.422 
		86.027,68.546 	"/>
</g>
</svg>
