<?xml version="1.0" encoding="utf-8"?>
<!-- Generator: Adobe Illustrator 16.0.0, SVG Export Plug-In . SVG Version: 6.00 Build 0)  -->
<!DOCTYPE svg PUBLIC "-//W3C//DTD SVG 1.1//EN" "http://www.w3.org/Graphics/SVG/1.1/DTD/svg11.dtd">
<svg version="1.1" id="Layer_1" xmlns="http://www.w3.org/2000/svg" xmlns:xlink="http://www.w3.org/1999/xlink" x="0px" y="0px"
	 width="300px" height="300px" viewBox="0 0 300 300" enable-background="new 0 0 300 300" xml:space="preserve">
<rect x="20.708" y="21.724" fill="#FFFFFF" stroke="#000000" stroke-width="0.4638" stroke-miterlimit="10" width="24.457" height="21.457"/>
<rect x="69.391" y="22.532" fill="#FFFFFF" stroke="#000000" stroke-width="0.4638" stroke-miterlimit="10" width="24.457" height="21.457"/>
<rect x="56.47" y="100.516" fill="#FFFFFF" stroke="#000000" stroke-width="0.6861" stroke-miterlimit="10" width="53.528" height="21.457"/>
<rect x="118.073" y="23.339" fill="#FFFFFF" stroke="#000000" stroke-width="0.4638" stroke-miterlimit="10" width="24.457" height="21.457"/>
<line fill="none" stroke="#000000" stroke-width="0.6861" stroke-miterlimit="10" x1="31.322" y1="43.181" x2="56.47" y2="100.516"/>
<line fill="none" stroke="#000000" stroke-width="0.6861" stroke-miterlimit="10" x1="80.927" y1="43.874" x2="81.619" y2="100.4"/>
<line fill="none" stroke="#000000" stroke-width="0.6861" stroke-miterlimit="10" x1="131.224" y1="45.027" x2="109.998" y2="100.516"/>
<text transform="matrix(1 0 0 1 29.0142 36.7207)" font-family="'MyriadPro-Regular'" font-size="16.695">2</text>
<text transform="matrix(1 0 0 1 77.9272 37.4141)" font-family="'MyriadPro-Regular'" font-size="16.695">4</text>
<text transform="matrix(1 0 0 1 126.1479 37.875)" font-family="'MyriadPro-Regular'" font-size="16.695">6</text>
<text transform="matrix(1 0 0 1 78.8501 116.5508)" font-family="'MyriadPro-Regular'" font-size="16.695">56</text>
<rect x="162.997" y="22.719" fill="#FFFFFF" stroke="#000000" stroke-width="0.4638" stroke-miterlimit="10" width="24.456" height="21.457"/>
<rect x="211.68" y="23.526" fill="#FFFFFF" stroke="#000000" stroke-width="0.4638" stroke-miterlimit="10" width="24.457" height="21.457"/>
<rect x="198.759" y="101.51" fill="#FFFFFF" stroke="#000000" stroke-width="0.6861" stroke-miterlimit="10" width="53.528" height="21.457"/>
<rect x="260.361" y="24.334" fill="#FFFFFF" stroke="#000000" stroke-width="0.4638" stroke-miterlimit="10" width="24.457" height="21.457"/>
<line fill="none" stroke="#000000" stroke-width="0.6861" stroke-miterlimit="10" x1="173.609" y1="44.176" x2="198.759" y2="101.51"/>
<line fill="none" stroke="#000000" stroke-width="0.6861" stroke-miterlimit="10" x1="223.215" y1="44.868" x2="223.908" y2="101.395"/>
<line fill="none" stroke="#000000" stroke-width="0.6861" stroke-miterlimit="10" x1="273.514" y1="46.021" x2="252.287" y2="101.51"/>
<text transform="matrix(1 0 0 1 171.3027 37.7158)" font-family="'MyriadPro-Regular'" font-size="16.695">3</text>
<text transform="matrix(1 0 0 1 220.2158 38.4082)" font-family="'MyriadPro-Regular'" font-size="16.695">2</text>
<text transform="matrix(1 0 0 1 268.4365 38.8691)" font-family="'MyriadPro-Regular'" font-size="16.695">5</text>
<text transform="matrix(1 0 0 1 221.1387 117.5449)" font-family="'MyriadPro-Regular'" font-size="16.695">38</text>
<rect x="93.843" y="160.032" fill="#FFFFFF" stroke="#000000" stroke-width="0.4638" stroke-miterlimit="10" width="24.456" height="21.457"/>
<rect x="142.525" y="160.84" fill="#FFFFFF" stroke="#000000" stroke-width="0.4638" stroke-miterlimit="10" width="24.458" height="21.457"/>
<rect x="129.604" y="238.824" fill="#FFFFFF" stroke="#000000" stroke-width="0.6861" stroke-miterlimit="10" width="53.528" height="21.455"/>
<rect x="191.207" y="161.646" fill="#FFFFFF" stroke="#000000" stroke-width="0.4638" stroke-miterlimit="10" width="24.457" height="21.457"/>
<line fill="none" stroke="#000000" stroke-width="0.6861" stroke-miterlimit="10" x1="104.456" y1="181.489" x2="129.604" y2="238.824"/>
<line fill="none" stroke="#000000" stroke-width="0.6861" stroke-miterlimit="10" x1="154.061" y1="182.182" x2="154.754" y2="238.708"/>
<line fill="none" stroke="#000000" stroke-width="0.6861" stroke-miterlimit="10" x1="204.357" y1="183.335" x2="183.133" y2="238.824"/>
<text transform="matrix(1 0 0 1 102.1484 175.0293)" font-family="'MyriadPro-Regular'" font-size="16.695">0</text>
<text transform="matrix(1 0 0 1 151.0615 175.7217)" font-family="'MyriadPro-Regular'" font-size="16.695">6</text>
<text transform="matrix(1 0 0 1 199.2822 176.1826)" font-family="'MyriadPro-Regular'" font-size="16.695">1</text>
<text transform="matrix(1 0 0 1 148.9844 254.8584)" font-family="'MyriadPro-Regular'" font-size="16.695">37</text>
</svg>
